<?xml version="1.0" encoding="utf-8"?>
<!-- Generator: Adobe Illustrator 15.0.0, SVG Export Plug-In . SVG Version: 6.00 Build 0)  -->
<!DOCTYPE svg PUBLIC "-//W3C//DTD SVG 1.1//EN" "http://www.w3.org/Graphics/SVG/1.1/DTD/svg11.dtd">
<svg version="1.1" id="レイヤー_1" xmlns="http://www.w3.org/2000/svg" xmlns:xlink="http://www.w3.org/1999/xlink" x="0px"
	 y="0px" width="75px" height="79px" viewBox="0 0 75 79" enable-background="new 0 0 75 79" xml:space="preserve">
<g>
	<path fill="#FFFFFF" d="M75,12v40H32c-11.05,0-20-8.95-20-20s8.95-20,20-20H75z"/>
	<g>
		<g>
			<g>
				<path fill-rule="evenodd" clip-rule="evenodd" fill="#FEDCAC" d="M1.426,37.519l-0.492,0.089
					C0.028,32.566,0.354,27.337,1.917,22.44C3.47,17.551,6.26,13.066,9.925,9.508c-2.595,3.3-5.537,7.528-7.294,12.559
					C0.832,27.063,0.366,32.728,1.426,37.519z"/>
				<path fill-rule="evenodd" clip-rule="evenodd" fill="#FEC06A" d="M74.972,62.407h-3.023c0.166-0.628,1.177-1.022-0.756-1
					c-0.127-1.084,2.681-0.227,3.779-0.5V62.407z"/>
				<polygon fill-rule="evenodd" clip-rule="evenodd" fill="#FEC579" points="47.667,2.093 47.667,1.593 55.981,1.593 55.981,2.093 
					55.226,2.093 				"/>
				<path fill-rule="evenodd" clip-rule="evenodd" fill="#FECA76" d="M55.981,2.093v-0.5h9.826c-0.14,0.741-1.826,0.458-3.023,0.5
					H55.981z"/>
				<path fill-rule="evenodd" clip-rule="evenodd" fill="#FEBD7B" d="M67.414,61.407h-4.535v-0.5c1.781,0.011,2.226-0.861,4.535-0.5
					V61.407z"/>
				<path fill-rule="evenodd" clip-rule="evenodd" fill="#FEC06A" d="M62.878,60.407c-2.51-0.619-5.357,2.598-6.047,0
					c1.408-0.069,2.526-0.329,3.023-1h0.756C63.11,59.082,65.938,59.744,62.878,60.407z"/>
				<path fill-rule="evenodd" clip-rule="evenodd" fill="#FECA8A" d="M62.784,2.593c1.542,0.873,1.482-0.373,3.023,0.5v0.5h-9.07
					C57.073,2.149,62.448,4.038,62.784,2.593z"/>
				<path fill-rule="evenodd" clip-rule="evenodd" fill="#FECA8A" d="M39.353,3.593c1.059-0.829,7.256-0.829,8.314,0H39.353z"/>
				<path fill-rule="evenodd" clip-rule="evenodd" fill="#FEBC6D" d="M56.832,60.407h-3.023h-3.023c0.009-0.661,1.325-0.457,1.512-1
					h4.535h3.023C59.358,60.078,58.239,60.338,56.832,60.407z"/>
				<path fill-rule="evenodd" clip-rule="evenodd" fill="#FEC06A" d="M5.232,36.021l-0.494,0.074
					c-0.439-2.947-0.401-5.956,0.114-8.892l0.492,0.086C4.839,30.172,4.802,33.128,5.232,36.021z"/>
				<polygon fill-rule="evenodd" clip-rule="evenodd" fill="#D78A3D" points="74.972,56.907 74.972,57.407 74.216,57.407 
					65.902,57.407 65.902,56.907 				"/>
				<path fill-rule="evenodd" clip-rule="evenodd" fill="#E5B46E" d="M29.717,56.314l-0.043,0.498
					c-4.908-0.409-9.669-2.335-13.491-5.441l0.315-0.389C20.243,54.026,24.907,55.913,29.717,56.314z"/>
				<rect x="48.517" y="55.407" fill-rule="evenodd" clip-rule="evenodd" fill="#F2F9F0" width="8.314" height="0.5"/>
				<path fill-rule="evenodd" clip-rule="evenodd" fill="#FFFFFF" d="M17.061,13.853c3.583-2.932,8.046-4.759,12.656-5.162
					l0.045,0.498c-2.17,0.018-4.721,0.778-6.936,1.816C20.588,12.027,18.678,13.273,17.061,13.853z"/>
				<path fill-rule="evenodd" clip-rule="evenodd" fill="#FFFFFF" d="M65.808,9.093c-5.801-0.33-13.597,0.662-18.141-0.5h6.047
					h12.094V9.093z"/>
				<path fill-rule="evenodd" clip-rule="evenodd" fill="#FFFEFE" d="M27.261,53.938c1.3,0.268,2.624,0.422,3.955,0.459l4.451,0.009
					h9.071c-2.272,0.581-5.357,0.624-8.599,0.562l-4.838-0.123c-1.452-0.063-2.85-0.236-4.141-0.418
					c-1.771-0.369-3.499-0.947-5.133-1.724c0.473-0.4,1.321-0.052,2.307,0.352C25.312,53.47,26.45,53.928,27.261,53.938z"/>
				<path fill-rule="evenodd" clip-rule="evenodd" fill="#FEFDFD" d="M13.657,45.933c-0.278-0.357-0.539-0.728-0.796-1.101
					c0.983-0.035,1.854,0.728,2.611,1.517c0.748,0.794,1.397,1.628,1.611,1.843c0.794,0.786,1.004,0.993,0.816,0.922
					c-0.184-0.075-0.744-0.454-1.379-0.955C15.232,47.181,13.755,45.594,13.657,45.933z"/>
				<path fill-rule="evenodd" clip-rule="evenodd" fill="#FEFEFD" d="M41.62,9.593c0.563-1.127,4.24-0.196,6.047-0.5v0.5v0.5H41.62
					V9.593z"/>
				<path fill-rule="evenodd" clip-rule="evenodd" fill="#FEFDFD" d="M10.871,25.637c-0.259,1.494-0.569,2.192-0.788,2.155
					c-0.203-0.032-0.303-0.859,0.31-2.3c1.212-4.026,3.598-7.683,6.79-10.438l0.328,0.378c-1.803,1.566-3.354,3.412-4.559,5.465
					C12.07,22.386,11.372,23.983,10.871,25.637z"/>
				<path fill-rule="evenodd" clip-rule="evenodd" fill="#FEFDFD" d="M47.667,10.093v-0.5c3.042,0.321,8.038-0.65,9.826,0.5h-1.512
					H47.667z"/>
				<path fill-rule="evenodd" clip-rule="evenodd" fill="#FFFFFB" d="M35.573,11.093c0.772-1.156,3.475-1.035,6.047-1h6.047v1
					H35.573z"/>
				<path fill-rule="evenodd" clip-rule="evenodd" fill="#FFFFFE" d="M44.738,52.907c-3.153,0.417-7.624,0.625-12.094,0.625
					l-0.833-0.003c-0.236-0.007-0.473-0.005-0.708-0.021c-0.471-0.019-0.937-0.065-1.396-0.12c-0.918-0.116-1.807-0.306-2.641-0.547
					c-1.668-0.487-3.107-1.2-4.182-1.943c1.491,0.709,3.065,1.236,4.681,1.572c0.808,0.169,1.627,0.285,2.451,0.357
					c0.412,0.038,0.826,0.057,1.24,0.072l1.386,0.008H44.738z"/>
				<path fill-rule="evenodd" clip-rule="evenodd" fill="#FFFFFB" d="M18.7,48.261c-0.772,0.115-1.751-0.654-2.62-1.686
					c-0.882-1.029-1.625-2.3-2.325-3.116c-0.134-0.458-0.673-1.086-1.028-1.686c-0.356-0.598-0.528-1.142-0.01-1.31
					C14.053,43.483,16.125,46.182,18.7,48.261z"/>
				<path fill-rule="evenodd" clip-rule="evenodd" fill="#C8C7C5" d="M74.972,52.907h-6.047h-9.07h-9.07h-6.047H32.644l-1.386-0.008
					c-0.415-0.015-0.828-0.034-1.24-0.072c-0.824-0.072-1.644-0.188-2.451-0.357c-1.616-0.336-3.19-0.863-4.681-1.572
					c-1.491-0.708-2.9-1.594-4.185-2.636c-2.574-2.08-4.647-4.778-5.982-7.797c-0.418-0.943-0.766-1.917-1.038-2.911
					c-0.164-0.597-0.303-1.2-0.412-1.81c-0.438-2.435-0.443-4.973-0.014-7.41c0.144-0.813,0.338-1.617,0.575-2.406
					c1.413-4.743,4.627-8.935,8.823-11.588c2.093-1.33,4.419-2.281,6.841-2.792c1.211-0.253,2.445-0.407,3.688-0.442
					c0.564-0.017,1.377-0.01,2.125-0.012h2.268h12.094h18.141h6.047h3.024c-0.084,0.09,0.109,0.983,0,1
					c-5.377,0.813-13.763,0-21.165,0H36.245l-4.472,0.001c-1.18,0.003-2.358,0.113-3.522,0.322c-2.325,0.425-4.591,1.27-6.648,2.51
					c-4.129,2.464-7.373,6.53-8.79,11.196c-1.444,4.657-1.102,9.929,1.002,14.337c2.069,4.444,5.869,8.058,10.343,9.912
					c2.233,0.936,4.623,1.447,7.03,1.523l8.977,0.012h34.807V52.907z"/>
				<path fill-rule="evenodd" clip-rule="evenodd" fill="#FEC279" d="M31.888,61.407c-0.758,0.22-1.568,0.404-1.788,0.95
					c-0.898-0.049-1.795-0.141-2.688-0.272c0.229-0.373,0.956-0.374,1.009-0.876c2.218,0.237,1.076-0.275,0.953-0.909
					C31.059,60.269,32.001,60.499,31.888,61.407z"/>
				<path fill-rule="evenodd" clip-rule="evenodd" fill="#FEC579" d="M32.644,62.407c-0.694,0.001-1.653,0.002-2.543-0.05
					c0.22-0.546,1.029-0.729,1.788-0.95c0.643,0.092,0.713-0.195,0.756-0.5c1.808-0.304,5.484,0.627,6.047-0.5h5.291
					C40.528,61.289,36.296,61.656,32.644,62.407z"/>
				<path fill-rule="evenodd" clip-rule="evenodd" fill="#FECA7C" d="M1.918,37.43c-0.759-4.218-0.625-8.564,0.4-12.733
					c1.019-4.165,2.952-8.099,5.596-11.464c2.649-3.363,5.991-6.162,9.788-8.154c3.786-2.001,8.017-3.174,12.286-3.428
					c-0.034,1.265-2.849,1.178-5.105,1.774c-0.25,0.757,3.481,0.523,1.161,1.274l-0.807,0.184c-0.176-0.525-1.068-0.37-2.071,0.005
					c-1.007,0.369-2.096,0.962-2.826,1.135c0.084-0.706,0.599-1.398,2.031-1.868c-3.488,0.634-6.383,2.214-8.981,4.32
					c-2.591,2.142-4.957,4.785-7.329,8.36c0.718,0.189,1.457-1.263,2.375-2.638c0.899-1.384,1.984-2.666,2.631-2.292
					c-2.217,2.487-4.36,5.451-5.782,8.5c-1.447,3.029-2.161,6.082-2.156,8.235c-0.327,2.836-0.241,5.71,0.266,8.525L1.918,37.43z"/>
				<path fill-rule="evenodd" clip-rule="evenodd" fill="#FECA76" d="M38.597,1.593h9.07v0.5
					C45.947,3.036,39.403,2.915,38.597,1.593z"/>
				<path fill-rule="evenodd" clip-rule="evenodd" fill="#FEC071" d="M48.517,62.407c0.464-0.445,0.914-0.894,0-1
					c0.103-1.432,5.188,0.432,5.291-1h3.023c0.69,2.598,3.537-0.619,6.047,0v0.5v0.5c-2.172-0.104-3.84,0.126-4.535,1h-3.779h-1.512
					H48.517z"/>
				<path fill-rule="evenodd" clip-rule="evenodd" fill="#FEC075" d="M53.808,60.407c-0.103,1.432-5.188-0.432-5.291,1
					c0.914,0.106,0.464,0.555,0,1h-3.779c0.545-1.639,3.096-1.952,6.047-2H53.808z"/>
				<path fill-rule="evenodd" clip-rule="evenodd" fill="#FECB81" d="M47.667,2.093h7.559c1.048,1.14,5.261,0.186,7.559,0.5
					c-0.336,1.444-5.711-0.444-6.047,1h-1.512c-1.25-0.68-4.41,0.408-7.559,0c-1.059-0.829-7.256-0.829-8.314,0h-4.535
					c-1.526,0.017-2.955-0.041-4.709,0.054c-1.268,0.357-0.015,0.506,0.855,0.461c0.075,0.409-1.166,0.643-2.399,0.797
					c-1.235,0.141-2.498,0.206-2.521-0.206c2.32-0.75-1.412-0.517-1.161-1.274c2.256-0.597,5.071-0.51,5.105-1.774
					c0.412-0.028,0.824-0.04,1.236-0.05l1.138-0.007h2.079h4.157C39.403,2.915,45.947,3.036,47.667,2.093z"/>
				<path fill-rule="evenodd" clip-rule="evenodd" fill="#FEBC72" d="M68.925,61.407h-1.512v-1c-2.31-0.361-2.754,0.511-4.535,0.5
					v-0.5c3.059-0.663,0.232-1.325-2.268-1v-0.5h4.535C66.441,59.717,69.482,59.372,68.925,61.407z"/>
				<path fill-rule="evenodd" clip-rule="evenodd" fill="#FEC279" d="M18.912,57.301c-0.999-0.514-1.967-1.085-2.9-1.709
					c-2.096-1.41-4.002-3.098-5.656-5.005l-0.541-0.645c-0.532-0.652-1.036-1.327-1.508-2.024c0.679-0.24-0.037-1.104-0.682-2.034
					c-0.648-0.929-1.222-1.918-0.512-2.047c0.376,0.472,0.728,1.467,1.15,2.251c0.418,0.785,0.877,1.351,1.286,0.988
					c0.301,0.438,0.608,0.873,0.934,1.292c-0.253,0.948,0.682,2.341,2.058,3.494c1.367,1.17,3.142,2.044,4.306,2.485
					c0.661,0.446,1.344,0.86,2.043,1.244c0.699,0.384,1.416,0.737,2.146,1.058c-0.283,0.467,0.355,0.82,1.205,1.087
					c0.848,0.273,1.89,0.439,2.424,0.721c-0.255,0.355-0.927,0.254-1.071,0.733c-1.077-0.323-2.131-0.716-3.16-1.167
					C19.919,57.799,19.413,57.553,18.912,57.301z"/>
				<path fill-rule="evenodd" clip-rule="evenodd" fill="#FEC472" d="M12.018,11.657c2.007-1.957,4.307-3.618,6.801-4.907
					c0.499-0.256,1.005-0.501,1.519-0.728c0.73-0.173,1.819-0.766,2.826-1.135c1.003-0.375,1.895-0.53,2.071-0.005
					c-2.282,0.622-4.498,1.551-6.404,2.727c-1.909,1.171-3.5,2.587-4.594,4.042c-1.003,0.872-1.943,1.812-2.811,2.82
					C10.368,13.89,12.586,12.37,12.018,11.657z"/>
				<path fill-rule="evenodd" clip-rule="evenodd" fill="#FEC279" d="M59.761,5.593c-1.369-1.094-5.918-0.085-7.559-1
					c-0.541-1.358,3.564,0.358,3.023-1h1.512h9.07c-0.416,1.109,1.444,0.712,1.512,1.5c-0.878-0.082-1.345,0.11-1.512,0.5H59.761z"
					/>
				<path fill-rule="evenodd" clip-rule="evenodd" fill="#FEC57D" d="M69.587,3.593c0.548,1.138,4.31,0.149,3.78,2h-0.756
					c-0.014-1.453-4.272-1.182-5.292-0.5c-0.068-0.788-1.927-0.391-1.512-1.5v-0.5h0.756C66.798,3.771,68.456,3.508,69.587,3.593z"
					/>
				<path fill-rule="evenodd" clip-rule="evenodd" fill="#FEC279" d="M59.855,59.407h-3.023c-0.563-1.127-4.24-0.196-6.047-0.5
					c0.563-1.127,4.239-0.196,6.047-0.5c-0.127,1.084,2.681,0.227,3.779,0.5v0.5H59.855z"/>
				<path fill-rule="evenodd" clip-rule="evenodd" fill="#FEFEFD" d="M74.972,55.407h-3.779c-0.021-0.486-0.925-0.388-1.512-0.5
					c1.965-1.315-1.221-0.394-0.756-2h6.047V55.407z"/>
				<path fill-rule="evenodd" clip-rule="evenodd" fill="#FEFEFD" d="M56.832,54.907c-3.792,0.325-9.557-0.655-12.094,0.5h-9.071
					l-4.478-0.009c-1.389-0.039-2.772-0.2-4.131-0.479l0.102-0.49c1.291,0.182,2.689,0.355,4.141,0.418l4.838,0.123
					c3.242,0.062,6.327,0.019,8.599-0.562h-9.071l-4.451-0.009c-1.331-0.037-2.655-0.191-3.955-0.459l0.102-0.489
					c0.885,0.169,1.792,0.293,2.711,0.371c0.923,0.082,1.804,0.081,2.95,0.088c2.165,0.015,4.33,0.031,6.431,0.004
					c4.203-0.053,8.151-0.275,11.33-1.006h9.07c-0.123,0.582,0.167,0.89,0.756,1c-1.294,0.661-6.364-0.435-9.826,0
					C51.121,55.351,56.496,53.462,56.832,54.907z"/>
				<path fill-rule="evenodd" clip-rule="evenodd" fill="#FEFDFD" d="M27.16,54.428l-0.102,0.49l-0.677-0.152
					c-1.799-0.428-3.544-1.076-5.191-1.916c0.166-0.571-0.907-0.951-1.541-1.454c0.532-0.451,1.645,0.514,2.592,0.856
					c0.151-0.571-0.886-0.898-1.504-1.364c0.829-0.154,1.65,0.486,2.732,1.178c1.066,0.692,2.429,1.418,3.894,1.383l-0.102,0.489
					c-0.812-0.01-1.949-0.468-2.928-0.883c-0.986-0.403-1.834-0.752-2.307-0.352C23.661,53.481,25.388,54.06,27.16,54.428z"/>
				<path fill-rule="evenodd" clip-rule="evenodd" fill="#FFFEFE" d="M21.19,52.85c-1.44-0.738-2.804-1.627-4.063-2.646
					c0.15-0.6-0.544-1.233-1.356-1.962c-0.813-0.722-1.744-1.566-2.114-2.31c0.098-0.339,1.575,1.249,2.864,2.227
					c0.635,0.501,1.195,0.88,1.379,0.955c0.188,0.071-0.022-0.136-0.816-0.922c-0.214-0.215-0.863-1.049-1.611-1.843
					c-0.757-0.79-1.628-1.552-2.611-1.517l-0.414,0.28c-0.909-1.34-1.675-2.775-2.287-4.273c0.582-0.119,0.76-0.474,0.684-0.996
					c1.011-0.35,1.115,0.485,1.326,1.476c0.199,0.984,0.546,2.143,1.585,2.141c0.7,0.815,1.442,2.087,2.325,3.116
					c0.868,1.032,1.847,1.801,2.62,1.686c1.285,1.042,2.694,1.928,4.185,2.636c1.075,0.743,2.513,1.456,4.182,1.943
					c0.834,0.241,1.723,0.431,2.641,0.547c0.459,0.055,0.925,0.101,1.396,0.12c0.235,0.016,0.471,0.014,0.708,0.021l0.833,0.003
					c4.471,0,8.941-0.208,12.094-0.625h6.047c-3.178,0.731-7.126,0.953-11.33,1.006c-2.102,0.026-4.267,0.011-6.431-0.004
					c-1.146-0.007-2.026-0.006-2.95-0.088c-0.92-0.078-1.827-0.202-2.711-0.371c-1.465,0.035-2.828-0.691-3.894-1.383
					c-1.082-0.691-1.903-1.332-2.732-1.178c0.618,0.466,1.656,0.793,1.504,1.364c-0.948-0.342-2.06-1.307-2.592-0.856
					C20.283,51.899,21.355,52.279,21.19,52.85z"/>
				<path fill-rule="evenodd" clip-rule="evenodd" fill="#FEFDFD" d="M10.161,40.839c-0.523-1.284-0.936-2.614-1.22-3.971
					l-0.134-0.681l1.476-0.266c0.502,0.438,0.665,1.666,1.396,1.632c0.272,0.995,0.62,1.968,1.038,2.911
					c-0.518,0.168-0.346,0.712,0.01,1.31c0.355,0.6,0.894,1.227,1.028,1.686c-1.039,0.002-1.386-1.156-1.585-2.141
					c-0.21-0.99-0.314-1.826-1.326-1.476C10.92,40.365,10.743,40.72,10.161,40.839z"/>
				<path fill-rule="evenodd" clip-rule="evenodd" fill="#FEFEFD" d="M8.807,36.187c-0.997-5.468,0.011-11.28,2.852-16.052
					c0.538,0.501-0.194,1.534-0.805,2.668c-0.625,1.124-1.113,2.344-0.461,2.689c-0.613,1.441-0.512,2.268-0.31,2.3
					c0.219,0.037,0.529-0.662,0.788-2.155c0.716-0.018,0.405,0.662,0.148,1.368c-0.262,0.707-0.473,1.436,0.234,1.328
					c-0.429,2.437-0.424,4.975,0.014,7.41c-0.68-0.517-0.922-1.848-0.889-3.306c0.022-1.467,0.331-3.016,0.382-4.19
					c-0.68,0.534-0.923,1.897-0.883,3.389c0.026,1.5,0.346,3.083,0.405,4.286L8.807,36.187z"/>
				<path fill-rule="evenodd" clip-rule="evenodd" fill="#FFFEFE" d="M35.573,8.593h12.094c4.543,1.162,12.34,0.17,18.141,0.5v1
					h-8.314c-1.789-1.15-6.784-0.179-9.826-0.5v-0.5c-1.807,0.304-5.484-0.627-6.047,0.5h-6.047V8.593z"/>
				<path fill-rule="evenodd" clip-rule="evenodd" fill="#FFFEFE" d="M68.925,52.907c-0.465,1.606,2.721,0.685,0.756,2
					c0.586,0.112,1.491,0.014,1.512,0.5H59.855c-0.234-0.678-1.893-0.415-3.023-0.5c-0.336-1.444-5.711,0.444-6.047-1
					c3.462-0.435,8.532,0.661,9.826,0c-0.589-0.11-0.879-0.418-0.756-1H68.925z"/>
				<path fill-rule="evenodd" clip-rule="evenodd" fill="#FFFEFE" d="M11.253,28.333c-0.707,0.108-0.496-0.622-0.234-1.328
					c0.257-0.706,0.568-1.386-0.148-1.368c0.501-1.654,1.199-3.251,2.08-4.74c0.542,0.493-0.146,1.452-0.724,2.509
					c-0.591,1.047-1.054,2.185-0.399,2.521C11.591,26.717,11.396,27.52,11.253,28.333z"/>
				<path fill-rule="evenodd" clip-rule="evenodd" fill="#FFFEFE" d="M47.667,10.093h8.314c1.789,1.15,6.784,0.179,9.826,0.5v0.5
					H47.667V10.093z"/>
				<path fill-rule="evenodd" clip-rule="evenodd" fill="#FFD8A8" d="M74.972,62.407c0.123,0.582-0.167,0.89-0.756,1H35.289h-2.433
					l-1.262-0.003c-0.497-0.002-0.995-0.02-1.493-0.045c-1.991-0.106-3.977-0.408-5.917-0.894c-3.882-0.971-7.571-2.7-10.799-5.05
					C6.91,52.74,2.329,45.505,0.934,37.608l0.492-0.089c0.162,0.902,0.368,1.797,0.61,2.682c1.047,3.516,2.705,7.005,4.982,10.125
					c2.268,3.123,5.151,5.872,8.431,7.953c3.272,2.087,6.937,3.496,10.573,4.102c1.817,0.309,3.623,0.425,5.362,0.363
					c0.466-0.014,0.792-0.039,1.153-0.063l1.061-0.08l2.068-0.194h3.024c3.043,0.832,11.318,0.832,14.361,0h1.512
					c2.294,0.831,9.799,0.831,12.094,0h0.756h4.535H74.972z"/>
				<path fill-rule="evenodd" clip-rule="evenodd" fill="#FEDCAC" d="M12.735,7.076c4.909-3.787,10.997-6.067,17.192-6.423
					c-1.999,0.513-5.521,1.225-8.861,2.507C17.703,4.385,14.581,6.151,12.735,7.076z"/>
				<path fill-rule="evenodd" clip-rule="evenodd" fill="#FDDEB1" d="M66.658,62.407c-2.294,0.831-9.799,0.831-12.094,0h3.779
					H66.658z"/>
				<path fill-rule="evenodd" clip-rule="evenodd" fill="#FDDEB1" d="M53.052,62.407c-3.043,0.832-11.318,0.832-14.361,0h6.047
					h3.779H53.052z"/>
				<path fill-rule="evenodd" clip-rule="evenodd" fill="#FDDEB1" d="M35.667,62.407l-2.068,0.194l-1.061,0.08
					c-0.361,0.024-0.687,0.05-1.153,0.063c-1.739,0.062-3.545-0.054-5.362-0.363c-3.636-0.606-7.3-2.015-10.573-4.102
					c-3.28-2.081-6.163-4.831-8.431-7.953c-2.278-3.12-3.935-6.609-4.982-10.125l0.482-0.132c0.239,0.87,0.517,1.729,0.833,2.575
					c2.72,7.346,8.38,13.499,15.459,16.836c2.715,1.291,5.629,2.172,8.603,2.605c0.892,0.131,1.789,0.223,2.688,0.272
					c0.891,0.053,1.849,0.052,2.543,0.05H35.667z"/>
				<path fill-rule="evenodd" clip-rule="evenodd" fill="#FDC27D" d="M27.413,62.084c-2.974-0.433-5.887-1.314-8.603-2.605
					c0.782-0.783,0.022-1.456,0.102-2.178c0.501,0.252,1.007,0.498,1.522,0.721c-0.483,0.916,0.864,1.681,2.68,2.168
					c1.815,0.506,4.025,0.645,5.308,1.018C28.368,61.711,27.642,61.711,27.413,62.084z"/>
				<path fill-rule="evenodd" clip-rule="evenodd" fill="#FECA76" d="M2.518,40.068c-0.239-0.87-0.441-1.75-0.6-2.638l1.476-0.267
					c0.205,1.125,0.475,2.238,0.809,3.332c-0.598-0.463-0.928-0.59-1.003-0.278c-0.069,0.308,0.1,1.062,0.619,2.251l-0.468,0.175
					C3.035,41.798,2.757,40.938,2.518,40.068z"/>
				<path fill-rule="evenodd" clip-rule="evenodd" fill="#FEC071" d="M68.925,61.407h2.268c1.933-0.022,0.922,0.372,0.756,1h-4.535
					v-1H68.925z"/>
				<path fill-rule="evenodd" clip-rule="evenodd" fill="#FEC279" d="M58.343,62.407c0.695-0.874,2.363-1.104,4.535-1h4.535v1
					h-0.756H58.343z"/>
				<path fill-rule="evenodd" clip-rule="evenodd" fill="#FEC475" d="M50.785,60.407c-2.951,0.048-5.501,0.361-6.047,2h-6.047
					h-3.024h-3.023c3.652-0.751,7.885-1.118,11.338-2c2.205,0.14,2.599-0.121,1.512-1h6.803
					C52.109,59.95,50.793,59.746,50.785,60.407z"/>
				<path fill-rule="evenodd" clip-rule="evenodd" fill="#FDC27D" d="M16.012,55.592c0.162,0.737,1.38,1.476,0.664,2.188
					c-2.065-0.991-3.341-2.165-4.303-3.308c-0.958-1.159-1.612-2.31-2.394-3.559l0.378-0.327
					C12.01,52.494,13.916,54.182,16.012,55.592z"/>
				<path fill-rule="evenodd" clip-rule="evenodd" fill="#FEC57D" d="M10.356,50.586l-0.378,0.327c0.782,1.25,1.436,2.4,2.394,3.559
					c0.962,1.143,2.238,2.316,4.303,3.308c0.717-0.712-0.501-1.452-0.664-2.188c0.933,0.625,1.901,1.196,2.9,1.709
					c-0.079,0.722,0.68,1.395-0.102,2.178c-7.079-3.337-12.739-9.49-15.459-16.836l0.468-0.175C4.13,43.3,4.476,44.118,4.86,44.917
					c0.832-0.13,0.426-1.114,1-1.414c0.227,0.514,0.471,1.02,0.728,1.519c-0.507,0.169,0.016,1.586,0.778,2.784
					c0.751,1.205,1.696,2.159,1.53,1.779c0.036,0.083-0.831,0.563-0.793,0.609c1.105,1.335,1.937,0.958,1.711-0.253L10.356,50.586z"
					/>
				<path fill-rule="evenodd" clip-rule="evenodd" fill="#FECB81" d="M11.066,11.904c-0.647-0.373-1.732,0.909-2.631,2.292
					c-0.918,1.375-1.658,2.827-2.375,2.638c2.373-3.575,4.738-6.218,7.329-8.36c2.598-2.106,5.493-3.686,8.981-4.32
					c-1.432,0.47-1.946,1.162-2.031,1.868c-0.514,0.226-1.02,0.471-1.519,0.728c-1.14-0.168-2.607,0.426-3.882,1.412
					c-1.279,0.984-2.346,2.339-2.919,3.495l-0.593,0.594L11.066,11.904z"/>
				<path fill-rule="evenodd" clip-rule="evenodd" fill="#FAC879" d="M55.981,2.093h6.803v0.5c-2.297-0.314-6.511,0.64-7.559-0.5
					H55.981z"/>
				<path fill-rule="evenodd" clip-rule="evenodd" fill="#FECA7C" d="M70.343,1.593c-0.139,0.425,0.295,0.472,0.756,0.5
					c-0.974,1.557-4.242-1.257-4.535,1h-0.756c-1.541-0.873-1.482,0.373-3.023-0.5v-0.5c1.197-0.042,2.883,0.241,3.023-0.5H70.343z"
					/>
				<path fill-rule="evenodd" clip-rule="evenodd" fill="#FECB81" d="M66.563,3.093c0.293-2.257,3.562,0.557,4.535-1
					c1.187,0.215,0.646,1.573,3.024,1c-0.094,1.104-3.207,0.212-4.536,0.5C68.456,3.508,66.798,3.771,66.563,3.093z"/>
				<path fill-rule="evenodd" clip-rule="evenodd" fill="#FEBC6D" d="M71.193,61.407h-2.268c0.557-2.035-2.484-1.69-3.779-2.5h0.756
					c2.997,0.185,7.244-0.458,9.07,0.5v1.5C73.874,61.18,71.065,60.322,71.193,61.407z"/>
				<path fill-rule="evenodd" clip-rule="evenodd" fill="#FDC27D" d="M9.815,49.941c0.225,1.211-0.606,1.588-1.711,0.253
					c-0.038-0.046,0.829-0.526,0.793-0.609c0.166,0.38-0.779-0.574-1.53-1.779c-0.762-1.198-1.285-2.615-0.778-2.784
					c0.518,0.997,1.09,1.964,1.719,2.895C8.779,48.614,9.284,49.289,9.815,49.941z"/>
				<path fill-rule="evenodd" clip-rule="evenodd" fill="#FEC075" d="M28.652,59.221c0.566,0.357,1.554,0.588,2.599,0.682
					c1.057,0.09,1.983,0.088,2.735,0.112c1.459,0.042,1.841,0.13-1.342,0.892c-0.042,0.305-0.113,0.592-0.756,0.5
					c0.114-0.908-0.829-1.138-2.514-1.107c-1.957-0.168-3.898-0.54-5.78-1.11c0.144-0.479,0.816-0.378,1.071-0.733
					C25.972,58.812,27.307,59.067,28.652,59.221z"/>
				<path fill-rule="evenodd" clip-rule="evenodd" fill="#FEC57D" d="M20.434,58.022c1.029,0.451,2.083,0.844,3.16,1.167
					c1.882,0.57,3.823,0.941,5.78,1.11c0.124,0.634,1.266,1.146-0.953,0.909c-1.283-0.373-3.493-0.512-5.308-1.018
					C21.298,59.703,19.951,58.938,20.434,58.022z"/>
				<path fill-rule="evenodd" clip-rule="evenodd" fill="#FECA7C" d="M5.861,43.503c-0.575,0.3-0.169,1.284-1,1.414
					c-0.385-0.8-0.73-1.618-1.042-2.449C3.3,41.279,3.131,40.525,3.2,40.217c0.075-0.313,0.405-0.185,1.003,0.278
					C4.92,40.552,5.25,42.384,5.861,43.503z"/>
				<path fill-rule="evenodd" clip-rule="evenodd" fill="#FEC579" d="M3.128,28.639c-0.005-2.154,0.708-5.206,2.156-8.235
					c1.421-3.049,3.565-6.012,5.782-8.5l0.359,0.348c-2.933,3.019-5.18,6.703-6.52,10.7c-0.425,0.781-0.656,2.167-0.843,3.358
					C3.875,27.504,3.701,28.517,3.128,28.639z"/>
				<path fill-rule="evenodd" clip-rule="evenodd" fill="#FECA7C" d="M12.018,11.657c0.573-1.156,1.64-2.511,2.919-3.495
					c1.275-0.986,2.742-1.58,3.882-1.412C16.325,8.039,14.025,9.7,12.018,11.657z"/>
				<path fill-rule="evenodd" clip-rule="evenodd" fill="#FEBC6D" d="M43.982,60.407h-5.291v-1h6.803
					C46.581,60.286,46.187,60.546,43.982,60.407z"/>
				<path fill-rule="evenodd" clip-rule="evenodd" fill="#FEC071" d="M6.775,43.098c-0.661-1.485-1.185-3.031-1.567-4.611
					c-0.525,0.175-0.374,1.052-0.005,2.037c0.363,0.989,0.948,2.058,1.116,2.776l-0.457,0.203c-0.611-1.12-0.941-2.952-1.658-3.008
					c-0.334-1.094-0.604-2.207-0.809-3.332c0.404-1.955,1.369,0.814,1.344-1.068l0.494-0.074c0.001,1.098,0.49,2.63,0.966,3.959
					C6.674,41.316,7.112,42.474,6.775,43.098z"/>
				<path fill-rule="evenodd" clip-rule="evenodd" fill="#FEC579" d="M69.587,3.593c1.329-0.288,4.441,0.604,4.536-0.5
					c-2.378,0.573-1.837-0.785-3.024-1c-0.461-0.028-0.895-0.075-0.756-0.5h4.536v4h-1.512C73.897,3.742,70.135,4.731,69.587,3.593z
					"/>
				<path fill-rule="evenodd" clip-rule="evenodd" fill="#FBC079" d="M38.691,59.407v1c-0.563,1.127-4.24,0.196-6.047,0.5
					c3.183-0.762,2.801-0.851,1.342-0.892c-0.752-0.024-1.678-0.022-2.735-0.112c-1.045-0.094-2.032-0.325-2.599-0.682
					c1.271,0.129,3.097,0.431,3.236-0.314h6.803V59.407z"/>
				<path fill-rule="evenodd" clip-rule="evenodd" fill="#FEC075" d="M5.861,43.503l0.457-0.203
					c-0.167-0.719-0.752-1.788-1.116-2.776c-0.368-0.985-0.52-1.862,0.005-2.037c0.383,1.58,0.907,3.126,1.567,4.611l0.339,0.738
					c-0.71,0.129-0.136,1.118,0.512,2.047c0.645,0.93,1.361,1.794,0.682,2.034c-0.629-0.93-1.202-1.897-1.719-2.895
					C6.332,44.523,6.087,44.017,5.861,43.503z"/>
				<path fill-rule="evenodd" clip-rule="evenodd" fill="#FEC075" d="M4.905,22.951c1.087-0.932,1.117-0.364,0.846,0.645
					c-0.277,1.014-0.767,2.559-0.899,3.608c-0.515,2.936-0.553,5.944-0.114,8.892c0.024,1.882-0.94-0.887-1.344,1.068
					c-0.507-2.815-0.593-5.688-0.266-8.525c0.573-0.122,0.746-1.135,0.934-2.329C4.249,25.118,4.48,23.732,4.905,22.951z"/>
				<path fill-rule="evenodd" clip-rule="evenodd" fill="#FEC071" d="M4.852,27.204c0.133-1.049,0.622-2.594,0.899-3.608
					c0.271-1.009,0.241-1.577-0.846-0.645c1.339-3.997,3.587-7.681,6.52-10.7l0.593-0.594c0.568,0.712-1.65,2.233-0.592,2.815
					c-1.388,1.611-2.582,3.39-3.553,5.282c-1.212,2.367-2.067,4.917-2.529,7.536L4.852,27.204z"/>
				<path fill-rule="evenodd" clip-rule="evenodd" fill="#FEC579" d="M26.043,4.699c0.024,0.412,1.287,0.347,2.521,0.206
					c1.233-0.154,2.474-0.388,2.399-0.797c-0.87,0.045-2.124-0.104-0.855-0.461c1.754-0.095,3.184-0.038,4.709-0.054h4.535h8.314
					c3.148,0.408,6.309-0.68,7.559,0c0.541,1.358-3.564-0.358-3.023,1c1.64,0.915,6.19-0.094,7.559,1h-9.07H39.353
					c-1.144-0.577-3.093-0.621-5.199-0.561c-1.067,0.036-2.109,0.07-3.241,0.131l-3.093,0.23c-5,0.743-9.769,2.947-13.583,6.259
					c1.094-1.455,2.685-2.871,4.594-4.042c1.907-1.176,4.123-2.105,6.404-2.727L26.043,4.699z"/>
				<path fill-rule="evenodd" clip-rule="evenodd" fill="#FEBD7B" d="M56.832,59.407h-4.535h-6.803h-6.803v-0.5h9.07h3.023
					C52.592,59.211,56.269,58.279,56.832,59.407z"/>
				<path fill-rule="evenodd" clip-rule="evenodd" fill="#FBC070" d="M28.652,59.221c-1.345-0.154-2.68-0.41-3.986-0.765
					c-0.534-0.281-1.576-0.447-2.424-0.721c-0.85-0.267-1.487-0.62-1.205-1.087c3.407,1.5,7.138,2.27,10.851,2.258
					C31.749,59.652,29.923,59.351,28.652,59.221z"/>
				<path fill-rule="evenodd" clip-rule="evenodd" fill="#FEC071" d="M16.848,54.347c-1.164-0.441-2.939-1.315-4.306-2.485
					c-1.376-1.153-2.311-2.545-2.058-3.494C12.261,50.689,14.423,52.714,16.848,54.347z"/>
				<path fill-rule="evenodd" clip-rule="evenodd" fill="#FECB81" d="M67.319,5.093c1.02-0.682,5.277-0.953,5.292,0.5h-6.803
					C65.975,5.204,66.441,5.012,67.319,5.093z"/>
				<path fill-rule="evenodd" clip-rule="evenodd" fill="#FEC579" d="M74.972,59.407c-1.827-0.958-6.074-0.315-9.07-0.5v-0.5h9.07
					V59.407z"/>
				<path fill-rule="evenodd" clip-rule="evenodd" fill="#FBC670" d="M60.611,58.907c-1.098-0.273-3.907,0.584-3.779-0.5h9.07v0.5
					h-0.756H60.611z"/>
				<path fill-rule="evenodd" clip-rule="evenodd" fill="#FECB81" d="M31.888,58.907c-3.713,0.012-7.444-0.758-10.851-2.258
					c-0.73-0.32-1.447-0.673-2.146-1.058l0.241-0.438c2.918,1.44,6.49,2.797,10.115,3.189c0.899,0.104,1.801,0.151,2.671,0.146
					c0.843-0.004,1.667-0.022,2.46-0.06c1.586-0.076,3.051-0.231,4.313-0.522h8.314c0.144,0.405,0.758,0.499,0.756,1h-9.07H31.888z"
					/>
				<path fill-rule="evenodd" clip-rule="evenodd" fill="#FECA7C" d="M18.891,55.591c-0.699-0.384-1.382-0.798-2.043-1.244
					c-2.425-1.633-4.587-3.657-6.364-5.979c-0.326-0.419-0.633-0.854-0.934-1.292c-0.673-0.911-1.264-1.885-0.814-2.281
					c1.645,2.967,3.867,5.61,6.504,7.742c1.216,0.984,2.519,1.864,3.892,2.616L18.891,55.591z"/>
				<path fill-rule="evenodd" clip-rule="evenodd" fill="#FECB81" d="M11.426,14.473c0.868-1.008,1.808-1.948,2.811-2.82
					l0.328,0.378c-2.166,1.88-4.037,4.106-5.491,6.582C8.807,19.06,8.56,19.52,8.318,19.982l-0.445-0.228
					C8.845,17.862,10.039,16.084,11.426,14.473z"/>
				<path fill-rule="evenodd" clip-rule="evenodd" fill="#FED083" d="M14.237,11.652c3.813-3.313,8.582-5.516,13.583-6.259
					l0.074,0.495c-4.648,0.691-9.094,2.667-12.729,5.64l-0.6,0.502L14.237,11.652z"/>
				<path fill-rule="evenodd" clip-rule="evenodd" fill="#FECA7C" d="M27.82,5.393l3.093-0.23c1.132-0.061,2.174-0.095,3.241-0.131
					c2.106-0.06,4.055-0.016,5.199,0.561h-5.669c-1.858-0.012-3.862-0.018-5.79,0.294L27.82,5.393z"/>
				<path fill-rule="evenodd" clip-rule="evenodd" fill="#FECB81" d="M74.972,58.407h-9.07h-9.07v-0.5h8.314
					c2.793-0.319,7.53,0.647,9.07-0.5h0.756V58.407z"/>
				<path fill-rule="evenodd" clip-rule="evenodd" fill="#F9CD7D" d="M56.832,58.407c-1.808,0.304-5.484-0.627-6.047,0.5h-3.023
					c0.002-0.501-0.612-0.595-0.756-1h1.512h8.314V58.407z"/>
				<path fill-rule="evenodd" clip-rule="evenodd" fill="#FECC93" d="M38.691,57.907c-1.262,0.291-2.727,0.446-4.313,0.522
					c-0.793,0.038-1.617,0.056-2.46,0.06c-0.87,0.005-1.771-0.043-2.671-0.146c-3.625-0.393-7.196-1.749-10.115-3.189
					c-1.373-0.752-2.676-1.632-3.892-2.616l0.314-0.389c4.368,3.561,9.934,5.612,15.567,5.749L38.691,57.907z"/>
				<path fill-rule="evenodd" clip-rule="evenodd" fill="#FDD6A0" d="M15.24,52.537c-2.637-2.132-4.859-4.775-6.504-7.742
					c-4.241-7.527-4.402-17.146-0.417-24.812c0.241-0.462,0.489-0.922,0.756-1.371l0.431,0.254
					c-2.75,4.626-3.957,10.131-3.465,15.483c0.36,4.08,1.714,8.069,3.917,11.523c1.511,2.375,3.406,4.508,5.597,6.276L15.24,52.537z
					"/>
				<path fill-rule="evenodd" clip-rule="evenodd" fill="#FEDBA2" d="M9.074,18.612c1.454-2.476,3.325-4.702,5.491-6.582l0.6-0.502
					l0.316,0.387c-2.378,1.942-4.419,4.301-5.976,6.951L9.074,18.612z"/>
				<path fill-rule="evenodd" clip-rule="evenodd" fill="#FEDD9A" d="M15.165,11.528c3.635-2.974,8.082-4.949,12.729-5.64
					c1.928-0.313,3.931-0.306,5.79-0.294h5.669H50.69v0.5H34.062c-1.38,0.009-2.774-0.035-4.186,0.074
					c-1.403,0.109-2.8,0.324-4.167,0.659c-2.738,0.662-5.362,1.783-7.739,3.293c-0.865,0.547-1.694,1.151-2.489,1.796L15.165,11.528
					z"/>
				<polygon fill-rule="evenodd" clip-rule="evenodd" fill="#FDDA94" points="59.761,5.593 65.808,5.593 72.611,5.593 73.367,5.593 
					74.878,5.593 74.878,6.093 50.69,6.093 50.69,5.593 				"/>
				<path fill-rule="evenodd" clip-rule="evenodd" fill="#F4B36E" d="M74.216,57.407c-1.541,1.147-6.277,0.181-9.07,0.5v-0.5h0.756
					H74.216z"/>
				<polygon fill-rule="evenodd" clip-rule="evenodd" fill="#FBB17A" points="56.832,57.907 48.517,57.907 48.517,57.407 
					52.296,57.407 65.146,57.407 65.146,57.907 				"/>
				<polygon fill-rule="evenodd" clip-rule="evenodd" fill="#F2AE6B" points="47.005,57.907 38.691,57.907 38.691,57.407 
					48.517,57.407 48.517,57.907 				"/>
				<polygon fill-rule="evenodd" clip-rule="evenodd" fill="#FBB17A" points="38.691,57.907 31.121,57.896 31.135,57.396 
					38.691,57.407 				"/>
				<path fill-rule="evenodd" clip-rule="evenodd" fill="#EEB67A" d="M15.554,52.148c-2.191-1.768-4.086-3.9-5.597-6.276
					l0.422-0.268c2.151,3.393,5.118,6.263,8.581,8.299c3.458,2.043,7.411,3.242,11.422,3.461l0.752,0.032l-0.014,0.5
					C25.488,57.76,19.922,55.709,15.554,52.148z"/>
				<path fill-rule="evenodd" clip-rule="evenodd" fill="#F2BB7C" d="M9.957,45.872C7.754,42.418,6.4,38.429,6.04,34.349
					l0.498-0.045c0.312,3.5,1.361,6.935,3.072,10.005c0.24,0.44,0.501,0.87,0.769,1.295L9.957,45.872z"/>
				<path fill-rule="evenodd" clip-rule="evenodd" fill="#EFC183" d="M6.04,34.349c-0.492-5.352,0.715-10.857,3.465-15.483
					l0.431,0.254c-2.043,3.458-3.241,7.411-3.46,11.422c-0.069,1.253-0.052,2.512,0.063,3.762L6.04,34.349z"/>
				<path fill-rule="evenodd" clip-rule="evenodd" fill="#F7C392" d="M9.505,18.866c1.556-2.65,3.597-5.008,5.976-6.951
					c0.795-0.645,1.624-1.249,2.489-1.796l0.268,0.422c-3.391,2.153-6.265,5.117-8.302,8.579L9.505,18.866z"/>
				<path fill-rule="evenodd" clip-rule="evenodd" fill="#FECC93" d="M17.97,10.119c2.377-1.51,5.001-2.631,7.739-3.293
					c1.367-0.335,2.764-0.55,4.167-0.659c1.412-0.108,2.806-0.064,4.186-0.074H50.69h24.188v0.5h-9.071H53.714H36.707h-4.252
					c-1.416-0.014-2.828,0.05-4.226,0.257c-2.797,0.394-5.523,1.271-8.033,2.565c-0.669,0.344-1.323,0.721-1.958,1.125L17.97,10.119
					z"/>
				<polygon fill-rule="evenodd" clip-rule="evenodd" fill="#D88449" points="65.146,57.407 52.296,57.407 52.296,56.907 
					63.634,56.907 65.902,56.907 65.902,57.407 				"/>
				<path fill-rule="evenodd" clip-rule="evenodd" fill="#D37F3F" d="M38.691,57.407l-7.556-0.01l-0.752-0.032l0.028-0.5
					c2.703,0.083,5.524,0.023,8.28,0.042h9.826h3.779v0.5h-3.779H38.691z"/>
				<path fill-rule="evenodd" clip-rule="evenodd" fill="#C98A49" d="M30.382,57.364c-4.012-0.219-7.964-1.418-11.422-3.461
					c-3.463-2.037-6.43-4.907-8.581-8.299c-0.267-0.425-0.528-0.854-0.769-1.295l0.437-0.243c1.551,2.798,3.648,5.292,6.136,7.304
					c3.822,3.106,8.583,5.032,13.491,5.441l0.737,0.053L30.382,57.364z"/>
				<path fill-rule="evenodd" clip-rule="evenodd" fill="#D28C50" d="M6.538,34.304c-0.115-1.25-0.132-2.509-0.063-3.762l0.5,0.028
					c-0.275,4.672,0.793,9.41,3.072,13.496L9.61,44.309C7.899,41.238,6.85,37.804,6.538,34.304z"/>
				<path fill-rule="evenodd" clip-rule="evenodd" fill="#CC904D" d="M6.476,30.542c0.219-4.012,1.417-7.964,3.46-11.422
					l0.431,0.254c-1.379,2.33-2.362,4.891-2.914,7.54c-0.248,1.205-0.409,2.428-0.478,3.657L6.476,30.542z"/>
				<path fill-rule="evenodd" clip-rule="evenodd" fill="#CB8C55" d="M9.936,19.12c2.038-3.462,4.911-6.426,8.302-8.579
					c0.635-0.404,1.289-0.781,1.958-1.125l0.229,0.444c-1.968,1.016-3.797,2.299-5.43,3.797c-1.813,1.666-3.38,3.596-4.629,5.717
					L9.936,19.12z"/>
				<path fill-rule="evenodd" clip-rule="evenodd" fill="#D28C50" d="M20.196,9.416c2.509-1.295,5.236-2.172,8.033-2.565
					c1.398-0.207,2.81-0.271,4.226-0.257h4.252h17.007v0.5H36.707h-4.252c-1.413-0.013-2.779,0.049-4.156,0.252
					c-2.742,0.386-5.414,1.246-7.874,2.515L20.196,9.416z"/>
				<rect x="53.714" y="6.593" fill-rule="evenodd" clip-rule="evenodd" fill="#DA914F" width="12.094" height="0.5"/>
				<polygon fill-rule="evenodd" clip-rule="evenodd" fill="#EDAA64" points="74.972,56.907 65.902,56.907 63.634,56.907 
					63.634,56.407 74.972,56.407 				"/>
				<polygon fill-rule="evenodd" clip-rule="evenodd" fill="#F2AE6B" points="63.634,56.907 52.296,56.907 48.517,56.907 
					48.517,56.407 63.634,56.407 				"/>
				<polygon fill-rule="evenodd" clip-rule="evenodd" fill="#F3AB71" points="48.517,56.907 38.691,56.907 38.691,56.407 
					46.25,56.407 48.517,56.407 				"/>
				<path fill-rule="evenodd" clip-rule="evenodd" fill="#F4B36E" d="M38.691,56.907c-2.756-0.019-5.578,0.042-8.28-0.042
					l-0.737-0.053l0.043-0.498c0.722,0.062,1.443,0.091,2.171,0.093h2.268h4.536V56.907z"/>
				<path fill-rule="evenodd" clip-rule="evenodd" fill="#E5B479" d="M10.047,44.066C7.768,39.98,6.7,35.242,6.975,30.57
					l0.499,0.028c-0.221,3.856,0.472,7.758,2.043,11.284c1.561,3.528,3.979,6.674,6.98,9.1l-0.315,0.389
					C13.695,49.359,11.598,46.865,10.047,44.066z"/>
				<path fill-rule="evenodd" clip-rule="evenodd" fill="#E5B46E" d="M10.367,19.374c1.249-2.121,2.816-4.051,4.629-5.717
					l0.338,0.368c-1.778,1.633-3.313,3.524-4.537,5.603L10.367,19.374z"/>
				<path fill-rule="evenodd" clip-rule="evenodd" fill="#EAA777" d="M14.996,13.657c1.632-1.498,3.461-2.781,5.43-3.797
					c2.46-1.269,5.132-2.128,7.874-2.515c1.376-0.203,2.743-0.265,4.156-0.252h4.252h17.007h12.094v0.5H40.486h-6.331
					c-2.146-0.005-4.146-0.043-6.144,0.3c-3.991,0.624-7.813,2.272-11.016,4.736c-0.574,0.44-1.128,0.906-1.662,1.396L14.996,13.657
					z"/>
				<polygon fill-rule="evenodd" clip-rule="evenodd" fill="#E19A58" points="74.878,7.593 65.808,7.593 65.808,7.093 65.808,6.593 
					74.878,6.593 				"/>
				<rect x="63.634" y="55.907" fill-rule="evenodd" clip-rule="evenodd" fill="#DDBA84" width="11.338" height="0.5"/>
				<polygon fill-rule="evenodd" clip-rule="evenodd" fill="#DFBF92" points="63.634,56.407 48.517,56.407 46.25,56.407 
					46.25,55.907 48.517,55.907 56.832,55.907 63.634,55.907 				"/>
				<path fill-rule="evenodd" clip-rule="evenodd" fill="#E5C39B" d="M29.717,56.314c-4.81-0.401-9.474-2.288-13.219-5.332
					l0.314-0.389c2.752,2.234,6.008,3.839,9.453,4.659c1.55,0.37,3.138,0.583,4.733,0.638c1.59,0.033,3.371,0.009,5.046,0.017H46.25
					v0.5h-7.559h-4.536h-2.268C31.16,56.405,30.439,56.376,29.717,56.314z"/>
				<path fill-rule="evenodd" clip-rule="evenodd" fill="#E3C388" d="M16.498,50.982c-3.002-2.426-5.419-5.571-6.98-9.1
					c-1.571-3.525-2.265-7.428-2.043-11.284c-0.033-0.848,0.218-1.276,0.621-1.384c-0.296,2.582-0.185,5.217,0.356,7.756
					c1.107,5.321,4.125,10.212,8.361,13.623L16.498,50.982z"/>
				<path fill-rule="evenodd" clip-rule="evenodd" fill="#DFB673" d="M16.996,12.629c3.203-2.464,7.025-4.113,11.016-4.736
					c1.998-0.343,3.998-0.305,6.144-0.3h6.331h25.321v0.5H53.714H34.439h-2.41c-0.777,0-1.514,0.025-2.27,0.091
					c-1.5,0.129-2.988,0.398-4.437,0.809c-2.896,0.819-5.634,2.197-8.023,4.033L16.996,12.629z"/>
				<rect x="65.808" y="7.593" fill-rule="evenodd" clip-rule="evenodd" fill="#E3BA87" width="9.071" height="0.5"/>
				<polygon fill-rule="evenodd" clip-rule="evenodd" fill="#F5F4EC" points="63.634,55.907 56.832,55.907 56.832,55.407 
					59.855,55.407 71.193,55.407 74.972,55.407 74.972,55.907 				"/>
				<path fill-rule="evenodd" clip-rule="evenodd" fill="#F5F4EC" d="M48.517,55.907H46.25H36.045
					c-1.676-0.007-3.457,0.017-5.046-0.017c-1.595-0.055-3.183-0.268-4.733-0.638l0.116-0.486l0.677,0.152
					c1.358,0.279,2.742,0.44,4.131,0.479l4.478,0.009h9.071h3.779V55.907z"/>
				<path fill-rule="evenodd" clip-rule="evenodd" fill="#FCF3EB" d="M16.813,50.593c-4.236-3.41-7.253-8.302-8.361-13.623
					l0.489-0.103c0.284,1.357,0.696,2.687,1.22,3.971c0.611,1.498,1.378,2.933,2.287,4.273c1.298,1.915,2.881,3.637,4.68,5.092
					c1.259,1.019,2.623,1.908,4.063,2.646c1.647,0.84,3.393,1.488,5.191,1.916l-0.116,0.486
					C22.82,54.433,19.564,52.828,16.813,50.593z"/>
				<path fill-rule="evenodd" clip-rule="evenodd" fill="#FCEDE1" d="M8.452,36.971c-0.541-2.539-0.653-5.175-0.356-7.756
					c0.607-5.404,3.152-10.551,7.063-14.333l0.349,0.358c-1.496,1.453-2.793,3.102-3.848,4.896
					C8.817,24.907,7.81,30.719,8.807,36.187l0.134,0.681L8.452,36.971z"/>
				<path fill-rule="evenodd" clip-rule="evenodd" fill="#EFE0CC" d="M17.301,13.026c2.389-1.835,5.126-3.213,8.023-4.033
					c1.448-0.41,2.936-0.679,4.437-0.809c0.756-0.066,1.493-0.092,2.27-0.091h2.41h19.274v0.5h-6.047H35.573H32.55
					c-1.041-0.007-1.886,0.011-2.833,0.097c-4.61,0.403-9.073,2.23-12.656,5.162c-0.538,0.439-1.056,0.901-1.554,1.386l-0.349-0.358
					C15.834,14.219,16.55,13.6,17.301,13.026z"/>
				<polygon fill-rule="evenodd" clip-rule="evenodd" fill="#F9E7D2" points="65.808,8.093 74.878,8.093 74.878,8.593 65.808,8.593 
					53.714,8.593 53.714,8.093 				"/>
				<path fill-rule="evenodd" clip-rule="evenodd" fill="#FFFFFE" d="M59.855,55.407h-3.023h-8.314h-3.779
					c2.537-1.155,8.301-0.175,12.094-0.5C57.962,54.992,59.621,54.729,59.855,55.407z"/>
				<path fill-rule="evenodd" clip-rule="evenodd" fill="#FEFEFD" d="M17.127,50.205c-1.799-1.455-3.382-3.177-4.68-5.092
					l0.414-0.28c0.257,0.373,0.518,0.743,0.796,1.101c0.37,0.743,1.3,1.588,2.114,2.31C16.583,48.972,17.277,49.604,17.127,50.205z"
					/>
				<path fill-rule="evenodd" clip-rule="evenodd" fill="#FEFDFD" d="M65.808,8.593h9.071v2.5h-3.024
					c0.144-0.405,0.759-0.499,0.756-1c-2.715-0.038-6.155,0.405-6.803-1V8.593z"/>
				<path fill-rule="evenodd" clip-rule="evenodd" fill="#FCFCFC" d="M29.807,9.687c0.823,0.067,1.919-0.108,3.209-0.152
					c1.216-0.054,2.275-0.005,2.557,0.559H32.55l-1.4,0.012c-0.434,0.015-0.867,0.037-1.298,0.079
					c-4.315,0.378-8.487,2.085-11.843,4.831l-0.498,0.417l-0.328-0.378C20.699,12.001,25.171,10.088,29.807,9.687z"/>
				<path fill-rule="evenodd" clip-rule="evenodd" fill="#FFFFFE" d="M11.679,37.553c-0.731,0.034-0.894-1.194-1.396-1.632
					c-0.06-1.202-0.379-2.785-0.405-4.286c-0.04-1.492,0.204-2.854,0.883-3.389c-0.052,1.175-0.36,2.723-0.382,4.19
					c-0.033,1.458,0.208,2.79,0.889,3.306C11.376,36.353,11.516,36.956,11.679,37.553z"/>
				<path fill-rule="evenodd" clip-rule="evenodd" fill="#FFFFFE" d="M65.808,10.593v-0.5v-1c0.648,1.405,4.088,0.962,6.803,1
					c0.002,0.501-0.612,0.595-0.756,1h-6.047V10.593z"/>
				<path fill-rule="evenodd" clip-rule="evenodd" fill="#FFFFFE" d="M12.951,20.897c1.205-2.053,2.756-3.898,4.559-5.465
					l0.498-0.417c1.354-0.584,3.505-1.817,5.798-2.727c2.274-0.954,4.667-1.578,6.045-2.104c0.431-0.042,0.864-0.063,1.298-0.079
					l1.4-0.012h3.023c-0.282-0.564-1.341-0.613-2.557-0.559c-1.29,0.043-2.386,0.219-3.209,0.152l-0.045-0.498L29.717,8.69
					c0.947-0.086,1.792-0.104,2.833-0.097h3.023v1h6.047v0.5c-2.572-0.035-5.274-0.156-6.047,1h-2.268
					c-0.749,0.001-1.562-0.005-2.125,0.012c-1.243,0.035-2.477,0.189-3.688,0.442c-2.422,0.511-4.749,1.462-6.841,2.792
					c-4.195,2.653-7.41,6.845-8.823,11.588c-0.655-0.336-0.192-1.474,0.399-2.521C12.805,22.349,13.494,21.39,12.951,20.897z"/>
				<path fill-rule="evenodd" clip-rule="evenodd" fill="#FFFEFE" d="M11.659,20.135c1.055-1.794,2.353-3.443,3.848-4.896
					c0.498-0.485,1.016-0.947,1.554-1.386c1.617-0.58,3.527-1.825,5.766-2.848c2.214-1.039,4.765-1.799,6.936-1.816l0.045,0.498
					c-4.635,0.402-9.107,2.315-12.624,5.368c-3.192,2.756-5.578,6.413-6.79,10.438c-0.652-0.345-0.165-1.565,0.461-2.689
					C11.465,21.669,12.196,20.636,11.659,20.135z"/>
				<path fill-rule="evenodd" clip-rule="evenodd" fill="#FFFFFF" d="M55.981,10.093h1.512h8.314v0.5
					C62.766,10.272,57.771,11.243,55.981,10.093z"/>
				<path fill-rule="evenodd" clip-rule="evenodd" fill="#FEFEFD" d="M18.008,15.015c3.356-2.746,7.528-4.453,11.843-4.831
					c-1.378,0.526-3.771,1.15-6.045,2.104C21.513,13.198,19.362,14.431,18.008,15.015z"/>
				<path fill-rule="evenodd" clip-rule="evenodd" fill="#FDE3B3" d="M2.518,40.068l-0.482,0.132
					c-0.243-0.884-0.448-1.779-0.61-2.682c-1.06-4.792-0.594-10.456,1.205-15.452c1.758-5.031,4.7-9.259,7.294-12.559
					c0.885-0.865,1.825-1.679,2.81-2.433c1.846-0.925,4.968-2.69,8.331-3.916c3.341-1.283,6.863-1.994,8.861-2.507
					c0.444-0.029,0.89-0.044,1.334-0.053l1.194-0.007h2.173h4.346h8.692h17.385h6.047c1.429,0.222,4.556-0.68,3.78,1h-4.536h-4.535
					h-9.826h-8.314h-9.07h-4.157h-2.079l-1.138,0.007c-0.412,0.01-0.824,0.022-1.236,0.05c-4.269,0.254-8.5,1.427-12.286,3.428
					c-3.796,1.993-7.139,4.791-9.788,8.154c-2.644,3.365-4.577,7.299-5.596,11.464c-1.026,4.169-1.159,8.515-0.4,12.733
					C2.077,38.318,2.279,39.198,2.518,40.068z"/>
				<path fill-rule="evenodd" clip-rule="evenodd" fill="#FCCE77" d="M6.775,43.098c0.337-0.625-0.101-1.782-0.576-3.117
					c-0.476-1.33-0.965-2.861-0.966-3.959c-0.431-2.893-0.394-5.849,0.112-8.731c0.461-2.619,1.317-5.168,2.529-7.536l0.445,0.228
					c-3.985,7.666-3.823,17.285,0.417,24.812c-0.45,0.396,0.141,1.37,0.814,2.281c-0.408,0.363-0.867-0.203-1.286-0.988
					c-0.422-0.784-0.773-1.779-1.15-2.251L6.775,43.098z"/>
				<path fill-rule="evenodd" clip-rule="evenodd" fill="#EEB67A" d="M7.453,26.913c0.552-2.649,1.535-5.21,2.914-7.54l0.431,0.254
					c-0.764,0.968-1.374,2.565-1.833,4.017C8.492,25.099,8.14,26.41,7.453,26.913z"/>
				<path fill-rule="evenodd" clip-rule="evenodd" fill="#DDBA84" d="M7.453,26.913c0.687-0.503,1.039-1.814,1.511-3.269
					c0.459-1.452,1.069-3.048,1.833-4.017c1.224-2.079,2.759-3.97,4.537-5.603c0.533-0.489,1.088-0.955,1.662-1.396l0.305,0.396
					c-0.751,0.574-1.466,1.193-2.143,1.855c-3.911,3.783-6.456,8.93-7.063,14.333c-0.403,0.108-0.654,0.537-0.621,1.384L6.975,30.57
					C7.044,29.341,7.205,28.118,7.453,26.913z"/>
			</g>
		</g>
	</g>
	<g>
		<path fill="#808080" d="M61.95,21.51C61.72,22.92,60.49,24,59,24H35c-0.57,0-1.11-0.16-1.56-0.44c-0.74-0.44-1.26-1.19-1.39-2.07
			c0.1-0.62,0.4-1.18,0.83-1.61C33.42,19.34,34.17,19,35,19h24c1.09,0,2.04,0.57,2.56,1.44C61.76,20.76,61.9,21.12,61.95,21.51z"/>
		<path fill="#808080" d="M62,32c0,1.66-1.34,3-3,3H35c-0.57,0-1.11-0.16-1.56-0.44C32.57,34.04,32,33.09,32,32
			c0-0.17,0.01-0.34,0.05-0.51c0.13,0.88,0.65,1.63,1.39,2.07C33.89,33.84,34.43,34,35,34h24c1.49,0,2.72-1.08,2.95-2.49
			C61.99,31.67,62,31.83,62,32z"/>
		<path fill="#808080" d="M61.95,31.51C61.72,32.92,60.49,34,59,34H35c-0.57,0-1.11-0.16-1.56-0.44c-0.74-0.44-1.26-1.19-1.39-2.07
			c0.1-0.62,0.4-1.18,0.83-1.61C33.42,29.34,34.17,29,35,29h24c1.09,0,2.04,0.57,2.56,1.44C61.76,30.76,61.9,31.12,61.95,31.51z"/>
		<path fill="#808080" d="M62,42c0,1.66-1.34,3-3,3H35c-0.57,0-1.11-0.16-1.56-0.44C32.57,44.04,32,43.09,32,42
			c0-0.17,0.01-0.34,0.05-0.51c0.13,0.88,0.65,1.63,1.39,2.07C33.89,43.84,34.43,44,35,44h24c1.49,0,2.72-1.08,2.95-2.49
			C61.99,41.67,62,41.83,62,42z"/>
		<path fill="#808080" d="M61.95,41.51C61.72,42.92,60.49,44,59,44H35c-0.57,0-1.11-0.16-1.56-0.44c-0.74-0.44-1.26-1.19-1.39-2.07
			c0.1-0.62,0.4-1.18,0.83-1.61C33.42,39.34,34.17,39,35,39h24c1.09,0,2.04,0.57,2.56,1.44C61.76,40.76,61.9,41.12,61.95,41.51z"/>
		<path fill="#808080" d="M62,22c0,1.66-1.34,3-3,3H35c-0.57,0-1.11-0.16-1.56-0.44C32.57,24.04,32,23.09,32,22
			c0-0.17,0.01-0.34,0.05-0.51c0.13,0.88,0.65,1.63,1.39,2.07C33.89,23.84,34.43,24,35,24h24c1.49,0,2.72-1.08,2.95-2.49
			C61.99,21.67,62,21.83,62,22z"/>
	</g>
	<g>
		<path fill="#808080" d="M61.95,21.51C61.72,22.92,60.49,24,59,24H35c-0.57,0-1.11-0.16-1.56-0.44c-0.74-0.44-1.26-1.19-1.39-2.07
			c0.1-0.62,0.4-1.18,0.83-1.61C33.42,19.34,34.17,19,35,19h24c1.09,0,2.04,0.57,2.56,1.44C61.76,20.76,61.9,21.12,61.95,21.51z"/>
		<path fill="#808080" d="M61.95,31.51C61.72,32.92,60.49,34,59,34H35c-0.57,0-1.11-0.16-1.56-0.44c-0.74-0.44-1.26-1.19-1.39-2.07
			c0.1-0.62,0.4-1.18,0.83-1.61C33.42,29.34,34.17,29,35,29h24c1.09,0,2.04,0.57,2.56,1.44C61.76,30.76,61.9,31.12,61.95,31.51z"/>
		<path fill="#808080" d="M61.95,41.51C61.72,42.92,60.49,44,59,44H35c-0.57,0-1.11-0.16-1.56-0.44c-0.74-0.44-1.26-1.19-1.39-2.07
			c0.1-0.62,0.4-1.18,0.83-1.61C33.42,39.34,34.17,39,35,39h24c1.09,0,2.04,0.57,2.56,1.44C61.76,40.76,61.9,41.12,61.95,41.51z"/>
	</g>
	<g>
		<path fill="#CCCCCC" d="M62,22c0,1.66-1.34,3-3,3H35c-0.57,0-1.11-0.16-1.56-0.44C33.16,24.11,33,23.57,33,23
			c0-0.83,0.34-1.58,0.88-2.12S35.17,20,36,20h24c0.57,0,1.11,0.16,1.56,0.44C61.84,20.89,62,21.43,62,22z"/>
		<path fill="#CCCCCC" d="M62,32c0,1.66-1.34,3-3,3H35c-0.57,0-1.11-0.16-1.56-0.44C33.16,34.11,33,33.57,33,33
			c0-0.83,0.34-1.58,0.88-2.12S35.17,30,36,30h24c0.57,0,1.11,0.16,1.56,0.44C61.84,30.89,62,31.43,62,32z"/>
		<path fill="#CCCCCC" d="M62,42c0,1.66-1.34,3-3,3H35c-0.57,0-1.11-0.16-1.56-0.44C33.16,44.11,33,43.57,33,43
			c0-0.83,0.34-1.58,0.88-2.12S35.17,40,36,40h24c0.57,0,1.11,0.16,1.56,0.44C61.84,40.89,62,41.43,62,42z"/>
	</g>
</g>
</svg>
