<?xml version="1.0" encoding="utf-8"?>
<!-- Generator: Adobe Illustrator 15.0.0, SVG Export Plug-In  -->
<!DOCTYPE svg PUBLIC "-//W3C//DTD SVG 1.1//EN" "http://www.w3.org/Graphics/SVG/1.1/DTD/svg11.dtd" [
	<!ENTITY ns_flows "http://ns.adobe.com/Flows/1.0/">
]>
<svg version="1.1"
	 xmlns="http://www.w3.org/2000/svg" xmlns:xlink="http://www.w3.org/1999/xlink" xmlns:a="http://ns.adobe.com/AdobeSVGViewerExtensions/3.0/"
	 x="0px" y="0px" width="60px" height="34px" viewBox="11 7 60 34" enable-background="new 11 7 60 34" xml:space="preserve">
<defs>
</defs>
<rect display="none" fill="#EAEAEA" width="228" height="757"/>
<rect display="none" fill="#FFFFFF" width="228" height="50"/>
<path fill="#80CBEC" d="M26.298,25.886c0,0.972-0.142,1.857-0.425,2.655c-0.283,0.797-0.703,1.508-1.26,2.131
	c-0.576,0.642-1.253,1.126-2.032,1.451c-0.778,0.326-1.649,0.489-2.612,0.489c-0.736,0-1.399-0.116-1.989-0.347
	c-0.59-0.231-1.103-0.583-1.537-1.055c-0.425-0.462-0.744-0.989-0.956-1.579c-0.213-0.59-0.319-1.262-0.319-2.018
	c0-0.585,0.09-1.13,0.269-1.636c0.179-0.505,0.444-0.97,0.793-1.395c0.377-0.453,0.807-0.791,1.289-1.013
	c0.481-0.222,1.01-0.333,1.586-0.333c0.859,0,1.591,0.248,2.195,0.744c0.604,0.495,0.906,1.163,0.906,2.003
	c0,0.321-0.047,0.611-0.142,0.871c-0.094,0.26-0.226,0.498-0.396,0.715c-0.188,0.236-0.41,0.411-0.664,0.524
	c-0.255,0.113-0.537,0.17-0.848,0.17c-0.461,0-0.819-0.106-1.074-0.318c-0.254-0.213-0.405-0.531-0.452-0.956
	c0.08,0.076,0.172,0.13,0.276,0.163c0.104,0.033,0.222,0.049,0.354,0.049c0.331,0,0.576-0.083,0.736-0.248
	c0.161-0.166,0.241-0.418,0.241-0.758s-0.102-0.597-0.304-0.771c-0.203-0.175-0.503-0.262-0.899-0.262
	c-0.368,0-0.696,0.073-0.984,0.219c-0.288,0.146-0.536,0.366-0.743,0.659c-0.179,0.255-0.316,0.545-0.411,0.871
	c-0.094,0.326-0.142,0.682-0.142,1.069c0,0.859,0.319,1.553,0.956,2.082c0.638,0.529,1.39,0.793,2.259,0.793
	c0.566,0,1.076-0.121,1.529-0.361c0.453-0.241,0.85-0.602,1.189-1.083c0.312-0.444,0.545-0.918,0.701-1.423
	c0.155-0.505,0.233-1.055,0.233-1.649c0-0.689-0.097-1.317-0.29-1.883c-0.194-0.566-0.484-1.071-0.871-1.515
	c-0.406-0.462-0.883-0.812-1.43-1.048s-1.166-0.354-1.855-0.354c-0.604,0-1.164,0.121-1.678,0.361
	c-0.515,0.241-0.989,0.597-1.423,1.069c-0.406,0.434-0.731,0.918-0.977,1.451c-0.246,0.534-0.406,1.103-0.481,1.707l-0.793,6.103
	l-2.025,0.453l0.156-16.525l1.699-0.212l0.028-0.949l-1.756,0.071v-1.147l1.798-0.212l-0.071-1.133l-1.728,0.212l-0.057-1.005
	l1.855-0.312l0.071-1.161l-1.926,0.326V9.064l6.16-1.104l-2.648,14.273c0.472-1,1.185-1.813,2.138-2.436s1.978-0.935,3.073-0.935
	c0.925,0,1.749,0.182,2.471,0.545c0.723,0.364,1.343,0.909,1.862,1.636c0.462,0.651,0.807,1.381,1.034,2.188
	C26.185,24.039,26.298,24.923,26.298,25.886z"/>
<path fill="#80CBEC" d="M36.338,7.818L33.449,32.06l-4.489-0.439l0.219-1.289l1.742,0.241l0.07-2.591l-1.982-0.127l0.1-1.175
	l1.883,0.028l0.043-2.478l-2.075-0.085l0.149-1.048h1.954l0.042-2.719l-2.244-0.142l0.148-1.416l2.124,0.382V16.88L29.01,16.64
	l0.17-1.161l1.997-0.042l0.028-2.45l-2.315-0.113l0.262-1.331l2.054,0.212l0.07-2.308l-2.457-0.184l0.191-1.444H36.338z"/>
<path fill="#80CBEC" d="M54.158,24.449l-1.777,0.481c0.028,0.18,0.052,0.371,0.071,0.574s0.028,0.417,0.028,0.644
	c0,0.34-0.023,0.675-0.071,1.006c-0.047,0.33-0.118,0.661-0.212,0.991l1.423,0.651l-0.723,1.249l-1.12-0.795
	c-0.359,0.767-0.823,1.415-1.39,1.945c-0.567,0.53-1.238,0.951-2.013,1.263l0.396,1.69l-1.299,0.325l-0.254-1.664
	c-0.283,0.047-0.53,0.083-0.742,0.106c-0.212,0.024-0.393,0.036-0.543,0.036c-0.567,0-1.123-0.071-1.667-0.212
	s-1.065-0.363-1.566-0.666l-1.049,1.635l-1.12-0.651l1.189-1.704c-0.377-0.313-0.71-0.663-0.998-1.051
	c-0.288-0.388-0.53-0.81-0.728-1.264l-1.765,0.554l-0.254-1.208l1.607-0.354c-0.085-0.35-0.146-0.685-0.184-1.006
	c-0.038-0.321-0.057-0.613-0.057-0.878c0-0.292,0.017-0.578,0.05-0.856c0.033-0.278,0.087-0.545,0.163-0.8l-1.579-0.51l0.325-1.218
	l1.625,0.68c0.227-0.576,0.521-1.1,0.883-1.572c0.363-0.472,0.79-0.887,1.281-1.246l-0.949-1.486l1.092-0.751l0.936,1.593
	c0.435-0.208,0.882-0.363,1.34-0.467c0.458-0.104,0.934-0.156,1.426-0.156c0.49,0,0.954,0.049,1.392,0.149
	c0.438,0.099,0.86,0.243,1.266,0.432l0.75-1.353l1.103,0.623l-0.765,1.374c0.557,0.406,1.034,0.873,1.432,1.401
	c0.397,0.529,0.728,1.124,0.993,1.784l1.731-0.765L54.158,24.449z M48.516,26.148c0-0.594-0.057-1.14-0.17-1.64
	c-0.113-0.5-0.296-0.957-0.551-1.372c-0.301-0.5-0.659-0.874-1.074-1.124c-0.415-0.25-0.899-0.375-1.456-0.375
	c-0.539,0-1.021,0.125-1.447,0.375c-0.426,0.25-0.785,0.629-1.079,1.138c-0.246,0.415-0.428,0.875-0.546,1.378
	c-0.118,0.504-0.177,1.044-0.177,1.619c0,0.615,0.059,1.175,0.177,1.681c0.118,0.506,0.295,0.962,0.532,1.369
	c0.293,0.511,0.653,0.889,1.079,1.135c0.426,0.246,0.913,0.369,1.461,0.369c0.565,0,1.06-0.123,1.484-0.369
	c0.424-0.246,0.777-0.624,1.06-1.135c0.226-0.406,0.4-0.863,0.523-1.369C48.454,27.323,48.516,26.763,48.516,26.148z"/>
<path fill="#80CBEC" d="M70.712,18.65l-0.1,1.204l-1.643-0.071l-0.142,1.175l1.657,0.142l-0.1,1.487l-1.869-0.212l0.028,1.204
	l1.699,0.283l-0.113,1.303l-1.756-0.142l-0.07,1.289l1.728,0.227c-0.387,4.692-1.22,8.208-2.5,10.549s-3.004,3.512-5.175,3.512
	c-0.756,0-1.472-0.146-2.148-0.438c-0.676-0.292-1.321-0.73-1.935-1.315c-0.567-0.538-1.04-1.132-1.417-1.782
	c-0.378-0.651-0.676-1.362-0.893-2.136l1.026-0.658c0.246,0.472,0.526,0.899,0.843,1.281c0.316,0.383,0.663,0.729,1.041,1.041
	c0.453,0.368,0.908,0.64,1.366,0.814c0.458,0.174,0.913,0.262,1.366,0.262c0.707,0,1.327-0.205,1.859-0.616
	c0.532-0.41,0.982-1.031,1.35-1.862c0.254-0.576,0.462-1.227,0.622-1.954s0.264-1.52,0.311-2.379
	c-0.48,0.312-0.994,0.543-1.54,0.694s-1.126,0.227-1.738,0.227c-1.777,0-3.301-0.623-4.572-1.869
	c-1.271-1.246-1.907-2.756-1.907-4.531c0-1.765,0.635-3.271,1.907-4.517c1.271-1.246,2.795-1.869,4.572-1.869
	c0.716,0,1.395,0.106,2.036,0.319c0.641,0.212,1.239,0.521,1.795,0.927l0.099-2.167L70.712,18.65z M65.883,25.405
	c0-0.453-0.057-0.88-0.17-1.281c-0.113-0.401-0.288-0.786-0.523-1.154c-0.255-0.396-0.56-0.694-0.914-0.892
	s-0.748-0.297-1.182-0.297c-0.521,0-0.996,0.127-1.426,0.382c-0.431,0.255-0.821,0.642-1.17,1.161
	c-0.313,0.462-0.544,0.946-0.695,1.452c-0.151,0.505-0.227,1.026-0.227,1.564c0,0.462,0.054,0.899,0.163,1.31
	c0.109,0.411,0.276,0.786,0.503,1.126c0.274,0.406,0.585,0.708,0.935,0.906s0.741,0.297,1.175,0.297c0.511,0,0.986-0.13,1.426-0.389
	c0.44-0.26,0.83-0.649,1.171-1.168c0.303-0.462,0.534-0.944,0.695-1.444C65.803,26.476,65.883,25.952,65.883,25.405z M64.538,25.751
	c0,0.481-0.172,0.897-0.517,1.246c-0.345,0.35-0.767,0.524-1.267,0.524c-0.472,0-0.878-0.177-1.218-0.531s-0.51-0.767-0.51-1.239
	c0-0.472,0.174-0.88,0.523-1.225c0.35-0.345,0.751-0.517,1.204-0.517c0.481,0,0.899,0.17,1.253,0.51S64.538,25.27,64.538,25.751z"/>
<rect id="_x3C_スライス_x3E__1_" x="11" y="7" fill="none" width="60" height="34"/>
</svg>
