<?xml version="1.0" encoding="utf-8"?>
<!-- Generator: Adobe Illustrator 15.0.0, SVG Export Plug-In  -->
<!DOCTYPE svg PUBLIC "-//W3C//DTD SVG 1.1//EN" "http://www.w3.org/Graphics/SVG/1.1/DTD/svg11.dtd" [
	<!ENTITY ns_flows "http://ns.adobe.com/Flows/1.0/">
]>
<svg version="1.1"
	 xmlns="http://www.w3.org/2000/svg" xmlns:xlink="http://www.w3.org/1999/xlink" xmlns:a="http://ns.adobe.com/AdobeSVGViewerExtensions/3.0/"
	 x="0px" y="0px" width="104px" height="21px" viewBox="11 14 104 21" enable-background="new 11 14 104 21" xml:space="preserve">
<defs>
</defs>
<rect display="none" fill="#EAEAEA" width="228" height="757"/>
<rect display="none" fill="#FFFFFF" width="228" height="50"/>
<path fill="#80CBEC" d="M24.458,29.037c-0.896,1.197-1.883,2.092-2.963,2.686c-1.08,0.593-2.256,0.89-3.529,0.89
	c-1.975,0-3.584-0.606-4.826-1.82c-1.243-1.213-1.864-2.801-1.864-4.765c0-1.935,0.708-3.613,2.126-5.034
	c1.417-1.42,3.09-2.131,5.018-2.131c0.575,0,1.105,0.047,1.591,0.142c0.485,0.094,0.921,0.235,1.308,0.423
	c0.519,0.245,0.905,0.556,1.159,0.932c0.254,0.377,0.382,0.815,0.382,1.313c0,0.464-0.191,0.923-0.572,1.377
	c-0.381,0.454-0.958,0.904-1.729,1.349l-0.616-0.587c0.198-0.198,0.361-0.403,0.488-0.615c0.128-0.212,0.215-0.431,0.262-0.658
	l-1.685-0.424l0.198-0.607l1.529,0.212c-0.028-0.235-0.111-0.447-0.247-0.636s-0.327-0.354-0.572-0.495
	c-0.207-0.123-0.426-0.212-0.656-0.269s-0.473-0.085-0.727-0.085c-0.132,0-0.272,0.007-0.418,0.021
	c-0.146,0.015-0.295,0.031-0.447,0.05l0.327,2.209l-0.653,0.156l-0.582-1.926c-0.435,0.198-0.811,0.481-1.127,0.85
	c-0.317,0.368-0.57,0.812-0.759,1.331l1.958,0.581l-0.284,0.722l-1.929-0.481c-0.076,0.217-0.135,0.474-0.177,0.772
	c-0.043,0.297-0.064,0.639-0.064,1.026c0,0.179,0.009,0.352,0.028,0.517c0.019,0.166,0.047,0.324,0.085,0.475l1.613-0.552
	l0.439,0.835l-1.854,0.651c0.084,0.283,0.217,0.573,0.396,0.871c0.179,0.297,0.401,0.606,0.665,0.927l1.288-1.005l0.623,0.51
	l-1.118,1.076c0.311,0.246,0.662,0.427,1.054,0.545c0.391,0.118,0.837,0.177,1.337,0.177l0.127-1.657h0.735l0.142,1.628
	c0.339-0.028,0.672-0.097,0.998-0.206c0.326-0.108,0.653-0.257,0.983-0.446l-0.509-1.416l0.651-0.241l0.552,1.147
	c0.16-0.123,0.328-0.271,0.502-0.446c0.174-0.175,0.351-0.375,0.531-0.602L24.458,29.037z"/>
<path fill="#80CBEC" d="M42.278,24.449l-1.777,0.481c0.028,0.18,0.052,0.371,0.071,0.574s0.028,0.417,0.028,0.644
	c0,0.34-0.023,0.675-0.071,1.006c-0.047,0.33-0.118,0.661-0.212,0.991l1.423,0.651l-0.724,1.249l-1.12-0.795
	c-0.359,0.767-0.823,1.415-1.39,1.945c-0.567,0.53-1.238,0.951-2.013,1.263l0.396,1.69l-1.299,0.325l-0.254-1.664
	c-0.283,0.047-0.53,0.083-0.742,0.106c-0.212,0.024-0.393,0.036-0.544,0.036c-0.567,0-1.123-0.071-1.666-0.212
	s-1.065-0.363-1.566-0.666l-1.049,1.635l-1.12-0.651l1.189-1.704c-0.377-0.313-0.71-0.663-0.998-1.051
	c-0.288-0.388-0.53-0.81-0.728-1.264l-1.765,0.554l-0.254-1.208l1.607-0.354c-0.085-0.35-0.146-0.685-0.184-1.006
	c-0.038-0.321-0.057-0.613-0.057-0.878c0-0.292,0.017-0.578,0.049-0.856c0.033-0.278,0.087-0.545,0.163-0.8l-1.579-0.51l0.325-1.218
	l1.625,0.68c0.227-0.576,0.521-1.1,0.883-1.572c0.363-0.472,0.79-0.887,1.281-1.246l-0.949-1.486l1.092-0.751l0.936,1.593
	c0.435-0.208,0.882-0.363,1.34-0.467c0.458-0.104,0.934-0.156,1.425-0.156c0.49,0,0.955,0.049,1.393,0.149
	c0.438,0.099,0.86,0.243,1.266,0.432l0.75-1.353l1.103,0.623l-0.765,1.374c0.557,0.406,1.034,0.873,1.432,1.401
	c0.397,0.529,0.728,1.124,0.993,1.784l1.731-0.765L42.278,24.449z M36.635,26.148c0-0.594-0.057-1.14-0.17-1.64
	c-0.113-0.5-0.296-0.957-0.551-1.372c-0.301-0.5-0.659-0.874-1.074-1.124c-0.415-0.25-0.899-0.375-1.455-0.375
	c-0.54,0-1.022,0.125-1.448,0.375c-0.426,0.25-0.785,0.629-1.079,1.138c-0.246,0.415-0.428,0.875-0.546,1.378
	c-0.118,0.504-0.177,1.044-0.177,1.619c0,0.615,0.059,1.175,0.177,1.681c0.118,0.506,0.295,0.962,0.532,1.369
	c0.293,0.511,0.653,0.889,1.079,1.135c0.426,0.246,0.913,0.369,1.462,0.369c0.565,0,1.06-0.123,1.483-0.369
	c0.424-0.246,0.777-0.624,1.06-1.135c0.226-0.406,0.4-0.863,0.523-1.369C36.574,27.323,36.635,26.763,36.635,26.148z"/>
<path fill="#80CBEC" d="M59.617,31.5l-5.452,0.97c0.076-2.889,0.127-4.859,0.156-5.912c0.028-1.053,0.042-1.711,0.042-1.976
	c0-0.878-0.142-1.536-0.425-1.976c-0.283-0.438-0.713-0.658-1.289-0.658c-0.538,0-1.102,0.243-1.692,0.729
	c-0.59,0.486-1.206,1.214-1.848,2.186l-0.411,7.33l-2.563,0.347l-1.515-12.985l4.843-1.02l-0.212,4.078
	c0.699-0.935,1.439-1.64,2.223-2.117c0.784-0.477,1.605-0.715,2.464-0.715c1.133,0,2.06,0.425,2.783,1.274
	c0.722,0.849,1.253,2.127,1.593,3.835L59.617,31.5z M57.281,25.95c0-0.292-0.076-0.517-0.227-0.672s-0.377-0.234-0.68-0.234
	s-0.531,0.078-0.687,0.234c-0.155,0.156-0.233,0.38-0.233,0.672c0,0.312,0.078,0.545,0.233,0.701
	c0.156,0.156,0.385,0.233,0.687,0.233s0.529-0.078,0.68-0.233S57.281,26.261,57.281,25.95z M57.805,29.405
	c0-0.321-0.118-0.592-0.354-0.814s-0.51-0.333-0.821-0.333c-0.396,0-0.691,0.097-0.885,0.29c-0.193,0.193-0.29,0.479-0.29,0.856
	c0,0.387,0.097,0.678,0.29,0.871c0.194,0.193,0.489,0.29,0.885,0.29c0.312,0,0.585-0.111,0.821-0.333S57.805,29.735,57.805,29.405z"
	/>
<path fill="#80CBEC" d="M71.568,19.996l-0.212,1.473l-2.832,0.212l-0.212,1.699l3.044,0.085l-0.581,2.011l-2.705-0.17l-1.062,7.802
	l-2.082,0.368l-0.269-8.425l-2.549-0.184l0.425-1.6l2.096,0.042l-0.071-1.331l-2.705,0.212l-0.609-2.195h3.243l-0.142-4.928
	l5.211-0.595l-0.765,5.522H71.568z M67.894,17.737c0-0.387-0.097-0.677-0.29-0.871s-0.484-0.291-0.871-0.291
	c-0.387,0-0.677,0.097-0.871,0.291s-0.291,0.484-0.291,0.871c0,0.396,0.097,0.692,0.291,0.885s0.484,0.291,0.871,0.291
	c0.387,0,0.678-0.097,0.871-0.291S67.894,18.133,67.894,17.737z M67.384,21.22c0-0.312-0.073-0.542-0.219-0.693
	c-0.146-0.151-0.371-0.227-0.672-0.227c-0.312,0-0.543,0.075-0.694,0.227c-0.151,0.151-0.227,0.382-0.227,0.693
	c0,0.302,0.076,0.526,0.227,0.673c0.151,0.146,0.383,0.22,0.694,0.22c0.302,0,0.526-0.073,0.672-0.22S67.384,21.522,67.384,21.22z"
	/>
<path fill="#80CBEC" d="M87.668,30.595l-0.014,0.764c-1.463,0.664-2.91,1.158-4.34,1.485c-1.431,0.327-2.844,0.49-4.241,0.49
	c-0.774,0-1.482-0.076-2.124-0.227s-1.218-0.373-1.728-0.666c-0.604-0.349-1.06-0.798-1.366-1.345
	c-0.307-0.547-0.46-1.185-0.46-1.912c0-1.284,0.645-2.431,1.935-3.441c1.29-1.01,3.215-1.883,5.776-2.62
	c-0.208-0.604-0.56-1.062-1.055-1.374s-1.125-0.467-1.89-0.467c-0.821,0-1.567,0.167-2.237,0.502
	c-0.67,0.335-1.265,0.829-1.784,1.48l-0.758-0.729c0.793-1.216,1.775-2.132,2.945-2.749s2.535-0.926,4.092-0.926
	c1.265,0,2.376,0.352,3.334,1.055c0.958,0.703,1.768,1.757,2.429,3.163c0.52,1.104,0.904,2.281,1.154,3.531
	C87.586,27.861,87.697,29.189,87.668,30.595z M82.104,29.554c0-0.859-0.04-1.708-0.119-2.549s-0.202-1.671-0.37-2.492
	c-0.889,0.255-1.69,0.526-2.404,0.814c-0.714,0.288-1.336,0.593-1.865,0.914l1.451,5.848c0.754,0,1.404-0.042,1.95-0.127
	s0.984-0.222,1.314-0.411c0.019-0.34,0.031-0.675,0.036-1.005C82.101,30.214,82.104,29.884,82.104,29.554z M85.467,25.667
	c0-0.34-0.083-0.595-0.248-0.765s-0.418-0.255-0.758-0.255s-0.597,0.085-0.771,0.255s-0.262,0.425-0.262,0.765
	s0.087,0.593,0.262,0.758s0.432,0.248,0.771,0.248s0.593-0.083,0.758-0.248S85.467,26.006,85.467,25.667z M86.047,29.49
	c0-0.358-0.125-0.665-0.375-0.92s-0.56-0.383-0.928-0.383c-0.358,0-0.667,0.123-0.927,0.368c-0.26,0.246-0.389,0.557-0.389,0.935
	c0,0.368,0.129,0.675,0.389,0.921c0.26,0.245,0.569,0.368,0.927,0.368c0.368,0,0.678-0.125,0.928-0.375S86.047,29.849,86.047,29.49z
	"/>
<path fill="#80CBEC" d="M103.201,29.037c-0.896,1.197-1.883,2.092-2.963,2.686c-1.079,0.593-2.256,0.89-3.529,0.89
	c-1.975,0-3.584-0.606-4.826-1.82c-1.243-1.213-1.864-2.801-1.864-4.765c0-1.935,0.709-3.613,2.126-5.034
	c1.417-1.42,3.09-2.131,5.018-2.131c0.575,0,1.105,0.047,1.591,0.142s0.921,0.235,1.308,0.423c0.519,0.245,0.905,0.556,1.159,0.932
	c0.255,0.377,0.382,0.815,0.382,1.313c0,0.464-0.19,0.923-0.571,1.377c-0.382,0.454-0.958,0.904-1.729,1.349l-0.616-0.587
	c0.198-0.198,0.361-0.403,0.488-0.615c0.128-0.212,0.215-0.431,0.263-0.658l-1.686-0.424l0.198-0.607l1.529,0.212
	c-0.028-0.235-0.11-0.447-0.247-0.636s-0.327-0.354-0.571-0.495c-0.207-0.123-0.426-0.212-0.656-0.269
	c-0.231-0.057-0.474-0.085-0.728-0.085c-0.132,0-0.271,0.007-0.418,0.021c-0.146,0.015-0.296,0.031-0.447,0.05l0.326,2.209
	l-0.652,0.156l-0.581-1.926c-0.436,0.198-0.812,0.481-1.128,0.85c-0.317,0.368-0.57,0.812-0.759,1.331l1.957,0.581l-0.283,0.722
	l-1.93-0.481c-0.075,0.217-0.135,0.474-0.177,0.772c-0.043,0.297-0.064,0.639-0.064,1.026c0,0.179,0.01,0.352,0.029,0.517
	c0.019,0.166,0.047,0.324,0.084,0.475l1.613-0.552l0.438,0.835l-1.854,0.651c0.085,0.283,0.217,0.573,0.396,0.871
	c0.179,0.297,0.4,0.606,0.665,0.927l1.287-1.005l0.623,0.51l-1.118,1.076c0.312,0.246,0.663,0.427,1.055,0.545
	c0.392,0.118,0.837,0.177,1.337,0.177l0.127-1.657h0.736l0.142,1.628c0.339-0.028,0.672-0.097,0.997-0.206
	c0.325-0.108,0.653-0.257,0.983-0.446l-0.509-1.416l0.65-0.241l0.552,1.147c0.16-0.123,0.328-0.271,0.502-0.446
	c0.175-0.175,0.352-0.375,0.531-0.602L103.201,29.037z"/>
<path fill="#80CBEC" d="M114.799,19.996l-0.213,1.473l-2.832,0.212l-0.212,1.699l3.044,0.085l-0.58,2.011l-2.705-0.17l-1.062,7.802
	l-2.081,0.368l-0.27-8.425l-2.549-0.184l0.425-1.6l2.096,0.042l-0.071-1.331l-2.704,0.212l-0.608-2.195h3.242l-0.142-4.928
	l5.211-0.595l-0.765,5.522H114.799z M111.124,17.737c0-0.387-0.097-0.677-0.29-0.871s-0.483-0.291-0.871-0.291
	c-0.387,0-0.677,0.097-0.871,0.291c-0.193,0.193-0.29,0.484-0.29,0.871c0,0.396,0.097,0.692,0.29,0.885
	c0.194,0.193,0.484,0.291,0.871,0.291c0.388,0,0.678-0.097,0.871-0.291S111.124,18.133,111.124,17.737z M110.614,21.22
	c0-0.312-0.073-0.542-0.22-0.693c-0.146-0.151-0.37-0.227-0.672-0.227c-0.312,0-0.543,0.075-0.694,0.227
	c-0.15,0.151-0.227,0.382-0.227,0.693c0,0.302,0.076,0.526,0.227,0.673c0.151,0.146,0.383,0.22,0.694,0.22
	c0.302,0,0.526-0.073,0.672-0.22C110.541,21.747,110.614,21.522,110.614,21.22z"/>
<rect id="_x3C_スライス_x3E__1_" x="11" y="14" fill="none" width="104" height="21"/>
</svg>
