<?xml version="1.0" encoding="utf-8"?>
<!-- Generator: Adobe Illustrator 15.0.0, SVG Export Plug-In  -->
<!DOCTYPE svg PUBLIC "-//W3C//DTD SVG 1.1//EN" "http://www.w3.org/Graphics/SVG/1.1/DTD/svg11.dtd" [
	<!ENTITY ns_flows "http://ns.adobe.com/Flows/1.0/">
]>
<svg version="1.1"
	 xmlns="http://www.w3.org/2000/svg" xmlns:xlink="http://www.w3.org/1999/xlink" xmlns:a="http://ns.adobe.com/AdobeSVGViewerExtensions/3.0/"
	 x="0px" y="0px" width="76px" height="72px" viewBox="-1.435 -0.546 76 72" enable-background="new -1.435 -0.546 76 72"
	 xml:space="preserve">
<defs>
</defs>
<path fill="#FFFFFF" d="M74.565,11.454v40h-43c-11.05,0-20-8.95-20-20s8.95-20,20-20H74.565z"/>
<g>
	<g>
		<g>
			<path fill-rule="evenodd" clip-rule="evenodd" fill="#FEDCAC" d="M0.992,36.973L0.5,37.062
				c-0.906-5.042-0.58-10.271,0.983-15.168C3.036,17.005,5.826,12.52,9.49,8.962c-2.595,3.3-5.536,7.528-7.294,12.559
				C0.397,26.518-0.068,32.181,0.992,36.973z"/>
			<path fill-rule="evenodd" clip-rule="evenodd" fill="#FEC06A" d="M74.538,61.86h-3.024c0.166-0.628,1.178-1.021-0.756-1
				c-0.127-1.084,2.681-0.226,3.78-0.5V61.86z"/>
			<polygon fill-rule="evenodd" clip-rule="evenodd" fill="#FEC579" points="47.232,1.548 47.232,1.048 55.547,1.048 55.547,1.548 
				54.791,1.548 			"/>
			<path fill-rule="evenodd" clip-rule="evenodd" fill="#FECA76" d="M55.547,1.548v-0.5h9.826c-0.14,0.74-1.826,0.458-3.023,0.5
				H55.547z"/>
			<path fill-rule="evenodd" clip-rule="evenodd" fill="#FEBD7B" d="M66.979,60.86h-4.535v-0.5c1.781,0.012,2.226-0.861,4.535-0.5
				V60.86z"/>
			<path fill-rule="evenodd" clip-rule="evenodd" fill="#FEC06A" d="M62.443,59.86c-2.51-0.618-5.356,2.599-6.047,0
				c1.408-0.068,2.526-0.328,3.023-1h0.756C62.676,58.536,65.502,59.198,62.443,59.86z"/>
			<path fill-rule="evenodd" clip-rule="evenodd" fill="#FECA8A" d="M62.35,2.048c1.542,0.872,1.482-0.373,3.023,0.5v0.5h-9.07
				C56.639,1.603,62.014,3.492,62.35,2.048z"/>
			<path fill-rule="evenodd" clip-rule="evenodd" fill="#FECA8A" d="M38.918,3.048c1.058-0.829,7.256-0.829,8.314,0H38.918z"/>
			<path fill-rule="evenodd" clip-rule="evenodd" fill="#FEBC6D" d="M56.396,59.86h-3.023H50.35c0.009-0.66,1.325-0.457,1.512-1
				h4.535h3.023C58.923,59.532,57.804,59.792,56.396,59.86z"/>
			<path fill-rule="evenodd" clip-rule="evenodd" fill="#FEC06A" d="M4.798,35.476L4.304,35.55
				c-0.439-2.947-0.401-5.956,0.114-8.892l0.493,0.087C4.404,29.626,4.367,32.583,4.798,35.476z"/>
			<polygon fill-rule="evenodd" clip-rule="evenodd" fill="#D78A3D" points="74.538,56.36 74.538,56.86 73.782,56.86 65.467,56.86 
				65.467,56.36 			"/>
			<path fill-rule="evenodd" clip-rule="evenodd" fill="#E5B46E" d="M29.282,55.768l-0.043,0.498
				c-4.908-0.409-9.669-2.335-13.491-5.441l0.315-0.389C19.809,53.479,24.473,55.367,29.282,55.768z"/>
			<rect x="48.082" y="54.86" fill-rule="evenodd" clip-rule="evenodd" fill="#F2F9F0" width="8.314" height="0.5"/>
			<path fill-rule="evenodd" clip-rule="evenodd" fill="#FFFFFF" d="M16.626,13.307c3.583-2.933,8.046-4.759,12.657-5.163
				l0.044,0.498c-2.17,0.018-4.721,0.778-6.935,1.816C20.153,11.481,18.243,12.727,16.626,13.307z"/>
			<path fill-rule="evenodd" clip-rule="evenodd" fill="#FFFFFF" d="M65.373,8.548c-5.801-0.33-13.597,0.661-18.141-0.5h6.047
				h12.094V8.548z"/>
			<path fill-rule="evenodd" clip-rule="evenodd" fill="#FFFEFE" d="M26.827,53.393c1.3,0.267,2.624,0.422,3.955,0.459l4.451,0.009
				h9.07c-2.271,0.581-5.356,0.624-8.599,0.563L30.866,54.3c-1.453-0.063-2.85-0.236-4.141-0.418
				c-1.771-0.369-3.499-0.946-5.133-1.724c0.473-0.4,1.321-0.052,2.307,0.352C24.877,52.924,26.015,53.382,26.827,53.393z"/>
			<path fill-rule="evenodd" clip-rule="evenodd" fill="#FEFDFD" d="M13.223,45.386c-0.278-0.357-0.539-0.728-0.796-1.101
				c0.983-0.035,1.854,0.728,2.611,1.518c0.748,0.794,1.397,1.628,1.611,1.843c0.794,0.786,1.004,0.993,0.816,0.921
				c-0.184-0.074-0.744-0.453-1.379-0.954C14.797,46.635,13.32,45.048,13.223,45.386z"/>
			<path fill-rule="evenodd" clip-rule="evenodd" fill="#FEFEFD" d="M41.186,9.048c0.563-1.128,4.24-0.196,6.047-0.5v0.5v0.5h-6.047
				V9.048z"/>
			<path fill-rule="evenodd" clip-rule="evenodd" fill="#FEFDFD" d="M10.437,25.091c-0.259,1.494-0.569,2.192-0.789,2.155
				c-0.203-0.031-0.303-0.859,0.31-2.3c1.212-4.026,3.597-7.683,6.79-10.438l0.327,0.378c-1.803,1.566-3.354,3.411-4.559,5.464
				C11.635,21.84,10.938,23.437,10.437,25.091z"/>
			<path fill-rule="evenodd" clip-rule="evenodd" fill="#FEFDFD" d="M47.232,9.548v-0.5c3.042,0.32,8.038-0.65,9.826,0.5h-1.512
				H47.232z"/>
			<path fill-rule="evenodd" clip-rule="evenodd" fill="#FFFFFB" d="M35.139,10.548c0.772-1.156,3.475-1.035,6.047-1h6.047v1H35.139
				z"/>
			<path fill-rule="evenodd" clip-rule="evenodd" fill="#FFFFFE" d="M44.303,52.36c-3.153,0.417-7.624,0.625-12.094,0.625
				l-0.833-0.003c-0.236-0.007-0.473-0.005-0.708-0.021c-0.47-0.02-0.937-0.065-1.396-0.12c-0.918-0.116-1.807-0.306-2.641-0.547
				c-1.668-0.487-3.107-1.2-4.182-1.943c1.491,0.709,3.065,1.236,4.681,1.572c0.808,0.168,1.627,0.285,2.451,0.357
				c0.412,0.038,0.826,0.057,1.24,0.071l1.387,0.008H44.303z"/>
			<path fill-rule="evenodd" clip-rule="evenodd" fill="#FFFFFB" d="M18.265,47.715c-0.772,0.116-1.751-0.653-2.62-1.686
				c-0.882-1.028-1.625-2.3-2.325-3.115c-0.134-0.459-0.673-1.086-1.028-1.686c-0.356-0.598-0.528-1.142-0.01-1.311
				C13.618,42.937,15.691,45.635,18.265,47.715z"/>
			<path fill-rule="evenodd" clip-rule="evenodd" fill="#C8C7C5" d="M74.538,52.36H68.49h-9.07h-9.07h-6.047H32.209l-1.387-0.008
				c-0.414-0.015-0.828-0.034-1.24-0.071c-0.824-0.072-1.643-0.188-2.451-0.357c-1.616-0.336-3.19-0.863-4.681-1.572
				c-1.491-0.708-2.9-1.594-4.185-2.637c-2.574-2.08-4.647-4.778-5.982-7.797c-0.418-0.943-0.766-1.917-1.038-2.911
				c-0.164-0.597-0.303-1.2-0.412-1.81c-0.438-2.435-0.443-4.973-0.014-7.41c0.143-0.813,0.337-1.616,0.575-2.406
				c1.413-4.743,4.627-8.935,8.822-11.587c2.093-1.33,4.419-2.281,6.841-2.792c1.211-0.254,2.445-0.407,3.688-0.443
				c0.564-0.017,1.377-0.01,2.125-0.011h2.268h12.094h18.141h6.047h3.023c-0.084,0.09,0.109,0.983,0,1
				c-5.377,0.812-13.763,0-21.165,0H35.81l-4.471,0.001c-1.18,0.003-2.358,0.113-3.522,0.322c-2.325,0.425-4.59,1.27-6.648,2.511
				c-4.129,2.464-7.372,6.529-8.789,11.196c-1.444,4.657-1.103,9.929,1.001,14.336c2.069,4.445,5.869,8.058,10.343,9.912
				c2.233,0.936,4.623,1.447,7.03,1.523l8.977,0.012h34.807V52.36z"/>
			<path fill-rule="evenodd" clip-rule="evenodd" fill="#FEC279" d="M31.453,60.86c-0.759,0.221-1.568,0.404-1.788,0.95
				c-0.898-0.049-1.795-0.14-2.687-0.271c0.229-0.373,0.955-0.374,1.008-0.877c2.219,0.237,1.076-0.274,0.953-0.909
				C30.625,59.723,31.567,59.953,31.453,60.86z"/>
			<path fill-rule="evenodd" clip-rule="evenodd" fill="#FEC579" d="M32.209,61.86c-0.694,0.002-1.653,0.002-2.544-0.05
				c0.22-0.545,1.029-0.729,1.788-0.95c0.643,0.092,0.713-0.194,0.756-0.5c1.807-0.304,5.484,0.628,6.047-0.5h5.291
				C40.093,60.743,35.861,61.109,32.209,61.86z"/>
			<path fill-rule="evenodd" clip-rule="evenodd" fill="#FECA7C" d="M1.483,36.884c-0.758-4.218-0.625-8.564,0.4-12.732
				c1.02-4.165,2.952-8.099,5.596-11.464c2.649-3.363,5.991-6.161,9.788-8.154c3.786-2.001,8.017-3.174,12.285-3.428
				c-0.034,1.264-2.85,1.177-5.105,1.774c-0.25,0.757,3.481,0.523,1.161,1.273l-0.807,0.184c-0.177-0.525-1.069-0.37-2.072,0.004
				c-1.007,0.369-2.096,0.962-2.826,1.135c0.084-0.706,0.599-1.398,2.031-1.868c-3.488,0.634-6.383,2.213-8.98,4.319
				c-2.591,2.142-4.957,4.785-7.329,8.36C6.343,16.478,7.082,15.025,8,13.65c0.899-1.384,1.984-2.666,2.631-2.292
				c-2.217,2.487-4.36,5.451-5.782,8.5c-1.447,3.029-2.161,6.081-2.155,8.235c-0.327,2.836-0.242,5.71,0.265,8.525L1.483,36.884z"/>
			<path fill-rule="evenodd" clip-rule="evenodd" fill="#FECA76" d="M38.162,1.048h9.07v0.5C45.512,2.49,38.969,2.369,38.162,1.048z
				"/>
			<path fill-rule="evenodd" clip-rule="evenodd" fill="#FEC071" d="M48.082,61.86c0.465-0.444,0.914-0.894,0-1
				c0.103-1.432,5.188,0.433,5.291-1h3.023c0.69,2.599,3.537-0.618,6.047,0v0.5v0.5c-2.172-0.104-3.84,0.127-4.535,1h-3.779h-1.512
				H48.082z"/>
			<path fill-rule="evenodd" clip-rule="evenodd" fill="#FEC075" d="M53.373,59.86c-0.103,1.433-5.188-0.432-5.291,1
				c0.914,0.106,0.465,0.556,0,1h-3.779c0.545-1.639,3.096-1.952,6.047-2H53.373z"/>
			<path fill-rule="evenodd" clip-rule="evenodd" fill="#FECB81" d="M47.232,1.548h7.559c1.048,1.14,5.261,0.186,7.559,0.5
				c-0.335,1.444-5.711-0.445-6.047,1h-1.512c-1.25-0.681-4.41,0.407-7.559,0c-1.059-0.829-7.256-0.829-8.314,0h-4.535
				c-1.526,0.016-2.955-0.042-4.709,0.054c-1.269,0.357-0.015,0.506,0.856,0.461c0.074,0.409-1.166,0.643-2.399,0.797
				c-1.235,0.141-2.498,0.206-2.521-0.206c2.32-0.75-1.412-0.517-1.161-1.273c2.256-0.597,5.071-0.51,5.105-1.774
				c0.412-0.028,0.824-0.04,1.236-0.05l1.138-0.007h2.079h4.157C38.969,2.369,45.512,2.49,47.232,1.548z"/>
			<path fill-rule="evenodd" clip-rule="evenodd" fill="#FEBC72" d="M68.49,60.86h-1.512v-1c-2.31-0.361-2.754,0.512-4.535,0.5v-0.5
				c3.059-0.663,0.232-1.324-2.268-1v-0.5h4.535C66.006,59.171,69.047,58.826,68.49,60.86z"/>
			<path fill-rule="evenodd" clip-rule="evenodd" fill="#FEC279" d="M18.477,56.755c-0.999-0.513-1.967-1.085-2.9-1.709
				c-2.095-1.41-4.001-3.098-5.655-5.005l-0.541-0.645c-0.532-0.652-1.036-1.327-1.508-2.024c0.679-0.239-0.037-1.104-0.682-2.034
				C6.543,44.408,5.97,43.419,6.68,43.29c0.376,0.472,0.727,1.467,1.149,2.251c0.418,0.785,0.877,1.351,1.286,0.988
				c0.301,0.438,0.608,0.873,0.934,1.292c-0.253,0.948,0.681,2.34,2.058,3.494c1.367,1.17,3.143,2.044,4.307,2.485
				c0.661,0.446,1.344,0.86,2.043,1.244c0.699,0.384,1.415,0.737,2.146,1.058c-0.283,0.467,0.355,0.82,1.205,1.087
				c0.848,0.273,1.89,0.439,2.423,0.72c-0.255,0.356-0.927,0.255-1.071,0.733c-1.076-0.323-2.131-0.716-3.16-1.167
				C19.484,57.253,18.979,57.007,18.477,56.755z"/>
			<path fill-rule="evenodd" clip-rule="evenodd" fill="#FEC472" d="M11.584,11.111c2.007-1.957,4.307-3.618,6.801-4.907
				c0.5-0.256,1.005-0.501,1.519-0.728c0.73-0.173,1.819-0.766,2.826-1.135c1.003-0.375,1.895-0.53,2.072-0.004
				c-2.282,0.621-4.498,1.551-6.405,2.727c-1.909,1.171-3.5,2.587-4.594,4.042c-1.003,0.872-1.943,1.812-2.811,2.82
				C9.934,13.344,12.151,11.824,11.584,11.111z"/>
			<path fill-rule="evenodd" clip-rule="evenodd" fill="#FEC279" d="M59.326,5.048c-1.369-1.095-5.918-0.085-7.559-1
				c-0.541-1.358,3.564,0.357,3.023-1h1.512h9.07c-0.416,1.108,1.444,0.711,1.512,1.5c-0.878-0.082-1.345,0.11-1.512,0.5H59.326z"/>
			<path fill-rule="evenodd" clip-rule="evenodd" fill="#FEC57D" d="M69.152,3.048c0.548,1.137,4.31,0.148,3.78,2h-0.756
				c-0.015-1.454-4.272-1.183-5.292-0.5c-0.068-0.789-1.927-0.392-1.512-1.5v-0.5h0.756C66.363,3.226,68.021,2.962,69.152,3.048z"/>
			<path fill-rule="evenodd" clip-rule="evenodd" fill="#FEC279" d="M59.42,58.86h-3.023c-0.563-1.127-4.239-0.195-6.047-0.5
				c0.563-1.127,4.24-0.195,6.047-0.5c-0.127,1.085,2.681,0.227,3.779,0.5v0.5H59.42z"/>
			<path fill-rule="evenodd" clip-rule="evenodd" fill="#FEFEFD" d="M74.538,54.86h-3.78c-0.021-0.486-0.925-0.388-1.512-0.5
				c1.965-1.314-1.221-0.393-0.756-2h6.047V54.86z"/>
			<path fill-rule="evenodd" clip-rule="evenodd" fill="#FEFEFD" d="M56.396,54.36c-3.792,0.325-9.557-0.655-12.094,0.5h-9.07
				l-4.478-0.009c-1.389-0.039-2.772-0.2-4.131-0.479l0.102-0.49c1.291,0.183,2.688,0.356,4.141,0.418l4.838,0.123
				c3.242,0.062,6.327,0.019,8.599-0.563h-9.07l-4.451-0.009c-1.331-0.037-2.655-0.192-3.955-0.459l0.102-0.49
				c0.884,0.169,1.792,0.293,2.711,0.371c0.924,0.082,1.804,0.081,2.95,0.088c2.165,0.015,4.33,0.031,6.431,0.004
				c4.203-0.053,8.151-0.275,11.33-1.006h9.07c-0.123,0.582,0.167,0.89,0.756,1c-1.294,0.661-6.363-0.435-9.826,0
				C50.686,54.805,56.061,52.917,56.396,54.36z"/>
			<path fill-rule="evenodd" clip-rule="evenodd" fill="#FEFDFD" d="M26.725,53.882l-0.102,0.49l-0.677-0.152
				c-1.799-0.427-3.544-1.075-5.192-1.916c0.166-0.571-0.907-0.951-1.541-1.454c0.532-0.451,1.644,0.515,2.592,0.856
				c0.151-0.571-0.887-0.898-1.504-1.365c0.829-0.154,1.649,0.486,2.731,1.178c1.066,0.692,2.429,1.418,3.895,1.383l-0.102,0.49
				c-0.812-0.01-1.95-0.468-2.928-0.883c-0.986-0.403-1.834-0.752-2.307-0.352C23.227,52.936,24.954,53.513,26.725,53.882z"/>
			<path fill-rule="evenodd" clip-rule="evenodd" fill="#FFFEFE" d="M20.755,52.304c-1.44-0.738-2.803-1.627-4.063-2.646
				c0.15-0.6-0.544-1.233-1.356-1.962c-0.814-0.722-1.744-1.566-2.114-2.31c0.098-0.338,1.575,1.249,2.864,2.228
				c0.635,0.501,1.195,0.88,1.379,0.954c0.188,0.071-0.022-0.135-0.816-0.921c-0.214-0.215-0.864-1.049-1.611-1.843
				c-0.757-0.79-1.628-1.552-2.611-1.518l-0.414,0.28c-0.908-1.34-1.675-2.775-2.287-4.273c0.582-0.118,0.76-0.474,0.684-0.996
				c1.011-0.35,1.115,0.486,1.326,1.476c0.199,0.984,0.546,2.143,1.585,2.141c0.7,0.815,1.442,2.087,2.325,3.115
				c0.868,1.033,1.847,1.802,2.62,1.686c1.285,1.042,2.694,1.928,4.185,2.637c1.075,0.743,2.513,1.456,4.182,1.943
				c0.834,0.241,1.722,0.431,2.641,0.547c0.459,0.055,0.926,0.101,1.396,0.12c0.235,0.016,0.472,0.014,0.708,0.021l0.833,0.003
				c4.47,0,8.94-0.208,12.094-0.625h6.047c-3.178,0.731-7.126,0.953-11.33,1.006c-2.101,0.026-4.267,0.011-6.431-0.004
				c-1.146-0.007-2.026-0.006-2.95-0.088c-0.919-0.078-1.827-0.202-2.711-0.371c-1.465,0.035-2.829-0.691-3.895-1.383
				c-1.082-0.692-1.903-1.333-2.731-1.178c0.618,0.466,1.655,0.794,1.504,1.365c-0.948-0.342-2.06-1.307-2.592-0.856
				C19.848,51.353,20.92,51.733,20.755,52.304z"/>
			<path fill-rule="evenodd" clip-rule="evenodd" fill="#FEFDFD" d="M9.726,40.292c-0.523-1.284-0.936-2.613-1.22-3.971l-0.134-0.68
				l1.477-0.267c0.502,0.438,0.665,1.666,1.396,1.632c0.272,0.994,0.62,1.968,1.038,2.911c-0.518,0.168-0.346,0.712,0.01,1.311
				c0.355,0.599,0.894,1.227,1.028,1.686c-1.039,0.002-1.386-1.156-1.585-2.141c-0.21-0.99-0.314-1.826-1.326-1.476
				C10.486,39.818,10.308,40.174,9.726,40.292z"/>
			<path fill-rule="evenodd" clip-rule="evenodd" fill="#FEFEFD" d="M8.372,35.641c-0.997-5.468,0.011-11.28,2.853-16.052
				c0.538,0.501-0.194,1.533-0.806,2.668c-0.625,1.124-1.113,2.344-0.46,2.689c-0.613,1.441-0.513,2.269-0.31,2.3
				c0.219,0.037,0.529-0.662,0.789-2.155c0.715-0.018,0.405,0.662,0.147,1.368c-0.262,0.707-0.473,1.436,0.234,1.328
				c-0.429,2.437-0.425,4.976,0.014,7.41c-0.68-0.517-0.921-1.848-0.889-3.306c0.022-1.467,0.331-3.016,0.382-4.191
				c-0.679,0.535-0.923,1.897-0.883,3.389c0.026,1.5,0.346,3.083,0.406,4.285L8.372,35.641z"/>
			<path fill-rule="evenodd" clip-rule="evenodd" fill="#FFFEFE" d="M35.139,8.048h12.094c4.543,1.161,12.34,0.17,18.141,0.5v1
				h-8.314c-1.789-1.15-6.784-0.18-9.826-0.5v-0.5c-1.807,0.304-5.484-0.628-6.047,0.5h-6.047V8.048z"/>
			<path fill-rule="evenodd" clip-rule="evenodd" fill="#FFFEFE" d="M68.49,52.36c-0.465,1.607,2.721,0.686,0.756,2
				c0.587,0.112,1.491,0.014,1.512,0.5H59.42c-0.234-0.678-1.893-0.414-3.023-0.5c-0.336-1.444-5.711,0.445-6.047-1
				c3.463-0.435,8.532,0.661,9.826,0c-0.589-0.11-0.878-0.418-0.756-1H68.49z"/>
			<path fill-rule="evenodd" clip-rule="evenodd" fill="#FFFEFE" d="M10.819,27.787c-0.707,0.108-0.497-0.621-0.234-1.328
				c0.258-0.706,0.568-1.386-0.147-1.368c0.501-1.654,1.198-3.251,2.08-4.74c0.543,0.493-0.146,1.452-0.724,2.509
				c-0.591,1.046-1.054,2.185-0.398,2.521C11.156,26.171,10.962,26.974,10.819,27.787z"/>
			<path fill-rule="evenodd" clip-rule="evenodd" fill="#FFFEFE" d="M47.232,9.548h8.314c1.789,1.149,6.784,0.179,9.826,0.5v0.5
				H47.232V9.548z"/>
			<path fill-rule="evenodd" clip-rule="evenodd" fill="#FFD8A8" d="M74.538,61.86c0.123,0.582-0.167,0.89-0.756,1H34.854h-2.433
				l-1.262-0.002c-0.498-0.003-0.996-0.02-1.493-0.046c-1.99-0.106-3.977-0.407-5.917-0.894c-3.882-0.971-7.571-2.701-10.798-5.05
				C6.475,52.194,1.895,44.958,0.5,37.062l0.492-0.089c0.162,0.902,0.367,1.797,0.61,2.682c1.047,3.516,2.705,7.004,4.982,10.125
				c2.268,3.123,5.151,5.873,8.43,7.954c3.273,2.087,6.937,3.495,10.573,4.102c1.816,0.309,3.623,0.425,5.362,0.363
				c0.466-0.014,0.792-0.039,1.154-0.063l1.061-0.08l2.069-0.194h3.023c3.043,0.832,11.318,0.832,14.361,0h1.512
				c2.295,0.831,9.799,0.831,12.094,0h0.756h4.535H74.538z"/>
			<path fill-rule="evenodd" clip-rule="evenodd" fill="#FEDCAC" d="M12.3,6.53c4.909-3.787,10.997-6.068,17.192-6.423
				c-1.999,0.514-5.52,1.225-8.861,2.507C17.269,3.839,14.147,5.605,12.3,6.53z"/>
			<path fill-rule="evenodd" clip-rule="evenodd" fill="#FDDEB1" d="M66.223,61.86c-2.294,0.831-9.799,0.831-12.094,0h3.779H66.223z
				"/>
			<path fill-rule="evenodd" clip-rule="evenodd" fill="#FDDEB1" d="M52.617,61.86c-3.043,0.832-11.318,0.832-14.361,0h6.047h3.779
				H52.617z"/>
			<path fill-rule="evenodd" clip-rule="evenodd" fill="#FDDEB1" d="M35.232,61.86l-2.069,0.194l-1.061,0.08
				c-0.361,0.024-0.688,0.05-1.154,0.063c-1.739,0.062-3.545-0.054-5.362-0.363c-3.637-0.606-7.3-2.014-10.573-4.102
				c-3.279-2.081-6.162-4.831-8.43-7.954c-2.278-3.12-3.935-6.608-4.982-10.125l0.482-0.132c0.239,0.87,0.517,1.729,0.833,2.575
				c2.72,7.346,8.38,13.499,15.458,16.836c2.716,1.291,5.629,2.172,8.603,2.605c0.892,0.131,1.789,0.223,2.687,0.271
				c0.891,0.053,1.85,0.052,2.544,0.05H35.232z"/>
			<path fill-rule="evenodd" clip-rule="evenodd" fill="#FDC27D" d="M26.978,61.539c-2.974-0.433-5.887-1.315-8.603-2.605
				c0.782-0.783,0.022-1.456,0.102-2.178c0.501,0.252,1.007,0.498,1.522,0.721c-0.483,0.916,0.864,1.681,2.679,2.168
				c1.815,0.505,4.025,0.645,5.308,1.017C27.933,61.165,27.207,61.166,26.978,61.539z"/>
			<path fill-rule="evenodd" clip-rule="evenodd" fill="#FECA76" d="M2.084,39.522c-0.239-0.871-0.441-1.75-0.601-2.639l1.476-0.266
				c0.205,1.125,0.475,2.237,0.81,3.331c-0.599-0.463-0.929-0.59-1.003-0.278c-0.069,0.308,0.1,1.062,0.619,2.251l-0.468,0.175
				C2.601,41.252,2.323,40.392,2.084,39.522z"/>
			<path fill-rule="evenodd" clip-rule="evenodd" fill="#FEC071" d="M68.49,60.86h2.268c1.934-0.021,0.922,0.372,0.756,1h-4.535v-1
				H68.49z"/>
			<path fill-rule="evenodd" clip-rule="evenodd" fill="#FEC279" d="M57.908,61.86c0.695-0.873,2.363-1.104,4.535-1h4.535v1h-0.756
				H57.908z"/>
			<path fill-rule="evenodd" clip-rule="evenodd" fill="#FEC475" d="M50.35,59.86c-2.951,0.048-5.501,0.361-6.047,2h-6.047h-3.023
				h-3.023c3.652-0.751,7.884-1.117,11.338-2c2.205,0.14,2.599-0.12,1.512-1h6.803C51.674,59.404,50.358,59.2,50.35,59.86z"/>
			<path fill-rule="evenodd" clip-rule="evenodd" fill="#FDC27D" d="M15.577,55.045c0.162,0.737,1.381,1.477,0.664,2.189
				c-2.065-0.991-3.341-2.165-4.304-3.308c-0.958-1.159-1.612-2.31-2.394-3.559l0.378-0.328
				C11.575,51.948,13.481,53.635,15.577,55.045z"/>
			<path fill-rule="evenodd" clip-rule="evenodd" fill="#FEC57D" d="M9.921,50.04l-0.378,0.328c0.782,1.249,1.436,2.4,2.394,3.559
				c0.962,1.143,2.238,2.317,4.304,3.308c0.717-0.712-0.502-1.452-0.664-2.189c0.933,0.625,1.901,1.196,2.9,1.709
				c-0.08,0.723,0.68,1.396-0.102,2.178c-7.079-3.337-12.739-9.49-15.458-16.836l0.468-0.175c0.311,0.831,0.656,1.649,1.041,2.449
				c0.832-0.13,0.425-1.114,1-1.414c0.227,0.514,0.471,1.02,0.728,1.52c-0.507,0.169,0.016,1.586,0.778,2.784
				c0.751,1.204,1.695,2.159,1.53,1.778c0.035,0.083-0.831,0.563-0.793,0.609c1.105,1.335,1.936,0.959,1.711-0.253L9.921,50.04z"/>
			<path fill-rule="evenodd" clip-rule="evenodd" fill="#FECB81" d="M10.631,11.358C9.984,10.985,8.899,12.267,8,13.65
				c-0.918,1.375-1.657,2.827-2.375,2.638c2.372-3.575,4.738-6.218,7.329-8.36c2.598-2.106,5.492-3.686,8.98-4.319
				c-1.432,0.47-1.946,1.162-2.031,1.868c-0.514,0.227-1.02,0.471-1.519,0.728c-1.14-0.168-2.607,0.426-3.882,1.412
				c-1.279,0.984-2.345,2.339-2.918,3.495l-0.593,0.595L10.631,11.358z"/>
			<path fill-rule="evenodd" clip-rule="evenodd" fill="#FAC879" d="M55.547,1.548h6.803v0.5c-2.298-0.314-6.511,0.64-7.559-0.5
				H55.547z"/>
			<path fill-rule="evenodd" clip-rule="evenodd" fill="#FECA7C" d="M69.908,1.048c-0.139,0.425,0.295,0.471,0.756,0.5
				c-0.974,1.557-4.242-1.258-4.535,1h-0.756c-1.541-0.873-1.482,0.372-3.023-0.5v-0.5c1.197-0.042,2.883,0.24,3.023-0.5H69.908z"/>
			<path fill-rule="evenodd" clip-rule="evenodd" fill="#FECB81" d="M66.129,2.548c0.293-2.258,3.561,0.557,4.535-1
				c1.187,0.214,0.646,1.572,3.024,1c-0.094,1.104-3.207,0.212-4.536,0.5C68.021,2.962,66.363,3.226,66.129,2.548z"/>
			<path fill-rule="evenodd" clip-rule="evenodd" fill="#FEBC6D" d="M70.758,60.86H68.49c0.557-2.035-2.484-1.689-3.779-2.5h0.756
				c2.997,0.185,7.244-0.458,9.071,0.5v1.5C73.439,60.634,70.631,59.776,70.758,60.86z"/>
			<path fill-rule="evenodd" clip-rule="evenodd" fill="#FDC27D" d="M9.381,49.395c0.225,1.212-0.606,1.588-1.711,0.253
				c-0.038-0.046,0.828-0.525,0.793-0.609c0.165,0.381-0.779-0.574-1.53-1.778c-0.763-1.198-1.286-2.615-0.778-2.784
				c0.517,0.997,1.09,1.964,1.719,2.894C8.345,48.068,8.849,48.743,9.381,49.395z"/>
			<path fill-rule="evenodd" clip-rule="evenodd" fill="#FEC075" d="M28.217,58.675c0.567,0.357,1.554,0.588,2.599,0.682
				c1.057,0.09,1.984,0.088,2.736,0.112c1.459,0.042,1.841,0.13-1.342,0.892c-0.043,0.306-0.113,0.592-0.756,0.5
				c0.114-0.908-0.829-1.138-2.514-1.107c-1.957-0.168-3.897-0.54-5.78-1.11c0.145-0.479,0.816-0.377,1.071-0.733
				C25.538,58.266,26.872,58.521,28.217,58.675z"/>
			<path fill-rule="evenodd" clip-rule="evenodd" fill="#FEC57D" d="M20,57.476c1.029,0.451,2.083,0.844,3.16,1.167
				c1.882,0.57,3.823,0.942,5.78,1.11c0.124,0.634,1.266,1.146-0.953,0.909c-1.283-0.373-3.492-0.512-5.308-1.017
				C20.864,59.157,19.516,58.392,20,57.476z"/>
			<path fill-rule="evenodd" clip-rule="evenodd" fill="#FECA7C" d="M5.426,42.957c-0.575,0.3-0.169,1.284-1,1.414
				c-0.385-0.799-0.73-1.618-1.041-2.449c-0.52-1.189-0.688-1.943-0.619-2.251c0.075-0.313,0.405-0.185,1.003,0.278
				C4.485,40.006,4.814,41.838,5.426,42.957z"/>
			<path fill-rule="evenodd" clip-rule="evenodd" fill="#FEC579" d="M2.694,28.093c-0.006-2.154,0.708-5.206,2.155-8.235
				c1.421-3.049,3.565-6.012,5.782-8.5l0.359,0.348c-2.933,3.019-5.18,6.703-6.52,10.699c-0.425,0.781-0.656,2.167-0.843,3.358
				C3.44,26.958,3.267,27.97,2.694,28.093z"/>
			<path fill-rule="evenodd" clip-rule="evenodd" fill="#FECA7C" d="M11.584,11.111c0.573-1.156,1.64-2.511,2.918-3.495
				c1.275-0.986,2.742-1.58,3.882-1.412C15.891,7.493,13.591,9.154,11.584,11.111z"/>
			<path fill-rule="evenodd" clip-rule="evenodd" fill="#FEBC6D" d="M43.547,59.86h-5.291v-1h6.803
				C46.146,59.74,45.752,60,43.547,59.86z"/>
			<path fill-rule="evenodd" clip-rule="evenodd" fill="#FEC071" d="M6.341,42.552c-0.661-1.485-1.185-3.031-1.567-4.611
				c-0.525,0.175-0.374,1.052-0.006,2.038c0.363,0.989,0.949,2.057,1.116,2.776l-0.457,0.203c-0.612-1.119-0.941-2.951-1.657-3.008
				c-0.334-1.094-0.604-2.207-0.81-3.331c0.404-1.955,1.369,0.814,1.344-1.068l0.495-0.074c0.001,1.098,0.49,2.629,0.966,3.959
				C6.24,40.77,6.677,41.927,6.341,42.552z"/>
			<path fill-rule="evenodd" clip-rule="evenodd" fill="#FEC579" d="M69.152,3.048c1.329-0.288,4.441,0.604,4.536-0.5
				c-2.378,0.572-1.837-0.786-3.024-1c-0.461-0.029-0.895-0.075-0.756-0.5h4.536v4h-1.512C73.462,3.196,69.7,4.185,69.152,3.048z"/>
			<path fill-rule="evenodd" clip-rule="evenodd" fill="#FBC079" d="M38.256,58.86v1c-0.563,1.128-4.24,0.196-6.047,0.5
				c3.183-0.762,2.801-0.85,1.342-0.892c-0.752-0.024-1.679-0.022-2.736-0.112c-1.045-0.094-2.032-0.325-2.599-0.682
				c1.272,0.13,3.097,0.431,3.236-0.314h6.803V58.86z"/>
			<path fill-rule="evenodd" clip-rule="evenodd" fill="#FEC075" d="M5.426,42.957l0.457-0.203
				c-0.167-0.719-0.752-1.787-1.116-2.776c-0.368-0.985-0.52-1.862,0.006-2.038c0.382,1.58,0.906,3.126,1.567,4.611L6.68,43.29
				c-0.71,0.129-0.137,1.118,0.511,2.047c0.645,0.93,1.361,1.794,0.682,2.034c-0.629-0.93-1.202-1.897-1.719-2.894
				C5.897,43.977,5.653,43.471,5.426,42.957z"/>
			<path fill-rule="evenodd" clip-rule="evenodd" fill="#FEC075" d="M4.471,22.405c1.087-0.933,1.117-0.364,0.846,0.645
				c-0.277,1.014-0.766,2.559-0.899,3.607c-0.515,2.936-0.553,5.945-0.114,8.892c0.024,1.882-0.94-0.887-1.344,1.068
				c-0.507-2.815-0.592-5.688-0.265-8.525c0.573-0.123,0.746-1.135,0.934-2.329C3.814,24.572,4.046,23.186,4.471,22.405z"/>
			<path fill-rule="evenodd" clip-rule="evenodd" fill="#FEC071" d="M4.417,26.658c0.133-1.048,0.622-2.593,0.899-3.607
				c0.271-1.009,0.241-1.578-0.846-0.645c1.34-3.997,3.587-7.681,6.52-10.699l0.593-0.595c0.567,0.712-1.65,2.232-0.592,2.815
				c-1.388,1.611-2.582,3.39-3.553,5.282c-1.212,2.367-2.067,4.917-2.529,7.536L4.417,26.658z"/>
			<path fill-rule="evenodd" clip-rule="evenodd" fill="#FEC579" d="M25.608,4.153c0.024,0.412,1.287,0.347,2.521,0.206
				c1.233-0.154,2.474-0.388,2.399-0.797c-0.871,0.045-2.125-0.104-0.856-0.461c1.754-0.095,3.184-0.038,4.709-0.054h4.535h8.314
				c3.148,0.407,6.309-0.681,7.559,0c0.541,1.357-3.564-0.358-3.023,1c1.64,0.915,6.19-0.095,7.559,1h-9.07H38.918
				c-1.144-0.577-3.092-0.622-5.198-0.562c-1.067,0.036-2.11,0.07-3.242,0.131l-3.093,0.23c-5,0.743-9.769,2.947-13.582,6.259
				c1.094-1.455,2.685-2.871,4.594-4.042c1.907-1.176,4.123-2.105,6.405-2.727L25.608,4.153z"/>
			<path fill-rule="evenodd" clip-rule="evenodd" fill="#FEBD7B" d="M56.396,58.86h-4.535h-6.803h-6.803v-0.5h9.07h3.023
				C52.157,58.665,55.834,57.733,56.396,58.86z"/>
			<path fill-rule="evenodd" clip-rule="evenodd" fill="#FBC070" d="M28.217,58.675c-1.345-0.154-2.679-0.409-3.986-0.765
				c-0.534-0.281-1.575-0.447-2.423-0.72c-0.85-0.267-1.488-0.62-1.205-1.087c3.407,1.5,7.138,2.27,10.851,2.258
				C31.314,59.105,29.489,58.805,28.217,58.675z"/>
			<path fill-rule="evenodd" clip-rule="evenodd" fill="#FEC071" d="M16.414,53.801c-1.164-0.441-2.94-1.315-4.307-2.485
				c-1.376-1.153-2.311-2.545-2.058-3.494C11.826,50.144,13.988,52.167,16.414,53.801z"/>
			<path fill-rule="evenodd" clip-rule="evenodd" fill="#FECB81" d="M66.885,4.548c1.02-0.683,5.277-0.954,5.292,0.5h-6.803
				C65.54,4.658,66.006,4.466,66.885,4.548z"/>
			<path fill-rule="evenodd" clip-rule="evenodd" fill="#FEC579" d="M74.538,58.86c-1.827-0.958-6.074-0.315-9.071-0.5v-0.5h9.071
				V58.86z"/>
			<path fill-rule="evenodd" clip-rule="evenodd" fill="#FBC670" d="M60.176,58.36c-1.098-0.273-3.907,0.585-3.779-0.5h9.07v0.5
				h-0.756H60.176z"/>
			<path fill-rule="evenodd" clip-rule="evenodd" fill="#FECB81" d="M31.453,58.36c-3.713,0.012-7.444-0.758-10.851-2.258
				c-0.73-0.321-1.446-0.674-2.146-1.058l0.241-0.438c2.918,1.44,6.49,2.797,10.114,3.19c0.899,0.104,1.801,0.151,2.671,0.146
				c0.844-0.004,1.667-0.022,2.46-0.06c1.586-0.076,3.051-0.231,4.313-0.522h8.314c0.144,0.405,0.758,0.499,0.756,1h-9.07H31.453z"
				/>
			<path fill-rule="evenodd" clip-rule="evenodd" fill="#FECA7C" d="M18.457,55.045c-0.699-0.384-1.382-0.798-2.043-1.244
				c-2.425-1.633-4.587-3.657-6.364-5.979c-0.326-0.42-0.633-0.854-0.934-1.292c-0.673-0.911-1.264-1.885-0.814-2.281
				c1.645,2.967,3.867,5.61,6.504,7.742c1.216,0.985,2.519,1.864,3.892,2.616L18.457,55.045z"/>
			<path fill-rule="evenodd" clip-rule="evenodd" fill="#FECB81" d="M10.992,13.927c0.868-1.008,1.808-1.948,2.811-2.82l0.327,0.378
				c-2.166,1.88-4.037,4.106-5.49,6.582c-0.268,0.448-0.515,0.908-0.756,1.371l-0.445-0.228C8.41,17.316,9.604,15.538,10.992,13.927
				z"/>
			<path fill-rule="evenodd" clip-rule="evenodd" fill="#FED083" d="M13.803,11.106c3.813-3.312,8.582-5.516,13.582-6.259
				l0.074,0.494c-4.648,0.691-9.094,2.667-12.729,5.64l-0.6,0.502L13.803,11.106z"/>
			<path fill-rule="evenodd" clip-rule="evenodd" fill="#FECA7C" d="M27.385,4.848l3.093-0.23c1.132-0.061,2.174-0.095,3.242-0.131
				c2.106-0.06,4.055-0.016,5.198,0.562h-5.669c-1.858-0.012-3.862-0.018-5.79,0.294L27.385,4.848z"/>
			<path fill-rule="evenodd" clip-rule="evenodd" fill="#FECB81" d="M74.538,57.86h-9.071h-9.07v-0.5h8.314
				c2.793-0.318,7.53,0.648,9.071-0.5h0.756V57.86z"/>
			<path fill-rule="evenodd" clip-rule="evenodd" fill="#F9CD7D" d="M56.396,57.86c-1.807,0.305-5.483-0.627-6.047,0.5h-3.023
				c0.002-0.501-0.612-0.595-0.756-1h1.512h8.314V57.86z"/>
			<path fill-rule="evenodd" clip-rule="evenodd" fill="#FECC93" d="M38.256,57.36c-1.262,0.291-2.727,0.447-4.313,0.522
				c-0.793,0.038-1.617,0.056-2.46,0.06c-0.87,0.004-1.771-0.043-2.671-0.146c-3.625-0.393-7.196-1.75-10.114-3.19
				c-1.373-0.752-2.676-1.631-3.892-2.616l0.314-0.389c4.368,3.561,9.934,5.612,15.566,5.749L38.256,57.36z"/>
			<path fill-rule="evenodd" clip-rule="evenodd" fill="#FDD6A0" d="M14.805,51.99c-2.637-2.132-4.859-4.775-6.504-7.742
				c-4.24-7.527-4.402-17.146-0.417-24.812c0.242-0.462,0.489-0.922,0.756-1.371l0.431,0.254c-2.75,4.626-3.957,10.131-3.465,15.482
				c0.36,4.081,1.714,8.069,3.917,11.524c1.511,2.375,3.406,4.507,5.597,6.275L14.805,51.99z"/>
			<path fill-rule="evenodd" clip-rule="evenodd" fill="#FEDBA2" d="M8.64,18.066c1.454-2.476,3.325-4.702,5.49-6.582l0.6-0.502
				l0.316,0.388c-2.378,1.942-4.419,4.3-5.976,6.95L8.64,18.066z"/>
			<path fill-rule="evenodd" clip-rule="evenodd" fill="#FEDD9A" d="M14.73,10.982c3.635-2.974,8.081-4.949,12.729-5.64
				c1.928-0.312,3.931-0.306,5.79-0.294h5.669h11.338v0.5H33.627c-1.38,0.009-2.773-0.035-4.186,0.074
				c-1.403,0.109-2.799,0.324-4.167,0.659c-2.738,0.662-5.362,1.783-7.738,3.292c-0.866,0.547-1.694,1.151-2.489,1.796L14.73,10.982
				z"/>
			<polygon fill-rule="evenodd" clip-rule="evenodd" fill="#FDDA94" points="59.326,5.048 65.373,5.048 72.176,5.048 72.932,5.048 
				74.444,5.048 74.444,5.548 50.256,5.548 50.256,5.048 			"/>
			<path fill-rule="evenodd" clip-rule="evenodd" fill="#F4B36E" d="M73.782,56.86c-1.541,1.148-6.277,0.182-9.071,0.5v-0.5h0.756
				H73.782z"/>
			<polygon fill-rule="evenodd" clip-rule="evenodd" fill="#FBB17A" points="56.396,57.36 48.082,57.36 48.082,56.86 51.861,56.86 
				64.711,56.86 64.711,57.36 			"/>
			<polygon fill-rule="evenodd" clip-rule="evenodd" fill="#F2AE6B" points="46.57,57.36 38.256,57.36 38.256,56.86 48.082,56.86 
				48.082,57.36 			"/>
			<polygon fill-rule="evenodd" clip-rule="evenodd" fill="#FBB17A" points="38.256,57.36 30.686,57.35 30.7,56.851 38.256,56.86 
							"/>
			<path fill-rule="evenodd" clip-rule="evenodd" fill="#EEB67A" d="M15.12,51.602c-2.191-1.768-4.086-3.9-5.597-6.275l0.422-0.268
				c2.152,3.392,5.118,6.263,8.581,8.299c3.459,2.042,7.411,3.242,11.422,3.46l0.752,0.033l-0.014,0.5
				C25.053,57.214,19.488,55.163,15.12,51.602z"/>
			<path fill-rule="evenodd" clip-rule="evenodd" fill="#F2BB7C" d="M9.522,45.326c-2.202-3.455-3.557-7.443-3.917-11.524
				l0.498-0.044c0.311,3.5,1.361,6.935,3.072,10.005c0.241,0.44,0.501,0.87,0.769,1.295L9.522,45.326z"/>
			<path fill-rule="evenodd" clip-rule="evenodd" fill="#EFC183" d="M5.606,33.802C5.114,28.451,6.321,22.946,9.071,18.32
				l0.431,0.254c-2.043,3.458-3.242,7.411-3.46,11.422c-0.069,1.253-0.052,2.512,0.063,3.762L5.606,33.802z"/>
			<path fill-rule="evenodd" clip-rule="evenodd" fill="#F7C392" d="M9.071,18.32c1.556-2.65,3.597-5.008,5.976-6.95
				c0.795-0.646,1.624-1.25,2.489-1.796l0.268,0.422c-3.391,2.153-6.265,5.117-8.302,8.579L9.071,18.32z"/>
			<path fill-rule="evenodd" clip-rule="evenodd" fill="#FECC93" d="M17.536,9.573c2.376-1.509,5-2.631,7.738-3.292
				c1.368-0.335,2.764-0.55,4.167-0.659c1.413-0.108,2.806-0.064,4.186-0.074h16.629h24.188v0.5h-9.071H53.279H36.272h-4.252
				c-1.416-0.014-2.828,0.05-4.226,0.257c-2.797,0.394-5.523,1.271-8.033,2.565c-0.669,0.345-1.323,0.721-1.958,1.125L17.536,9.573z
				"/>
			<polygon fill-rule="evenodd" clip-rule="evenodd" fill="#D88449" points="64.711,56.86 51.861,56.86 51.861,56.36 63.199,56.36 
				65.467,56.36 65.467,56.86 			"/>
			<path fill-rule="evenodd" clip-rule="evenodd" fill="#D37F3F" d="M38.256,56.86l-7.556-0.01l-0.752-0.033l0.028-0.499
				c2.703,0.083,5.524,0.023,8.28,0.042h9.826h3.779v0.5h-3.779H38.256z"/>
			<path fill-rule="evenodd" clip-rule="evenodd" fill="#C98A49" d="M29.947,56.818c-4.011-0.218-7.963-1.418-11.422-3.46
				c-3.462-2.037-6.429-4.907-8.581-8.299c-0.267-0.425-0.528-0.854-0.769-1.295l0.437-0.243c1.551,2.798,3.648,5.292,6.136,7.304
				c3.822,3.106,8.583,5.032,13.491,5.441l0.736,0.053L29.947,56.818z"/>
			<path fill-rule="evenodd" clip-rule="evenodd" fill="#D28C50" d="M6.104,33.758c-0.115-1.25-0.132-2.509-0.063-3.762l0.499,0.028
				c-0.274,4.671,0.793,9.41,3.072,13.496l-0.437,0.243C7.465,40.692,6.415,37.258,6.104,33.758z"/>
			<path fill-rule="evenodd" clip-rule="evenodd" fill="#CC904D" d="M6.042,29.996c0.218-4.012,1.417-7.964,3.46-11.422l0.431,0.254
				c-1.378,2.33-2.361,4.891-2.913,7.54c-0.249,1.205-0.41,2.428-0.479,3.657L6.042,29.996z"/>
			<path fill-rule="evenodd" clip-rule="evenodd" fill="#CB8C55" d="M9.501,18.574c2.038-3.462,4.911-6.426,8.302-8.579
				c0.635-0.404,1.289-0.78,1.958-1.125l0.23,0.444c-1.969,1.015-3.797,2.299-5.43,3.796c-1.814,1.666-3.381,3.596-4.63,5.717
				L9.501,18.574z"/>
			<path fill-rule="evenodd" clip-rule="evenodd" fill="#D28C50" d="M19.762,8.87c2.51-1.295,5.236-2.171,8.033-2.565
				c1.398-0.207,2.81-0.271,4.226-0.257h4.252h17.007v0.5H36.272h-4.252c-1.413-0.013-2.779,0.049-4.156,0.252
				c-2.742,0.386-5.414,1.245-7.873,2.515L19.762,8.87z"/>
			<rect x="53.279" y="6.048" fill-rule="evenodd" clip-rule="evenodd" fill="#DA914F" width="12.094" height="0.5"/>
			<polygon fill-rule="evenodd" clip-rule="evenodd" fill="#EDAA64" points="74.538,56.36 65.467,56.36 63.199,56.36 63.199,55.86 
				74.538,55.86 			"/>
			<polygon fill-rule="evenodd" clip-rule="evenodd" fill="#F2AE6B" points="63.199,56.36 51.861,56.36 48.082,56.36 48.082,55.86 
				63.199,55.86 			"/>
			<polygon fill-rule="evenodd" clip-rule="evenodd" fill="#F3AB71" points="48.082,56.36 38.256,56.36 38.256,55.86 45.814,55.86 
				48.082,55.86 			"/>
			<path fill-rule="evenodd" clip-rule="evenodd" fill="#F4B36E" d="M38.256,56.36c-2.756-0.019-5.578,0.042-8.28-0.042
				l-0.736-0.053l0.043-0.498c0.722,0.062,1.443,0.092,2.171,0.093h2.268h4.535V56.36z"/>
			<path fill-rule="evenodd" clip-rule="evenodd" fill="#E5B479" d="M9.613,43.521c-2.279-4.086-3.347-8.825-3.072-13.496
				l0.499,0.028c-0.221,3.856,0.472,7.759,2.043,11.284c1.561,3.528,3.979,6.674,6.98,9.1l-0.315,0.389
				C13.261,48.813,11.164,46.319,9.613,43.521z"/>
			<path fill-rule="evenodd" clip-rule="evenodd" fill="#E5B46E" d="M9.932,18.828c1.249-2.121,2.816-4.051,4.63-5.717l0.338,0.368
				c-1.778,1.633-3.313,3.524-4.538,5.603L9.932,18.828z"/>
			<path fill-rule="evenodd" clip-rule="evenodd" fill="#EAA777" d="M14.562,13.111c1.632-1.497,3.461-2.781,5.43-3.796
				c2.459-1.27,5.131-2.129,7.873-2.515c1.376-0.203,2.743-0.265,4.156-0.252h4.252h17.007h12.094v0.5H40.052h-6.331
				c-2.145-0.005-4.146-0.043-6.144,0.3c-3.991,0.624-7.813,2.272-11.016,4.736c-0.574,0.44-1.128,0.906-1.662,1.396L14.562,13.111z
				"/>
			<polygon fill-rule="evenodd" clip-rule="evenodd" fill="#E19A58" points="74.444,7.048 65.373,7.048 65.373,6.548 65.373,6.048 
				74.444,6.048 			"/>
			<rect x="63.199" y="55.36" fill-rule="evenodd" clip-rule="evenodd" fill="#DDBA84" width="11.338" height="0.5"/>
			<polygon fill-rule="evenodd" clip-rule="evenodd" fill="#DFBF92" points="63.199,55.86 48.082,55.86 45.814,55.86 45.814,55.36 
				48.082,55.36 56.396,55.36 63.199,55.36 			"/>
			<path fill-rule="evenodd" clip-rule="evenodd" fill="#E5C39B" d="M29.282,55.768c-4.81-0.401-9.474-2.288-13.219-5.332
				l0.314-0.389c2.752,2.235,6.008,3.839,9.453,4.659c1.55,0.371,3.138,0.583,4.733,0.638c1.59,0.033,3.371,0.009,5.047,0.016
				h10.204v0.5h-7.559h-4.535h-2.268C30.725,55.859,30.004,55.83,29.282,55.768z"/>
			<path fill-rule="evenodd" clip-rule="evenodd" fill="#E3C388" d="M16.063,50.436c-3.002-2.425-5.419-5.571-6.98-9.1
				c-1.571-3.525-2.265-7.427-2.043-11.284c-0.033-0.847,0.218-1.275,0.622-1.384c-0.297,2.581-0.185,5.217,0.356,7.756
				c1.107,5.321,4.125,10.212,8.36,13.622L16.063,50.436z"/>
			<path fill-rule="evenodd" clip-rule="evenodd" fill="#DFB673" d="M16.562,12.083c3.203-2.464,7.024-4.112,11.016-4.736
				c1.998-0.343,3.999-0.305,6.144-0.3h6.331h25.321v0.5H53.279H34.005h-2.409c-0.777,0-1.514,0.025-2.27,0.091
				c-1.5,0.129-2.988,0.398-4.437,0.809c-2.897,0.819-5.634,2.197-8.023,4.032L16.562,12.083z"/>
			<rect x="65.373" y="7.048" fill-rule="evenodd" clip-rule="evenodd" fill="#E3BA87" width="9.071" height="0.5"/>
			<polygon fill-rule="evenodd" clip-rule="evenodd" fill="#F5F4EC" points="63.199,55.36 56.396,55.36 56.396,54.86 59.42,54.86 
				70.758,54.86 74.538,54.86 74.538,55.36 			"/>
			<path fill-rule="evenodd" clip-rule="evenodd" fill="#F5F4EC" d="M48.082,55.36h-2.268H35.61
				c-1.676-0.007-3.457,0.017-5.047-0.016c-1.595-0.055-3.183-0.268-4.733-0.638l0.116-0.486l0.677,0.152
				c1.358,0.279,2.742,0.441,4.131,0.479l4.478,0.009h9.07h3.779V55.36z"/>
			<path fill-rule="evenodd" clip-rule="evenodd" fill="#FCF3EB" d="M16.378,50.047c-4.236-3.41-7.253-8.301-8.36-13.622
				l0.489-0.104c0.284,1.358,0.697,2.688,1.22,3.971c0.612,1.498,1.378,2.933,2.287,4.273c1.298,1.915,2.881,3.637,4.68,5.092
				c1.259,1.019,2.623,1.908,4.063,2.646c1.648,0.84,3.393,1.488,5.192,1.916l-0.116,0.486
				C22.386,53.886,19.13,52.282,16.378,50.047z"/>
			<path fill-rule="evenodd" clip-rule="evenodd" fill="#FCEDE1" d="M8.018,36.425c-0.542-2.54-0.653-5.175-0.356-7.756
				c0.607-5.404,3.151-10.551,7.063-14.333l0.349,0.358c-1.496,1.453-2.793,3.102-3.848,4.896
				c-2.842,4.771-3.85,10.583-2.853,16.052l0.134,0.68L8.018,36.425z"/>
			<path fill-rule="evenodd" clip-rule="evenodd" fill="#EFE0CC" d="M16.866,12.48c2.389-1.835,5.126-3.213,8.023-4.032
				c1.448-0.411,2.936-0.68,4.437-0.809c0.755-0.065,1.492-0.091,2.27-0.091h2.409h19.274v0.5h-6.047H35.139h-3.023
				c-1.041-0.007-1.886,0.01-2.833,0.097c-4.61,0.404-9.073,2.23-12.657,5.163c-0.538,0.439-1.056,0.901-1.553,1.386l-0.349-0.358
				C15.4,13.673,16.116,13.055,16.866,12.48z"/>
			<polygon fill-rule="evenodd" clip-rule="evenodd" fill="#F9E7D2" points="65.373,7.548 74.444,7.548 74.444,8.048 65.373,8.048 
				53.279,8.048 53.279,7.548 			"/>
			<path fill-rule="evenodd" clip-rule="evenodd" fill="#FFFFFE" d="M59.42,54.86h-3.023h-8.314h-3.779
				c2.537-1.155,8.302-0.175,12.094-0.5C57.527,54.446,59.186,54.183,59.42,54.86z"/>
			<path fill-rule="evenodd" clip-rule="evenodd" fill="#FEFEFD" d="M16.692,49.658c-1.799-1.455-3.382-3.177-4.68-5.092l0.414-0.28
				c0.257,0.373,0.518,0.744,0.796,1.101c0.37,0.744,1.3,1.588,2.114,2.31C16.148,48.425,16.842,49.058,16.692,49.658z"/>
			<path fill-rule="evenodd" clip-rule="evenodd" fill="#FEFDFD" d="M65.373,8.048h9.071v2.5H71.42c0.144-0.405,0.758-0.499,0.756-1
				c-2.715-0.038-6.155,0.404-6.803-1V8.048z"/>
			<path fill-rule="evenodd" clip-rule="evenodd" fill="#FCFCFC" d="M29.372,9.141c0.823,0.067,1.919-0.108,3.209-0.152
				c1.216-0.054,2.275-0.005,2.557,0.559h-3.023l-1.4,0.012c-0.434,0.016-0.867,0.037-1.298,0.079
				c-4.314,0.378-8.487,2.085-11.843,4.831l-0.499,0.417l-0.327-0.378C20.265,11.456,24.737,9.542,29.372,9.141z"/>
			<path fill-rule="evenodd" clip-rule="evenodd" fill="#FFFFFE" d="M11.245,37.007c-0.731,0.033-0.894-1.194-1.396-1.632
				c-0.06-1.202-0.379-2.785-0.406-4.285c-0.04-1.492,0.204-2.854,0.883-3.389c-0.052,1.175-0.36,2.724-0.382,4.191
				c-0.033,1.458,0.208,2.79,0.889,3.306C10.941,35.807,11.081,36.41,11.245,37.007z"/>
			<path fill-rule="evenodd" clip-rule="evenodd" fill="#FFFFFE" d="M65.373,10.048v-0.5v-1c0.648,1.404,4.088,0.962,6.803,1
				c0.002,0.501-0.612,0.595-0.756,1h-6.047V10.048z"/>
			<path fill-rule="evenodd" clip-rule="evenodd" fill="#FFFFFE" d="M12.517,20.351c1.206-2.053,2.756-3.898,4.559-5.464
				l0.499-0.417c1.354-0.584,3.504-1.817,5.797-2.727c2.274-0.954,4.667-1.578,6.045-2.104c0.431-0.042,0.864-0.063,1.298-0.079
				l1.4-0.012h3.023c-0.282-0.564-1.341-0.613-2.557-0.559c-1.29,0.043-2.386,0.219-3.209,0.152l-0.045-0.498l-0.044-0.498
				c0.947-0.086,1.792-0.104,2.833-0.097h3.023v1h6.047v0.5c-2.572-0.035-5.274-0.156-6.047,1h-2.268
				c-0.748,0.001-1.562-0.006-2.125,0.011c-1.243,0.036-2.477,0.189-3.688,0.443c-2.422,0.511-4.748,1.462-6.841,2.792
				c-4.195,2.652-7.41,6.844-8.822,11.587c-0.655-0.336-0.192-1.475,0.398-2.521C12.371,21.803,13.06,20.844,12.517,20.351z"/>
			<path fill-rule="evenodd" clip-rule="evenodd" fill="#FFFEFE" d="M11.225,19.589c1.055-1.794,2.352-3.443,3.848-4.896
				c0.498-0.485,1.016-0.947,1.553-1.386c1.617-0.58,3.527-1.826,5.766-2.848c2.214-1.039,4.765-1.798,6.935-1.816l0.045,0.498
				c-4.635,0.402-9.107,2.315-12.624,5.368c-3.193,2.756-5.578,6.413-6.79,10.438c-0.653-0.345-0.165-1.565,0.46-2.689
				C11.031,21.123,11.762,20.09,11.225,19.589z"/>
			<path fill-rule="evenodd" clip-rule="evenodd" fill="#FFFFFF" d="M55.547,9.548h1.512h8.314v0.5
				C62.331,9.727,57.336,10.697,55.547,9.548z"/>
			<path fill-rule="evenodd" clip-rule="evenodd" fill="#FEFEFD" d="M17.574,14.469c3.356-2.746,7.528-4.453,11.843-4.831
				c-1.378,0.525-3.771,1.149-6.045,2.104C21.079,12.652,18.928,13.885,17.574,14.469z"/>
			<path fill-rule="evenodd" clip-rule="evenodd" fill="#FDE3B3" d="M2.084,39.522l-0.482,0.132c-0.243-0.885-0.448-1.78-0.61-2.682
				c-1.06-4.792-0.594-10.455,1.204-15.451c1.758-5.031,4.7-9.259,7.294-12.559c0.885-0.865,1.826-1.679,2.81-2.432
				c1.847-0.925,4.969-2.691,8.331-3.916c3.341-1.282,6.863-1.994,8.861-2.507c0.444-0.029,0.89-0.044,1.334-0.052l1.194-0.007
				h2.173h4.346h8.692h17.385h6.047c1.429,0.221,4.556-0.681,3.78,1h-4.536h-4.535h-9.826h-8.314h-9.07h-4.157h-2.079l-1.138,0.007
				c-0.412,0.01-0.824,0.022-1.236,0.05c-4.269,0.253-8.499,1.427-12.285,3.428c-3.797,1.993-7.139,4.791-9.788,8.154
				c-2.644,3.365-4.576,7.299-5.596,11.464c-1.025,4.168-1.159,8.515-0.4,12.732C1.643,37.772,1.845,38.652,2.084,39.522z"/>
			<path fill-rule="evenodd" clip-rule="evenodd" fill="#FCCE77" d="M6.341,42.552c0.336-0.625-0.101-1.782-0.577-3.117
				c-0.476-1.33-0.965-2.861-0.966-3.959c-0.431-2.893-0.394-5.849,0.112-8.731c0.461-2.619,1.317-5.168,2.529-7.536l0.445,0.228
				c-3.984,7.666-3.823,17.285,0.417,24.812c-0.45,0.396,0.141,1.371,0.814,2.281c-0.408,0.362-0.867-0.203-1.286-0.988
				c-0.422-0.784-0.773-1.779-1.149-2.251L6.341,42.552z"/>
			<path fill-rule="evenodd" clip-rule="evenodd" fill="#EEB67A" d="M7.019,26.367c0.552-2.649,1.535-5.21,2.913-7.54l0.431,0.254
				c-0.764,0.968-1.374,2.565-1.833,4.017C8.057,24.553,7.705,25.864,7.019,26.367z"/>
			<path fill-rule="evenodd" clip-rule="evenodd" fill="#DDBA84" d="M7.019,26.367c0.686-0.503,1.038-1.814,1.51-3.269
				c0.459-1.452,1.069-3.048,1.833-4.017c1.224-2.079,2.759-3.969,4.538-5.603c0.533-0.489,1.087-0.955,1.662-1.396l0.304,0.396
				c-0.75,0.575-1.466,1.193-2.143,1.855c-3.911,3.783-6.455,8.93-7.063,14.333c-0.403,0.108-0.654,0.537-0.622,1.384l-0.499-0.028
				C6.609,28.795,6.771,27.572,7.019,26.367z"/>
		</g>
	</g>
</g>
<path fill="#808080" d="M61.516,20.964c-0.23,1.41-1.46,2.49-2.95,2.49h-24c-0.57,0-1.11-0.16-1.56-0.44
	c-0.74-0.44-1.26-1.19-1.39-2.07c0.1-0.62,0.4-1.18,0.83-1.61c0.54-0.54,1.29-0.88,2.12-0.88h24c1.09,0,2.04,0.57,2.56,1.44
	C61.325,20.214,61.465,20.574,61.516,20.964z"/>
<path fill="#808080" d="M61.565,31.454c0,1.66-1.34,3-3,3h-24c-0.57,0-1.11-0.16-1.56-0.44c-0.87-0.52-1.44-1.47-1.44-2.56
	c0-0.17,0.01-0.34,0.05-0.51c0.13,0.88,0.65,1.63,1.39,2.07c0.45,0.28,0.99,0.44,1.56,0.44h24c1.49,0,2.72-1.08,2.95-2.49
	C61.556,31.124,61.565,31.284,61.565,31.454z"/>
<path fill="#808080" d="M61.516,30.964c-0.23,1.41-1.46,2.49-2.95,2.49h-24c-0.57,0-1.11-0.16-1.56-0.44
	c-0.74-0.44-1.26-1.19-1.39-2.07c0.1-0.62,0.4-1.18,0.83-1.61c0.54-0.54,1.29-0.88,2.12-0.88h24c1.09,0,2.04,0.57,2.56,1.44
	C61.325,30.214,61.465,30.574,61.516,30.964z"/>
<path fill="#808080" d="M61.565,41.454c0,1.66-1.34,3-3,3h-24c-0.57,0-1.11-0.16-1.56-0.44c-0.87-0.52-1.44-1.47-1.44-2.56
	c0-0.17,0.01-0.34,0.05-0.51c0.13,0.88,0.65,1.63,1.39,2.07c0.45,0.28,0.99,0.44,1.56,0.44h24c1.49,0,2.72-1.08,2.95-2.49
	C61.556,41.124,61.565,41.284,61.565,41.454z"/>
<path fill="#808080" d="M61.516,40.964c-0.23,1.41-1.46,2.49-2.95,2.49h-24c-0.57,0-1.11-0.16-1.56-0.44
	c-0.74-0.44-1.26-1.19-1.39-2.07c0.1-0.62,0.4-1.18,0.83-1.61c0.54-0.54,1.29-0.88,2.12-0.88h24c1.09,0,2.04,0.57,2.56,1.44
	C61.325,40.214,61.465,40.574,61.516,40.964z"/>
<path fill="#808080" d="M61.565,21.454c0,1.66-1.34,3-3,3h-24c-0.57,0-1.11-0.16-1.56-0.44c-0.87-0.52-1.44-1.47-1.44-2.56
	c0-0.17,0.01-0.34,0.05-0.51c0.13,0.88,0.65,1.63,1.39,2.07c0.45,0.28,0.99,0.44,1.56,0.44h24c1.49,0,2.72-1.08,2.95-2.49
	C61.556,21.124,61.565,21.284,61.565,21.454z"/>
<path fill="#808080" d="M61.516,20.964c-0.23,1.41-1.46,2.49-2.95,2.49h-24c-0.57,0-1.11-0.16-1.56-0.44
	c-0.74-0.44-1.26-1.19-1.39-2.07c0.1-0.62,0.4-1.18,0.83-1.61c0.54-0.54,1.29-0.88,2.12-0.88h24c1.09,0,2.04,0.57,2.56,1.44
	C61.325,20.214,61.465,20.574,61.516,20.964z"/>
<path fill="#808080" d="M61.516,30.964c-0.23,1.41-1.46,2.49-2.95,2.49h-24c-0.57,0-1.11-0.16-1.56-0.44
	c-0.74-0.44-1.26-1.19-1.39-2.07c0.1-0.62,0.4-1.18,0.83-1.61c0.54-0.54,1.29-0.88,2.12-0.88h24c1.09,0,2.04,0.57,2.56,1.44
	C61.325,30.214,61.465,30.574,61.516,30.964z"/>
<path fill="#808080" d="M61.516,40.964c-0.23,1.41-1.46,2.49-2.95,2.49h-24c-0.57,0-1.11-0.16-1.56-0.44
	c-0.74-0.44-1.26-1.19-1.39-2.07c0.1-0.62,0.4-1.18,0.83-1.61c0.54-0.54,1.29-0.88,2.12-0.88h24c1.09,0,2.04,0.57,2.56,1.44
	C61.325,40.214,61.465,40.574,61.516,40.964z"/>
<path fill="#CCCCCC" d="M61.565,21.454c0,1.66-1.34,3-3,3h-24c-0.57,0-1.11-0.16-1.56-0.44c-0.28-0.45-0.44-0.99-0.44-1.56
	c0-0.83,0.34-1.58,0.88-2.12s1.29-0.88,2.12-0.88h24c0.57,0,1.11,0.16,1.56,0.44C61.405,20.344,61.565,20.884,61.565,21.454z"/>
<path fill="#CCCCCC" d="M61.565,31.454c0,1.66-1.34,3-3,3h-24c-0.57,0-1.11-0.16-1.56-0.44c-0.28-0.45-0.44-0.99-0.44-1.56
	c0-0.83,0.34-1.58,0.88-2.12s1.29-0.88,2.12-0.88h24c0.57,0,1.11,0.16,1.56,0.44C61.405,30.344,61.565,30.884,61.565,31.454z"/>
<path fill="#CCCCCC" d="M61.565,41.454c0,1.66-1.34,3-3,3h-24c-0.57,0-1.11-0.16-1.56-0.44c-0.28-0.45-0.44-0.99-0.44-1.56
	c0-0.83,0.34-1.58,0.88-2.12s1.29-0.88,2.12-0.88h24c0.57,0,1.11,0.16,1.56,0.44C61.405,40.344,61.565,40.884,61.565,41.454z"/>
</svg>
