<?xml version="1.0" encoding="utf-8"?>
<!-- Generator: Adobe Illustrator 15.0.0, SVG Export Plug-In  -->
<!DOCTYPE svg PUBLIC "-//W3C//DTD SVG 1.1//EN" "http://www.w3.org/Graphics/SVG/1.1/DTD/svg11.dtd" [
	<!ENTITY ns_flows "http://ns.adobe.com/Flows/1.0/">
]>
<svg version="1.1"
	 xmlns="http://www.w3.org/2000/svg" xmlns:xlink="http://www.w3.org/1999/xlink" xmlns:a="http://ns.adobe.com/AdobeSVGViewerExtensions/3.0/"
	 x="0px" y="0px" width="167px" height="30px" viewBox="11 6 167 30" enable-background="new 11 6 167 30" xml:space="preserve">
<defs>
</defs>
<rect display="none" fill="#EAEAEA" width="228" height="757"/>
<rect display="none" fill="#FFFFFF" width="228" height="50"/>
<path fill="#80CBEC" d="M26.44,31.5l-5.452,0.97c0.076-2.889,0.127-4.859,0.156-5.912c0.028-1.053,0.042-1.711,0.042-1.976
	c0-0.878-0.142-1.536-0.425-1.976c-0.283-0.438-0.713-0.658-1.289-0.658c-0.538,0-1.102,0.243-1.692,0.729
	c-0.59,0.486-1.206,1.214-1.848,2.186l-0.411,7.33l-2.563,0.347l-1.515-12.985l4.843-1.02l-0.212,4.078
	c0.699-0.935,1.439-1.64,2.223-2.117c0.784-0.477,1.605-0.715,2.464-0.715c1.133,0,2.061,0.425,2.782,1.274
	c0.723,0.849,1.253,2.127,1.593,3.835L26.44,31.5z M24.104,25.95c0-0.292-0.076-0.517-0.227-0.672s-0.377-0.234-0.68-0.234
	s-0.531,0.078-0.687,0.234c-0.156,0.156-0.234,0.38-0.234,0.672c0,0.312,0.078,0.545,0.234,0.701
	c0.155,0.156,0.384,0.233,0.687,0.233s0.529-0.078,0.68-0.233S24.104,26.261,24.104,25.95z M24.627,29.405
	c0-0.321-0.118-0.592-0.354-0.814s-0.51-0.333-0.821-0.333c-0.396,0-0.691,0.097-0.885,0.29c-0.194,0.193-0.291,0.479-0.291,0.856
	c0,0.387,0.097,0.678,0.291,0.871c0.193,0.193,0.488,0.29,0.885,0.29c0.312,0,0.585-0.111,0.821-0.333S24.627,29.735,24.627,29.405z
	"/>
<path fill="#80CBEC" d="M43.928,30.991c-0.236,0.236-0.448,0.445-0.637,0.629s-0.354,0.332-0.496,0.445l1.062,1.582l-0.991,0.58
	l-1.076-1.329c-0.377,0.226-0.779,0.417-1.204,0.572s-0.878,0.261-1.359,0.318l-0.028,1.671l-1.274-0.085l0.113-1.543
	c-0.434,0-0.897-0.045-1.388-0.134c-0.491-0.09-1.005-0.225-1.543-0.404l-0.793,1.699l-1.274-0.694l0.864-1.586
	c-0.462-0.255-0.885-0.55-1.268-0.885c-0.382-0.335-0.72-0.715-1.012-1.14l-1.515,0.963l-0.637-1.005l1.657-0.864
	c-0.217-0.453-0.387-0.918-0.51-1.395c-0.123-0.477-0.203-0.965-0.241-1.465l-1.515,0.382l-0.439-1.246l1.954-0.439
	c0.047-0.529,0.127-1.005,0.241-1.43s0.26-0.802,0.439-1.133l-1.374-0.821l0.651-1.076l1.345,0.935
	c0.236-0.292,0.493-0.557,0.772-0.793c0.278-0.236,0.573-0.444,0.885-0.623l-1.161-1.685l1.274-0.623l0.935,1.798
	c0.302-0.094,0.576-0.17,0.821-0.227s0.462-0.099,0.651-0.127l0.382-1.855l1.005,0.312l-0.255,1.473
	c0.377,0,0.736,0.047,1.076,0.142c0.34,0.095,0.666,0.236,0.977,0.425l1.402-1.388l0.793,0.666l-1.331,1.446
	c0.208,0.199,0.401,0.438,0.581,0.716s0.34,0.588,0.481,0.929l1.657-0.553l0.283,1.049l-1.6,0.553
	c0.076,0.208,0.139,0.435,0.191,0.681c0.052,0.246,0.102,0.511,0.149,0.794l-6.584,1.146v0.156c0,0.688,0.073,1.336,0.219,1.945
	c0.146,0.608,0.37,1.186,0.672,1.732c0.358,0.65,0.788,1.139,1.288,1.464s1.061,0.488,1.684,0.488c0.641,0,1.315-0.17,2.023-0.51
	c0.707-0.34,1.457-0.859,2.249-1.558L43.928,30.991z M38.136,24.031c-0.038-0.416-0.191-0.727-0.46-0.935
	c-0.269-0.208-0.653-0.312-1.154-0.312c-0.614,0-1.185,0.184-1.713,0.552s-0.887,0.84-1.076,1.416L38.136,24.031z"/>
<path fill="#80CBEC" d="M61.231,30.991c-0.236,0.236-0.448,0.445-0.637,0.629s-0.354,0.332-0.496,0.445l1.062,1.582l-0.991,0.58
	l-1.076-1.329c-0.377,0.226-0.779,0.417-1.204,0.572s-0.878,0.261-1.359,0.318l-0.028,1.671l-1.274-0.085l0.113-1.543
	c-0.434,0-0.897-0.045-1.388-0.134c-0.491-0.09-1.005-0.225-1.543-0.404l-0.793,1.699l-1.274-0.694l0.864-1.586
	c-0.462-0.255-0.885-0.55-1.268-0.885c-0.382-0.335-0.72-0.715-1.012-1.14l-1.515,0.963l-0.637-1.005l1.657-0.864
	c-0.217-0.453-0.387-0.918-0.51-1.395c-0.123-0.477-0.203-0.965-0.241-1.465l-1.515,0.382l-0.439-1.246l1.954-0.439
	c0.047-0.529,0.127-1.005,0.241-1.43s0.26-0.802,0.439-1.133l-1.374-0.821l0.651-1.076l1.345,0.935
	c0.236-0.292,0.493-0.557,0.772-0.793c0.278-0.236,0.573-0.444,0.885-0.623l-1.161-1.685l1.274-0.623l0.935,1.798
	c0.302-0.094,0.576-0.17,0.821-0.227s0.462-0.099,0.651-0.127l0.382-1.855l1.005,0.312l-0.255,1.473
	c0.377,0,0.736,0.047,1.076,0.142c0.34,0.095,0.666,0.236,0.977,0.425l1.402-1.388l0.793,0.666l-1.331,1.446
	c0.208,0.199,0.401,0.438,0.581,0.716s0.34,0.588,0.481,0.929l1.657-0.553l0.283,1.049l-1.6,0.553
	c0.076,0.208,0.139,0.435,0.191,0.681c0.052,0.246,0.102,0.511,0.149,0.794l-6.584,1.146v0.156c0,0.688,0.073,1.336,0.219,1.945
	c0.146,0.608,0.37,1.186,0.672,1.732c0.358,0.65,0.788,1.139,1.288,1.464s1.061,0.488,1.684,0.488c0.641,0,1.315-0.17,2.023-0.51
	c0.707-0.34,1.457-0.859,2.249-1.558L61.231,30.991z M55.44,24.031c-0.038-0.416-0.191-0.727-0.46-0.935
	c-0.269-0.208-0.653-0.312-1.154-0.312c-0.614,0-1.185,0.184-1.713,0.552s-0.887,0.84-1.076,1.416L55.44,24.031z"/>
<path fill="#80CBEC" d="M79.399,6.912l-2.032,25.984l-2.528-0.219l-0.142-3.547c-0.651,0.916-1.404,1.605-2.258,2.067
	c-0.854,0.462-1.811,0.694-2.868,0.694c-1.718,0-3.177-0.618-4.375-1.855s-1.798-2.719-1.798-4.446c0-0.935,0.172-1.787,0.517-2.556
	c0.344-0.769,0.861-1.456,1.55-2.06c0.651-0.576,1.378-1.008,2.18-1.295c0.802-0.288,1.671-0.432,2.605-0.432
	c0.887,0,1.659,0.118,2.314,0.354c0.656,0.236,1.211,0.585,1.664,1.048L73.65,8.208L79.399,6.912z M74.443,25.376
	c0-1.577-0.392-2.747-1.175-3.512s-1.963-1.147-3.54-1.147h-0.269l-0.326,1.827l-1.869-0.354l-0.142,1.048l1.798,0.439l-0.184,1.274
	l-1.813-0.439l-0.184,1.005l1.77,0.51l-0.212,1.104l-1.728-0.453l-0.283,1.175l1.798,0.411l-0.283,1.798
	c0.331,0.142,0.661,0.248,0.991,0.319c0.331,0.07,0.656,0.106,0.977,0.106c0.67,0,1.284-0.13,1.841-0.389
	c0.557-0.26,1.067-0.654,1.529-1.183c0.434-0.5,0.76-1.045,0.977-1.636C74.334,26.691,74.443,26.056,74.443,25.376z M72.68,10.02
	c0,0.34-0.083,0.592-0.248,0.757s-0.417,0.248-0.757,0.248s-0.595-0.083-0.765-0.248s-0.255-0.417-0.255-0.757
	c0-0.35,0.085-0.609,0.255-0.779s0.425-0.255,0.765-0.255s0.592,0.085,0.757,0.255S72.68,9.67,72.68,10.02z M72.935,13.291
	c0,0.35-0.083,0.604-0.248,0.765c-0.165,0.161-0.417,0.241-0.757,0.241c-0.331,0-0.581-0.081-0.751-0.241
	c-0.17-0.16-0.255-0.415-0.255-0.765c0-0.321,0.085-0.568,0.255-0.743s0.42-0.262,0.751-0.262c0.34,0,0.592,0.087,0.757,0.262
	S72.935,12.97,72.935,13.291z M73.331,16.802c0,0.35-0.083,0.604-0.248,0.765c-0.165,0.161-0.417,0.241-0.757,0.241
	s-0.595-0.081-0.765-0.241c-0.17-0.16-0.255-0.415-0.255-0.765c0-0.34,0.085-0.595,0.255-0.765s0.425-0.255,0.765-0.255
	s0.592,0.085,0.757,0.255S73.331,16.462,73.331,16.802z"/>
<path fill="#80CBEC" d="M89.807,7.818L86.918,32.06l-4.489-0.439l0.219-1.289l1.742,0.241l0.07-2.591l-1.982-0.127l0.1-1.175
	l1.883,0.028l0.043-2.478l-2.075-0.085l0.149-1.048h1.954l0.042-2.719l-2.244-0.142l0.148-1.416l2.124,0.382V16.88l-2.124-0.241
	l0.17-1.161l1.997-0.042l0.028-2.45l-2.315-0.113l0.262-1.331l2.054,0.212l0.07-2.308l-2.457-0.184l0.191-1.444H89.807z"/>
<path fill="#80CBEC" d="M106.941,30.991c-0.236,0.236-0.449,0.445-0.638,0.629s-0.354,0.332-0.495,0.445l1.062,1.582l-0.991,0.58
	l-1.076-1.329c-0.378,0.226-0.779,0.417-1.203,0.572c-0.426,0.155-0.879,0.261-1.359,0.318l-0.029,1.671l-1.273-0.085l0.113-1.543
	c-0.435,0-0.897-0.045-1.389-0.134c-0.49-0.09-1.005-0.225-1.543-0.404l-0.793,1.699l-1.274-0.694l0.864-1.586
	c-0.463-0.255-0.886-0.55-1.268-0.885c-0.383-0.335-0.72-0.715-1.013-1.14l-1.515,0.963l-0.638-1.005l1.657-0.864
	c-0.218-0.453-0.388-0.918-0.51-1.395c-0.123-0.477-0.203-0.965-0.241-1.465l-1.515,0.382l-0.439-1.246l1.954-0.439
	c0.047-0.529,0.128-1.005,0.241-1.43s0.259-0.802,0.438-1.133l-1.374-0.821l0.652-1.076l1.345,0.935
	c0.236-0.292,0.493-0.557,0.771-0.793s0.573-0.444,0.886-0.623l-1.162-1.685l1.275-0.623l0.934,1.798
	c0.303-0.094,0.576-0.17,0.822-0.227c0.245-0.057,0.462-0.099,0.65-0.127l0.383-1.855l1.006,0.312l-0.256,1.473
	c0.378,0,0.736,0.047,1.076,0.142c0.34,0.095,0.666,0.236,0.978,0.425l1.401-1.388l0.793,0.666l-1.33,1.446
	c0.207,0.199,0.4,0.438,0.58,0.716s0.34,0.588,0.481,0.929l1.657-0.553l0.283,1.049l-1.601,0.553
	c0.075,0.208,0.14,0.435,0.191,0.681c0.052,0.246,0.102,0.511,0.148,0.794l-6.585,1.146v0.156c0,0.688,0.073,1.336,0.22,1.945
	c0.146,0.608,0.37,1.186,0.672,1.732c0.358,0.65,0.787,1.139,1.287,1.464s1.062,0.488,1.685,0.488c0.641,0,1.315-0.17,2.022-0.51
	c0.708-0.34,1.457-0.859,2.25-1.558L106.941,30.991z M101.149,24.031c-0.038-0.416-0.191-0.727-0.46-0.935
	c-0.27-0.208-0.654-0.312-1.154-0.312c-0.613,0-1.185,0.184-1.713,0.552c-0.529,0.368-0.888,0.84-1.076,1.416L101.149,24.031z"/>
<path fill="#80CBEC" d="M129.342,19.719l-5.161,12.815l-2.244,0.361l-3.802-9.629l-2.535,8.064l-4.014,2.004l-0.354-1.423
	l1.671-0.765l-0.27-0.864l-1.699,0.765l-0.311-1.274l1.515-0.608l-0.269-0.793l-1.516,0.538l-0.312-1.161l1.374-0.565l-0.27-0.806
	l-1.316,0.538l-1.997-7.096l2.357-1.069l4.085,10.025l3.307-9.063l3.866-1.062l2.096,10.847l3.695-10.705L129.342,19.719z
	 M120.089,33.653c0,0.481-0.175,0.897-0.524,1.246c-0.349,0.35-0.765,0.524-1.246,0.524s-0.895-0.175-1.238-0.524
	c-0.345-0.349-0.518-0.765-0.518-1.246c0-0.472,0.173-0.878,0.518-1.218c0.344-0.34,0.757-0.51,1.238-0.51s0.897,0.17,1.246,0.51
	C119.914,32.775,120.089,33.181,120.089,33.653z"/>
<path fill="#80CBEC" d="M146.44,24.449l-1.777,0.481c0.028,0.18,0.052,0.371,0.071,0.574c0.019,0.203,0.027,0.417,0.027,0.644
	c0,0.34-0.023,0.675-0.07,1.006c-0.047,0.33-0.118,0.661-0.213,0.991l1.424,0.651l-0.724,1.249l-1.12-0.795
	c-0.359,0.767-0.822,1.415-1.39,1.945c-0.567,0.53-1.238,0.951-2.013,1.263l0.396,1.69l-1.3,0.325l-0.254-1.664
	c-0.283,0.047-0.53,0.083-0.742,0.106c-0.212,0.024-0.394,0.036-0.544,0.036c-0.567,0-1.122-0.071-1.666-0.212
	c-0.543-0.142-1.065-0.363-1.566-0.666l-1.049,1.635l-1.121-0.651L134,31.354c-0.377-0.313-0.71-0.663-0.998-1.051
	c-0.287-0.388-0.53-0.81-0.728-1.264l-1.765,0.554l-0.255-1.208l1.607-0.354c-0.085-0.35-0.146-0.685-0.185-1.006
	c-0.037-0.321-0.057-0.613-0.057-0.878c0-0.292,0.017-0.578,0.05-0.856s0.088-0.545,0.163-0.8l-1.579-0.51l0.325-1.218l1.625,0.68
	c0.226-0.576,0.521-1.1,0.883-1.572c0.363-0.472,0.79-0.887,1.281-1.246l-0.949-1.486l1.092-0.751l0.937,1.593
	c0.435-0.208,0.881-0.363,1.34-0.467c0.458-0.104,0.934-0.156,1.425-0.156c0.49,0,0.954,0.049,1.393,0.149
	c0.438,0.099,0.86,0.243,1.266,0.432l0.749-1.353l1.103,0.623l-0.764,1.374c0.557,0.406,1.033,0.873,1.431,1.401
	c0.397,0.529,0.729,1.124,0.994,1.784l1.73-0.765L146.44,24.449z M140.797,26.148c0-0.594-0.057-1.14-0.169-1.64
	c-0.113-0.5-0.297-0.957-0.551-1.372c-0.302-0.5-0.66-0.874-1.074-1.124c-0.415-0.25-0.899-0.375-1.455-0.375
	c-0.54,0-1.022,0.125-1.448,0.375c-0.426,0.25-0.785,0.629-1.078,1.138c-0.246,0.415-0.429,0.875-0.547,1.378
	c-0.118,0.504-0.177,1.044-0.177,1.619c0,0.615,0.059,1.175,0.177,1.681c0.118,0.506,0.296,0.962,0.533,1.369
	c0.293,0.511,0.652,0.889,1.078,1.135c0.426,0.246,0.913,0.369,1.462,0.369c0.564,0,1.06-0.123,1.483-0.369
	c0.424-0.246,0.777-0.624,1.06-1.135c0.227-0.406,0.4-0.863,0.522-1.369C140.736,27.323,140.797,26.763,140.797,26.148z"/>
<path fill="#80CBEC" d="M162.343,21.093l-1.374,0.51c0,0.075,0.005,0.188,0.015,0.34c0.009,0.151,0.014,0.269,0.014,0.354
	c0,0.246-0.025,0.475-0.077,0.687c-0.053,0.212-0.13,0.408-0.234,0.587l1.218,0.864l-0.766,0.757l-1.079-0.871
	c-0.151,0.142-0.324,0.275-0.518,0.399c-0.194,0.124-0.409,0.248-0.646,0.372l-0.724-0.998c0.151-0.188,0.263-0.376,0.333-0.565
	c0.071-0.188,0.106-0.376,0.106-0.564c0-0.386-0.132-0.678-0.396-0.875c-0.265-0.197-0.661-0.296-1.189-0.296
	c-0.585,0-1.208,0.314-1.869,0.942c-0.661,0.627-1.359,1.564-2.096,2.811l0.213,7.788l-4.857-0.729l2.202-13.324l2.244-0.46
	l0.113,4.177c0.302-0.425,0.595-0.802,0.878-1.133s0.557-0.618,0.821-0.864l-0.608-1.374l0.963-0.496l0.51,1.175
	c0.33-0.198,0.667-0.366,1.012-0.503c0.345-0.137,0.696-0.233,1.055-0.29l0.043-1.416l1.033,0.099l-0.212,1.289
	c0.529,0.028,0.981,0.148,1.354,0.359c0.374,0.212,0.66,0.51,0.859,0.896l1.291-0.677L162.343,21.093z M152.104,30.354
	c0-0.331-0.11-0.611-0.333-0.843c-0.222-0.231-0.493-0.347-0.813-0.347c-0.312,0-0.583,0.115-0.814,0.347s-0.347,0.512-0.347,0.843
	c0,0.387,0.097,0.675,0.29,0.863c0.193,0.189,0.483,0.283,0.871,0.283c0.396,0,0.687-0.094,0.87-0.283
	C152.013,31.029,152.104,30.741,152.104,30.354z M152.176,26.884c0-0.292-0.076-0.517-0.227-0.672
	c-0.151-0.156-0.388-0.234-0.708-0.234c-0.293,0-0.515,0.078-0.666,0.234c-0.15,0.156-0.227,0.38-0.227,0.672
	c0,0.302,0.076,0.526,0.227,0.673c0.151,0.146,0.373,0.22,0.666,0.22c0.32,0,0.557-0.073,0.708-0.22
	C152.1,27.411,152.176,27.187,152.176,26.884z"/>
<path fill="#80CBEC" d="M177.842,29.54c0,1.02-0.34,1.869-1.02,2.549c-0.679,0.68-1.533,1.02-2.562,1.02
	c-0.632,0-1.238-0.184-1.818-0.552s-1.134-0.92-1.662-1.657c-0.378-0.642-0.755-1.279-1.133-1.912
	c-0.377-0.632-0.754-1.274-1.132-1.926l-0.863,0.34l-0.764,5.211l-2.754-0.241l0.367-15.562l1.869-0.227l0.043-1.43l-1.939,0.212
	l0.027-1.515l2.068-0.212l0.113-1.345l-2.182,0.255l0.043-1.444l2.067-0.51V9.375l-2.039,0.269V8.208l6.075-1.381l-1.993,13.551
	c0.915-0.5,1.773-0.878,2.575-1.133c0.803-0.255,1.548-0.382,2.236-0.382c0.83,0,1.446,0.148,1.847,0.446
	c0.401,0.297,0.603,0.743,0.603,1.338c0,0.529-0.191,1.081-0.574,1.657c-0.382,0.576-0.951,1.18-1.706,1.813
	c-0.52,0.434-1.083,0.85-1.692,1.246c-0.608,0.396-1.258,0.774-1.947,1.133c0.406,0.68,0.77,1.253,1.091,1.72
	c0.321,0.468,0.585,0.824,0.793,1.069c0.472,0.566,0.933,0.991,1.381,1.274s0.875,0.425,1.281,0.425
	c0.435,0,0.791-0.146,1.069-0.439s0.418-0.651,0.418-1.076c0-0.34-0.069-0.595-0.206-0.765s-0.347-0.255-0.63-0.255
	c-0.217,0-0.383,0.052-0.496,0.156s-0.17,0.26-0.17,0.467c0,0.047,0.008,0.094,0.021,0.142c0.015,0.047,0.026,0.09,0.035,0.127
	l-0.722,0.227c-0.095-0.189-0.165-0.373-0.212-0.552c-0.048-0.179-0.071-0.359-0.071-0.538c0-0.491,0.177-0.897,0.531-1.218
	c0.354-0.321,0.776-0.481,1.267-0.481c0.388,0,0.732,0.071,1.034,0.212s0.562,0.349,0.778,0.623
	c0.208,0.264,0.369,0.555,0.482,0.871C177.785,28.801,177.842,29.152,177.842,29.54z M172.375,21.822
	c0-0.34-0.092-0.597-0.275-0.772c-0.184-0.174-0.46-0.262-0.827-0.262c-0.406,0-0.847,0.102-1.323,0.305
	c-0.476,0.203-0.987,0.512-1.534,0.927l-0.623,4.361c0.528-0.179,1.035-0.416,1.521-0.708c0.486-0.292,0.955-0.632,1.408-1.02
	c0.547-0.472,0.959-0.944,1.237-1.416S172.375,22.294,172.375,21.822z M172.538,15.953c0,0.34-0.085,0.593-0.255,0.758
	s-0.425,0.248-0.765,0.248c-0.33,0-0.58-0.083-0.75-0.248s-0.255-0.418-0.255-0.758s0.085-0.595,0.255-0.765s0.42-0.255,0.75-0.255
	c0.34,0,0.595,0.085,0.765,0.255S172.538,15.613,172.538,15.953z M172.935,12.441c0,0.34-0.082,0.593-0.247,0.758
	c-0.166,0.165-0.418,0.248-0.758,0.248c-0.35,0-0.609-0.083-0.779-0.248s-0.255-0.418-0.255-0.758c0-0.33,0.085-0.58,0.255-0.75
	s0.43-0.255,0.779-0.255c0.34,0,0.592,0.085,0.758,0.255C172.853,11.861,172.935,12.111,172.935,12.441z M173.176,9.17
	c0,0.34-0.083,0.592-0.248,0.757s-0.418,0.248-0.758,0.248c-0.33,0-0.58-0.083-0.75-0.248s-0.255-0.417-0.255-0.757
	c0-0.35,0.085-0.609,0.255-0.779s0.42-0.255,0.75-0.255c0.34,0,0.593,0.085,0.758,0.255S173.176,8.821,173.176,9.17z"/>
<rect id="_x3C_スライス_x3E__1_" x="11" y="6" fill="none" width="167" height="30"/>
</svg>
