<?xml version="1.0" encoding="utf-8"?>
<!-- Generator: Adobe Illustrator 15.0.0, SVG Export Plug-In  -->
<!DOCTYPE svg PUBLIC "-//W3C//DTD SVG 1.1//EN" "http://www.w3.org/Graphics/SVG/1.1/DTD/svg11.dtd" [
	<!ENTITY ns_flows "http://ns.adobe.com/Flows/1.0/">
]>
<svg version="1.1"
	 xmlns="http://www.w3.org/2000/svg" xmlns:xlink="http://www.w3.org/1999/xlink" xmlns:a="http://ns.adobe.com/AdobeSVGViewerExtensions/3.0/"
	 x="0px" y="0px" width="115px" height="31px" viewBox="10 11 115 31" enable-background="new 10 11 115 31" xml:space="preserve">
<defs>
</defs>
<rect display="none" fill="#EAEAEA" width="228" height="757"/>
<rect display="none" fill="#FFFFFF" width="228" height="50"/>
<path fill="#80CBEC" d="M26.44,25.589c0,0.887-0.13,1.704-0.389,2.45c-0.26,0.746-0.645,1.425-1.154,2.039
	c-0.547,0.661-1.173,1.156-1.876,1.487c-0.704,0.331-1.489,0.496-2.358,0.496c-0.717,0-1.369-0.087-1.954-0.262
	c-0.585-0.175-1.1-0.441-1.543-0.8c-0.472-0.377-0.826-0.84-1.062-1.388s-0.354-1.18-0.354-1.897c0-1.274,0.345-2.315,1.034-3.123
	c0.689-0.807,1.671-1.21,2.945-1.21c0.793,0,1.454,0.252,1.982,0.757c0.529,0.505,0.793,1.159,0.793,1.961
	c0,0.301-0.038,0.574-0.113,0.818c-0.076,0.244-0.184,0.475-0.326,0.691c-0.161,0.235-0.356,0.409-0.588,0.522
	c-0.231,0.113-0.493,0.17-0.786,0.17c-0.198,0-0.394-0.03-0.587-0.092c-0.194-0.062-0.38-0.148-0.56-0.262
	c0.368-0.028,0.682-0.179,0.941-0.451c0.26-0.272,0.39-0.592,0.39-0.958c0-0.434-0.111-0.76-0.333-0.977
	c-0.222-0.217-0.554-0.326-0.998-0.326c-0.292,0-0.555,0.071-0.786,0.212c-0.231,0.142-0.432,0.354-0.602,0.637
	c-0.132,0.227-0.236,0.479-0.312,0.758c-0.076,0.278-0.113,0.568-0.113,0.871c0,0.793,0.267,1.452,0.8,1.975
	c0.534,0.524,1.197,0.786,1.99,0.786c0.519,0,0.986-0.113,1.402-0.34s0.774-0.566,1.076-1.02c0.274-0.406,0.481-0.845,0.623-1.317
	s0.212-0.982,0.212-1.529c0-1.284-0.385-2.32-1.154-3.108c-0.77-0.789-1.801-1.183-3.094-1.183c-0.784,0-1.47,0.161-2.06,0.481
	c-0.59,0.321-1.093,0.797-1.508,1.428c-0.349,0.528-0.611,1.139-0.786,1.832c-0.175,0.693-0.262,1.45-0.262,2.27
	c0,0.066,0.017,0.592,0.049,1.577c0.033,0.985,0.073,2.435,0.121,4.349l-1.529,0.227l-0.028,0.864l1.586-0.071v1.048l-1.628,0.17
	l0.071,1.034l1.558-0.212l0.042,0.935l-1.671,0.283l-0.028,1.02l1.699-0.297l0.028,1.126l-4.885,1.267l2.436-22.359l2.167,0.326
	l0.255,3.441c0.557-1,1.35-1.789,2.379-2.365s2.124-0.864,3.285-0.864c0.869,0,1.647,0.148,2.336,0.446
	c0.689,0.297,1.284,0.738,1.784,1.324c0.481,0.566,0.842,1.208,1.083,1.926C26.319,23.899,26.44,24.702,26.44,25.589z"/>
<path fill="#80CBEC" d="M42.908,30.595l-0.014,0.764c-1.463,0.664-2.91,1.158-4.34,1.485c-1.43,0.327-2.844,0.49-4.241,0.49
	c-0.774,0-1.482-0.076-2.124-0.227s-1.218-0.373-1.728-0.666c-0.604-0.349-1.06-0.798-1.367-1.345
	c-0.307-0.547-0.46-1.185-0.46-1.912c0-1.284,0.645-2.431,1.935-3.441c1.29-1.01,3.215-1.883,5.775-2.62
	c-0.208-0.604-0.559-1.062-1.055-1.374s-1.126-0.467-1.891-0.467c-0.821,0-1.567,0.167-2.237,0.502
	c-0.67,0.335-1.265,0.829-1.784,1.48l-0.757-0.729c0.793-1.216,1.775-2.132,2.945-2.749s2.535-0.926,4.092-0.926
	c1.265,0,2.376,0.352,3.335,1.055c0.958,0.703,1.768,1.757,2.428,3.163c0.519,1.104,0.904,2.281,1.154,3.531
	C42.826,27.861,42.937,29.189,42.908,30.595z M37.343,29.554c0-0.859-0.04-1.708-0.119-2.549s-0.202-1.671-0.37-2.492
	c-0.889,0.255-1.69,0.526-2.404,0.814c-0.714,0.288-1.336,0.593-1.865,0.914l1.452,5.848c0.753,0,1.403-0.042,1.95-0.127
	s0.984-0.222,1.314-0.411c0.019-0.34,0.031-0.675,0.035-1.005C37.341,30.214,37.343,29.884,37.343,29.554z M40.706,25.667
	c0-0.34-0.083-0.595-0.248-0.765s-0.417-0.255-0.757-0.255s-0.597,0.085-0.772,0.255s-0.262,0.425-0.262,0.765
	s0.087,0.593,0.262,0.758s0.432,0.248,0.772,0.248s0.592-0.083,0.757-0.248S40.706,26.006,40.706,25.667z M41.287,29.49
	c0-0.358-0.125-0.665-0.375-0.92s-0.559-0.383-0.927-0.383c-0.359,0-0.668,0.123-0.928,0.368c-0.26,0.246-0.39,0.557-0.39,0.935
	c0,0.368,0.13,0.675,0.39,0.921c0.26,0.245,0.569,0.368,0.928,0.368c0.368,0,0.677-0.125,0.927-0.375S41.287,29.849,41.287,29.49z"
	/>
<path fill="#80CBEC" d="M51.022,33.688l-5.961-0.772l2.209-13.785h2.662L51.022,33.688z M51.503,15.719l-0.354,0.864l-1.232-0.637
	c-0.132,0.17-0.278,0.307-0.439,0.411s-0.34,0.179-0.538,0.227l0.283,1.161l-0.963,0.142l-0.241-1.218
	c-0.151-0.028-0.3-0.083-0.446-0.163c-0.146-0.081-0.286-0.172-0.418-0.276l-0.935,0.864l-0.651-0.75l1.09-0.793
	c-0.094-0.179-0.149-0.368-0.163-0.566c-0.015-0.198,0.002-0.411,0.049-0.637l-1.26-0.793l0.467-0.765l1.161,0.793
	c0.113-0.142,0.243-0.262,0.389-0.361c0.146-0.1,0.314-0.177,0.503-0.234l-0.241-1.671h0.906l0.057,1.558
	c0.208,0.028,0.396,0.076,0.566,0.142s0.331,0.151,0.481,0.255l0.991-0.793l0.651,0.651l-1.133,0.765
	c0.076,0.104,0.127,0.264,0.156,0.481s0.038,0.491,0.028,0.821L51.503,15.719z M49.344,30.212c0-0.359-0.127-0.666-0.382-0.921
	s-0.566-0.382-0.935-0.382c-0.35,0-0.651,0.127-0.906,0.382s-0.383,0.562-0.383,0.921c0,0.358,0.128,0.663,0.383,0.913
	s0.557,0.375,0.906,0.375c0.368,0,0.68-0.125,0.935-0.375S49.344,30.571,49.344,30.212z M49.344,26.375
	c0-0.33-0.083-0.58-0.248-0.75s-0.417-0.255-0.757-0.255c-0.35,0-0.609,0.085-0.779,0.255s-0.255,0.42-0.255,0.75
	c0,0.34,0.085,0.595,0.255,0.765s0.43,0.255,0.779,0.255c0.34,0,0.592-0.085,0.757-0.255S49.344,26.714,49.344,26.375z"/>
<path fill="#80CBEC" d="M69.388,31.5l-5.452,0.97c0.076-2.889,0.127-4.859,0.156-5.912c0.028-1.053,0.042-1.711,0.042-1.976
	c0-0.878-0.142-1.536-0.425-1.976c-0.283-0.438-0.713-0.658-1.289-0.658c-0.538,0-1.102,0.243-1.692,0.729
	c-0.59,0.486-1.206,1.214-1.848,2.186l-0.411,7.33l-2.563,0.347l-1.515-12.985l4.843-1.02l-0.212,4.078
	c0.699-0.935,1.439-1.64,2.223-2.117c0.784-0.477,1.605-0.715,2.464-0.715c1.133,0,2.06,0.425,2.783,1.274
	c0.722,0.849,1.253,2.127,1.593,3.835L69.388,31.5z M67.051,25.95c0-0.292-0.076-0.517-0.227-0.672s-0.377-0.234-0.68-0.234
	s-0.531,0.078-0.687,0.234c-0.155,0.156-0.233,0.38-0.233,0.672c0,0.312,0.078,0.545,0.233,0.701
	c0.156,0.156,0.385,0.233,0.687,0.233s0.529-0.078,0.68-0.233S67.051,26.261,67.051,25.95z M67.575,29.405
	c0-0.321-0.118-0.592-0.354-0.814s-0.51-0.333-0.821-0.333c-0.396,0-0.691,0.097-0.885,0.29c-0.193,0.193-0.29,0.479-0.29,0.856
	c0,0.387,0.097,0.678,0.29,0.871c0.194,0.193,0.489,0.29,0.885,0.29c0.312,0,0.585-0.111,0.821-0.333S67.575,29.735,67.575,29.405z"
	/>
<path fill="#80CBEC" d="M81.339,19.996l-0.212,1.473l-2.832,0.212l-0.212,1.699l3.044,0.085l-0.581,2.011l-2.705-0.17l-1.062,7.802
	l-2.082,0.368l-0.269-8.425l-2.549-0.184l0.425-1.6l2.096,0.042l-0.071-1.331l-2.705,0.212l-0.609-2.195h3.243l-0.142-4.928
	l5.211-0.595l-0.765,5.522H81.339z M77.664,17.737c0-0.387-0.097-0.677-0.29-0.871s-0.484-0.291-0.871-0.291
	c-0.387,0-0.677,0.097-0.871,0.291s-0.291,0.484-0.291,0.871c0,0.396,0.097,0.692,0.291,0.885s0.484,0.291,0.871,0.291
	c0.387,0,0.678-0.097,0.871-0.291S77.664,18.133,77.664,17.737z M77.154,21.22c0-0.312-0.073-0.542-0.219-0.693
	c-0.146-0.151-0.371-0.227-0.672-0.227c-0.312,0-0.543,0.075-0.694,0.227c-0.151,0.151-0.227,0.382-0.227,0.693
	c0,0.302,0.076,0.526,0.227,0.673c0.151,0.146,0.383,0.22,0.694,0.22c0.302,0,0.526-0.073,0.672-0.22S77.154,21.522,77.154,21.22z"
	/>
<path fill="#80CBEC" d="M89.283,33.688l-5.962-0.772l2.209-13.785h2.662L89.283,33.688z M89.764,15.719l-0.354,0.864l-1.232-0.637
	c-0.132,0.17-0.278,0.307-0.438,0.411s-0.34,0.179-0.538,0.227l0.283,1.161l-0.963,0.142l-0.24-1.218
	c-0.151-0.028-0.3-0.083-0.446-0.163c-0.146-0.081-0.286-0.172-0.418-0.276l-0.935,0.864l-0.651-0.75l1.09-0.793
	c-0.094-0.179-0.149-0.368-0.163-0.566c-0.015-0.198,0.002-0.411,0.049-0.637l-1.26-0.793l0.467-0.765l1.161,0.793
	c0.113-0.142,0.243-0.262,0.39-0.361c0.146-0.1,0.314-0.177,0.503-0.234l-0.24-1.671h0.906l0.057,1.558
	c0.207,0.028,0.396,0.076,0.566,0.142s0.33,0.151,0.48,0.255l0.992-0.793l0.65,0.651l-1.133,0.765
	c0.076,0.104,0.128,0.264,0.156,0.481s0.038,0.491,0.028,0.821L89.764,15.719z M87.604,30.212c0-0.359-0.127-0.666-0.382-0.921
	s-0.566-0.382-0.935-0.382c-0.35,0-0.651,0.127-0.906,0.382s-0.383,0.562-0.383,0.921c0,0.358,0.128,0.663,0.383,0.913
	s0.557,0.375,0.906,0.375c0.368,0,0.68-0.125,0.935-0.375S87.604,30.571,87.604,30.212z M87.604,26.375
	c0-0.33-0.082-0.58-0.247-0.75c-0.166-0.17-0.418-0.255-0.758-0.255c-0.35,0-0.609,0.085-0.779,0.255s-0.255,0.42-0.255,0.75
	c0,0.34,0.085,0.595,0.255,0.765s0.43,0.255,0.779,0.255c0.34,0,0.592-0.085,0.758-0.255C87.522,26.969,87.604,26.714,87.604,26.375
	z"/>
<path fill="#80CBEC" d="M107.648,31.5l-5.451,0.97c0.075-2.889,0.127-4.859,0.156-5.912c0.027-1.053,0.042-1.711,0.042-1.976
	c0-0.878-0.142-1.536-0.425-1.976c-0.283-0.438-0.713-0.658-1.289-0.658c-0.537,0-1.102,0.243-1.691,0.729s-1.206,1.214-1.848,2.186
	l-0.411,7.33l-2.563,0.347l-1.515-12.985l4.843-1.02l-0.213,4.078c0.699-0.935,1.44-1.64,2.224-2.117
	c0.783-0.477,1.604-0.715,2.464-0.715c1.133,0,2.061,0.425,2.782,1.274c0.723,0.849,1.253,2.127,1.593,3.835L107.648,31.5z
	 M105.313,25.95c0-0.292-0.075-0.517-0.227-0.672s-0.378-0.234-0.68-0.234s-0.531,0.078-0.687,0.234
	c-0.156,0.156-0.233,0.38-0.233,0.672c0,0.312,0.077,0.545,0.233,0.701c0.155,0.156,0.385,0.233,0.687,0.233s0.528-0.078,0.68-0.233
	S105.313,26.261,105.313,25.95z M105.836,29.405c0-0.321-0.117-0.592-0.354-0.814s-0.51-0.333-0.821-0.333
	c-0.396,0-0.691,0.097-0.885,0.29s-0.29,0.479-0.29,0.856c0,0.387,0.097,0.678,0.29,0.871s0.488,0.29,0.885,0.29
	c0.312,0,0.585-0.111,0.821-0.333S105.836,29.735,105.836,29.405z"/>
<path fill="#80CBEC" d="M124.379,18.65l-0.1,1.204l-1.643-0.071l-0.142,1.175l1.657,0.142l-0.1,1.487l-1.869-0.212l0.028,1.204
	l1.699,0.283l-0.113,1.303l-1.756-0.142l-0.07,1.289l1.728,0.227c-0.388,4.692-1.221,8.208-2.5,10.549
	c-1.278,2.341-3.004,3.512-5.175,3.512c-0.757,0-1.473-0.146-2.147-0.438c-0.676-0.292-1.321-0.73-1.936-1.315
	c-0.567-0.538-1.04-1.132-1.418-1.782c-0.378-0.651-0.676-1.362-0.893-2.136l1.026-0.658c0.246,0.472,0.526,0.899,0.843,1.281
	c0.316,0.383,0.663,0.729,1.041,1.041c0.453,0.368,0.908,0.64,1.366,0.814c0.458,0.174,0.913,0.262,1.366,0.262
	c0.707,0,1.326-0.205,1.859-0.616c0.532-0.41,0.982-1.031,1.35-1.862c0.255-0.576,0.462-1.227,0.622-1.954s0.264-1.52,0.312-2.379
	c-0.481,0.312-0.994,0.543-1.541,0.694c-0.546,0.151-1.125,0.227-1.737,0.227c-1.777,0-3.301-0.623-4.572-1.869
	c-1.271-1.246-1.906-2.756-1.906-4.531c0-1.765,0.636-3.271,1.906-4.517c1.271-1.246,2.795-1.869,4.572-1.869
	c0.716,0,1.395,0.106,2.035,0.319c0.641,0.212,1.239,0.521,1.796,0.927l0.1-2.167L124.379,18.65z M119.55,25.405
	c0-0.453-0.057-0.88-0.17-1.281c-0.113-0.401-0.288-0.786-0.523-1.154c-0.255-0.396-0.56-0.694-0.913-0.892
	c-0.354-0.198-0.749-0.297-1.183-0.297c-0.521,0-0.996,0.127-1.426,0.382c-0.431,0.255-0.821,0.642-1.171,1.161
	c-0.313,0.462-0.544,0.946-0.695,1.452c-0.151,0.505-0.227,1.026-0.227,1.564c0,0.462,0.054,0.899,0.162,1.31
	c0.108,0.411,0.276,0.786,0.503,1.126c0.273,0.406,0.585,0.708,0.935,0.906s0.741,0.297,1.176,0.297c0.51,0,0.985-0.13,1.426-0.389
	c0.439-0.26,0.83-0.649,1.17-1.168c0.303-0.462,0.535-0.944,0.695-1.444C119.47,26.476,119.55,25.952,119.55,25.405z
	 M118.205,25.751c0,0.481-0.173,0.897-0.518,1.246c-0.344,0.35-0.767,0.524-1.267,0.524c-0.473,0-0.878-0.177-1.218-0.531
	s-0.51-0.767-0.51-1.239c0-0.472,0.175-0.88,0.523-1.225c0.35-0.345,0.751-0.517,1.204-0.517c0.481,0,0.899,0.17,1.253,0.51
	S118.205,25.27,118.205,25.751z"/>
<rect id="_x3C_スライス_x3E__1_" x="10" y="11" fill="none" width="115" height="31"/>
</svg>
