<?xml version="1.0" encoding="utf-8"?>
<!-- Generator: Adobe Illustrator 15.0.0, SVG Export Plug-In  -->
<!DOCTYPE svg PUBLIC "-//W3C//DTD SVG 1.1//EN" "http://www.w3.org/Graphics/SVG/1.1/DTD/svg11.dtd" [
	<!ENTITY ns_flows "http://ns.adobe.com/Flows/1.0/">
]>
<svg version="1.1"
	 xmlns="http://www.w3.org/2000/svg" xmlns:xlink="http://www.w3.org/1999/xlink" xmlns:a="http://ns.adobe.com/AdobeSVGViewerExtensions/3.0/"
	 x="0px" y="0px" width="84px" height="36px" viewBox="10 6 84 36" enable-background="new 10 6 84 36" xml:space="preserve">
<defs>
</defs>
<rect display="none" fill="#EAEAEA" width="228" height="757"/>
<rect display="none" fill="#FFFFFF" width="228" height="50"/>
<path fill="#80CBEC" d="M26.44,25.589c0,0.887-0.13,1.704-0.389,2.45c-0.26,0.746-0.645,1.425-1.154,2.039
	c-0.547,0.661-1.173,1.156-1.876,1.487c-0.704,0.331-1.489,0.496-2.358,0.496c-0.717,0-1.369-0.087-1.954-0.262
	c-0.585-0.175-1.1-0.441-1.543-0.8c-0.472-0.377-0.826-0.84-1.062-1.388s-0.354-1.18-0.354-1.897c0-1.274,0.345-2.315,1.034-3.123
	c0.689-0.807,1.671-1.21,2.945-1.21c0.793,0,1.454,0.252,1.982,0.757c0.529,0.505,0.793,1.159,0.793,1.961
	c0,0.301-0.038,0.574-0.113,0.818c-0.076,0.244-0.184,0.475-0.326,0.691c-0.161,0.235-0.356,0.409-0.588,0.522
	c-0.231,0.113-0.493,0.17-0.786,0.17c-0.198,0-0.394-0.03-0.587-0.092c-0.194-0.062-0.38-0.148-0.56-0.262
	c0.368-0.028,0.682-0.179,0.941-0.451c0.26-0.272,0.39-0.592,0.39-0.958c0-0.434-0.111-0.76-0.333-0.977
	c-0.222-0.217-0.554-0.326-0.998-0.326c-0.292,0-0.555,0.071-0.786,0.212c-0.231,0.142-0.432,0.354-0.602,0.637
	c-0.132,0.227-0.236,0.479-0.312,0.758c-0.076,0.278-0.113,0.568-0.113,0.871c0,0.793,0.267,1.452,0.8,1.975
	c0.534,0.524,1.197,0.786,1.99,0.786c0.519,0,0.986-0.113,1.402-0.34s0.774-0.566,1.076-1.02c0.274-0.406,0.481-0.845,0.623-1.317
	s0.212-0.982,0.212-1.529c0-1.284-0.385-2.32-1.154-3.108c-0.77-0.789-1.801-1.183-3.094-1.183c-0.784,0-1.47,0.161-2.06,0.481
	c-0.59,0.321-1.093,0.797-1.508,1.428c-0.349,0.528-0.611,1.139-0.786,1.832c-0.175,0.693-0.262,1.45-0.262,2.27
	c0,0.066,0.017,0.592,0.049,1.577c0.033,0.985,0.073,2.435,0.121,4.349l-1.529,0.227l-0.028,0.864l1.586-0.071v1.048l-1.628,0.17
	l0.071,1.034l1.558-0.212l0.042,0.935l-1.671,0.283l-0.028,1.02l1.699-0.297l0.028,1.126l-4.885,1.267l2.436-22.359l2.167,0.326
	l0.255,3.441c0.557-1,1.35-1.789,2.379-2.365s2.124-0.864,3.285-0.864c0.869,0,1.647,0.148,2.336,0.446
	c0.689,0.297,1.284,0.738,1.784,1.324c0.481,0.566,0.842,1.208,1.083,1.926C26.319,23.899,26.44,24.702,26.44,25.589z"/>
<path fill="#80CBEC" d="M45.004,29.115c0,0.236,0,0.562,0,0.977s-0.005,0.925-0.014,1.529l-5.353,0.878
	c0.377-1.624,0.661-3.108,0.85-4.454c0.189-1.345,0.283-2.556,0.283-3.632c0-0.481-0.031-0.951-0.092-1.409
	c-0.061-0.458-0.144-0.904-0.248-1.338c-0.151-0.614-0.345-1.076-0.581-1.388s-0.515-0.467-0.835-0.467
	c-0.547,0-1.114,0.149-1.699,0.446c-0.585,0.297-1.199,0.738-1.841,1.323L35.12,32.082l-4.262,0.814l-0.283-1.119l1.869-0.269
	l-0.142-1.869l-1.869,0.283l-0.198-1.005l1.997-0.212l-0.17-2.322l-1.855,0.227l-0.142-1.02l1.926-0.184l-0.198-2.407l-1.728,0.269
	L29.81,22.19l1.869-0.241l-0.142-1.954l-1.685,0.354l-0.212-1.218l1.798-0.212l-0.212-2.761l-1.558,0.283l-0.184-1.104l1.671-0.34
	l-0.227-2.733l-1.444,0.312l-0.255-1.147l1.586-0.368l-0.142-1.897L29.13,9.715l-0.34-1.289l7.236-1.77l-0.481,12.829
	c0.708-0.538,1.418-0.939,2.131-1.204c0.713-0.264,1.428-0.396,2.146-0.396c1.114,0,2.051,0.356,2.811,1.069
	c0.76,0.713,1.333,1.777,1.721,3.193c0.217,0.793,0.38,1.77,0.488,2.931C44.95,26.24,45.004,27.585,45.004,29.115z M39.786,22.608
	c-0.595,1.199-1.093,2.419-1.494,3.661s-0.706,2.504-0.913,3.788l-1.317-0.495c0.416-1.482,0.89-2.856,1.423-4.121
	c0.533-1.265,1.13-2.421,1.792-3.469L39.786,22.608z"/>
<path fill="#80CBEC" d="M63.929,24.449l-1.777,0.481c0.028,0.18,0.052,0.371,0.071,0.574s0.028,0.417,0.028,0.644
	c0,0.34-0.023,0.675-0.071,1.006c-0.047,0.33-0.118,0.661-0.212,0.991l1.423,0.651l-0.723,1.249l-1.12-0.795
	c-0.359,0.767-0.823,1.415-1.39,1.945c-0.567,0.53-1.238,0.951-2.013,1.263l0.396,1.69l-1.299,0.325l-0.254-1.664
	c-0.283,0.047-0.53,0.083-0.742,0.106c-0.212,0.024-0.393,0.036-0.543,0.036c-0.567,0-1.123-0.071-1.667-0.212
	s-1.065-0.363-1.566-0.666l-1.049,1.635l-1.12-0.651l1.189-1.704c-0.377-0.313-0.71-0.663-0.998-1.051
	c-0.288-0.388-0.53-0.81-0.728-1.264l-1.765,0.554l-0.254-1.208l1.607-0.354c-0.085-0.35-0.146-0.685-0.184-1.006
	c-0.038-0.321-0.057-0.613-0.057-0.878c0-0.292,0.017-0.578,0.05-0.856c0.033-0.278,0.087-0.545,0.163-0.8l-1.579-0.51l0.325-1.218
	l1.625,0.68c0.227-0.576,0.521-1.1,0.883-1.572c0.363-0.472,0.79-0.887,1.281-1.246l-0.949-1.486L52,18.388l0.936,1.593
	c0.435-0.208,0.882-0.363,1.34-0.467c0.458-0.104,0.934-0.156,1.426-0.156c0.49,0,0.954,0.049,1.392,0.149
	c0.438,0.099,0.86,0.243,1.266,0.432l0.75-1.353l1.103,0.623l-0.765,1.374c0.557,0.406,1.034,0.873,1.432,1.401
	c0.397,0.529,0.728,1.124,0.993,1.784l1.731-0.765L63.929,24.449z M58.286,26.148c0-0.594-0.057-1.14-0.17-1.64
	c-0.113-0.5-0.296-0.957-0.551-1.372c-0.301-0.5-0.659-0.874-1.074-1.124c-0.415-0.25-0.899-0.375-1.456-0.375
	c-0.539,0-1.021,0.125-1.447,0.375c-0.426,0.25-0.785,0.629-1.079,1.138c-0.246,0.415-0.428,0.875-0.546,1.378
	c-0.118,0.504-0.177,1.044-0.177,1.619c0,0.615,0.059,1.175,0.177,1.681c0.118,0.506,0.295,0.962,0.532,1.369
	c0.293,0.511,0.653,0.889,1.079,1.135c0.426,0.246,0.913,0.369,1.461,0.369c0.565,0,1.06-0.123,1.484-0.369
	c0.424-0.246,0.777-0.624,1.06-1.135c0.226-0.406,0.4-0.863,0.523-1.369C58.225,27.323,58.286,26.763,58.286,26.148z"/>
<path fill="#80CBEC" d="M75.703,19.996l-0.212,1.473l-2.832,0.212l-0.212,1.699l3.044,0.085l-0.581,2.011l-2.705-0.17l-1.062,7.802
	l-2.082,0.368l-0.269-8.425l-2.549-0.184l0.425-1.6l2.096,0.042l-0.071-1.331l-2.705,0.212l-0.609-2.195h3.243l-0.142-4.928
	l5.211-0.595l-0.765,5.522H75.703z M72.028,17.737c0-0.387-0.097-0.677-0.29-0.871s-0.484-0.291-0.871-0.291
	c-0.387,0-0.677,0.097-0.871,0.291s-0.291,0.484-0.291,0.871c0,0.396,0.097,0.692,0.291,0.885s0.484,0.291,0.871,0.291
	c0.387,0,0.678-0.097,0.871-0.291S72.028,18.133,72.028,17.737z M71.519,21.22c0-0.312-0.073-0.542-0.219-0.693
	c-0.146-0.151-0.371-0.227-0.672-0.227c-0.312,0-0.543,0.075-0.694,0.227c-0.151,0.151-0.227,0.382-0.227,0.693
	c0,0.302,0.076,0.526,0.227,0.673c0.151,0.146,0.383,0.22,0.694,0.22c0.302,0,0.526-0.073,0.672-0.22S71.519,21.522,71.519,21.22z"
	/>
<path fill="#80CBEC" d="M93.708,24.449l-1.777,0.481c0.028,0.18,0.052,0.371,0.071,0.574c0.019,0.203,0.027,0.417,0.027,0.644
	c0,0.34-0.023,0.675-0.07,1.006c-0.047,0.33-0.118,0.661-0.213,0.991l1.424,0.651l-0.724,1.249l-1.12-0.795
	c-0.359,0.767-0.822,1.415-1.39,1.945c-0.567,0.53-1.238,0.951-2.013,1.263l0.396,1.69l-1.3,0.325l-0.254-1.664
	c-0.283,0.047-0.53,0.083-0.742,0.106c-0.212,0.024-0.394,0.036-0.544,0.036c-0.567,0-1.123-0.071-1.666-0.212
	s-1.065-0.363-1.566-0.666l-1.049,1.635l-1.12-0.651l1.189-1.704c-0.377-0.313-0.71-0.663-0.998-1.051
	c-0.288-0.388-0.53-0.81-0.728-1.264l-1.765,0.554l-0.254-1.208l1.607-0.354c-0.085-0.35-0.146-0.685-0.184-1.006
	c-0.038-0.321-0.057-0.613-0.057-0.878c0-0.292,0.017-0.578,0.049-0.856c0.033-0.278,0.087-0.545,0.163-0.8l-1.579-0.51l0.325-1.218
	l1.625,0.68c0.227-0.576,0.521-1.1,0.883-1.572c0.363-0.472,0.79-0.887,1.281-1.246l-0.949-1.486l1.092-0.751l0.936,1.593
	c0.435-0.208,0.882-0.363,1.34-0.467c0.458-0.104,0.934-0.156,1.425-0.156c0.49,0,0.954,0.049,1.393,0.149
	c0.438,0.099,0.86,0.243,1.266,0.432l0.749-1.353l1.103,0.623l-0.764,1.374c0.557,0.406,1.033,0.873,1.431,1.401
	c0.397,0.529,0.729,1.124,0.994,1.784l1.73-0.765L93.708,24.449z M88.064,26.148c0-0.594-0.057-1.14-0.169-1.64
	c-0.113-0.5-0.297-0.957-0.551-1.372c-0.302-0.5-0.66-0.874-1.074-1.124c-0.415-0.25-0.899-0.375-1.455-0.375
	c-0.54,0-1.022,0.125-1.448,0.375c-0.426,0.25-0.785,0.629-1.079,1.138c-0.246,0.415-0.428,0.875-0.546,1.378
	c-0.118,0.504-0.177,1.044-0.177,1.619c0,0.615,0.059,1.175,0.177,1.681c0.118,0.506,0.295,0.962,0.532,1.369
	c0.293,0.511,0.653,0.889,1.079,1.135c0.426,0.246,0.913,0.369,1.462,0.369c0.564,0,1.06-0.123,1.483-0.369
	c0.424-0.246,0.777-0.624,1.06-1.135c0.227-0.406,0.4-0.863,0.522-1.369C88.004,27.323,88.064,26.763,88.064,26.148z"/>
<rect id="_x3C_スライス_x3E__1_" x="10" y="6" fill="none" width="84" height="36"/>
</svg>
