<?xml version="1.0" encoding="utf-8"?>
<!-- Generator: Adobe Illustrator 15.0.0, SVG Export Plug-In  -->
<!DOCTYPE svg PUBLIC "-//W3C//DTD SVG 1.1//EN" "http://www.w3.org/Graphics/SVG/1.1/DTD/svg11.dtd" [
	<!ENTITY ns_flows "http://ns.adobe.com/Flows/1.0/">
]>
<svg version="1.1"
	 xmlns="http://www.w3.org/2000/svg" xmlns:xlink="http://www.w3.org/1999/xlink" xmlns:a="http://ns.adobe.com/AdobeSVGViewerExtensions/3.0/"
	 x="0px" y="0px" width="104px" height="31px" viewBox="10 11 104 31" enable-background="new 10 11 104 31" xml:space="preserve">
<defs>
</defs>
<rect display="none" fill="#EAEAEA" width="228" height="757"/>
<rect display="none" fill="#FFFFFF" width="228" height="50"/>
<path fill="#80CBEC" d="M26.44,25.589c0,0.887-0.13,1.704-0.389,2.45c-0.26,0.746-0.645,1.425-1.154,2.039
	c-0.547,0.661-1.173,1.156-1.876,1.487c-0.704,0.331-1.489,0.496-2.358,0.496c-0.717,0-1.369-0.087-1.954-0.262
	c-0.585-0.175-1.1-0.441-1.543-0.8c-0.472-0.377-0.826-0.84-1.062-1.388s-0.354-1.18-0.354-1.897c0-1.274,0.345-2.315,1.034-3.123
	c0.689-0.807,1.671-1.21,2.945-1.21c0.793,0,1.454,0.252,1.982,0.757c0.529,0.505,0.793,1.159,0.793,1.961
	c0,0.301-0.038,0.574-0.113,0.818c-0.076,0.244-0.184,0.475-0.326,0.691c-0.161,0.235-0.356,0.409-0.588,0.522
	c-0.231,0.113-0.493,0.17-0.786,0.17c-0.198,0-0.394-0.03-0.587-0.092c-0.194-0.062-0.38-0.148-0.56-0.262
	c0.368-0.028,0.682-0.179,0.941-0.451c0.26-0.272,0.39-0.592,0.39-0.958c0-0.434-0.111-0.76-0.333-0.977
	c-0.222-0.217-0.554-0.326-0.998-0.326c-0.292,0-0.555,0.071-0.786,0.212c-0.231,0.142-0.432,0.354-0.602,0.637
	c-0.132,0.227-0.236,0.479-0.312,0.758c-0.076,0.278-0.113,0.568-0.113,0.871c0,0.793,0.267,1.452,0.8,1.975
	c0.534,0.524,1.197,0.786,1.99,0.786c0.519,0,0.986-0.113,1.402-0.34s0.774-0.566,1.076-1.02c0.274-0.406,0.481-0.845,0.623-1.317
	s0.212-0.982,0.212-1.529c0-1.284-0.385-2.32-1.154-3.108c-0.77-0.789-1.801-1.183-3.094-1.183c-0.784,0-1.47,0.161-2.06,0.481
	c-0.59,0.321-1.093,0.797-1.508,1.428c-0.349,0.528-0.611,1.139-0.786,1.832c-0.175,0.693-0.262,1.45-0.262,2.27
	c0,0.066,0.017,0.592,0.049,1.577c0.033,0.985,0.073,2.435,0.121,4.349l-1.529,0.227l-0.028,0.864l1.586-0.071v1.048l-1.628,0.17
	l0.071,1.034l1.558-0.212l0.042,0.935l-1.671,0.283l-0.028,1.02l1.699-0.297l0.028,1.126l-4.885,1.267l2.436-22.359l2.167,0.326
	l0.255,3.441c0.557-1,1.35-1.789,2.379-2.365s2.124-0.864,3.285-0.864c0.869,0,1.647,0.148,2.336,0.446
	c0.689,0.297,1.284,0.738,1.784,1.324c0.481,0.566,0.842,1.208,1.083,1.926C26.319,23.899,26.44,24.702,26.44,25.589z"/>
<path fill="#80CBEC" d="M34.752,33.688l-5.961-0.772L31,19.132h2.662L34.752,33.688z M35.233,15.719l-0.354,0.864l-1.232-0.637
	c-0.132,0.17-0.278,0.307-0.439,0.411s-0.34,0.179-0.538,0.227l0.283,1.161l-0.963,0.142l-0.241-1.218
	c-0.151-0.028-0.3-0.083-0.446-0.163c-0.146-0.081-0.285-0.172-0.417-0.276l-0.935,0.864l-0.651-0.75l1.09-0.793
	c-0.094-0.179-0.148-0.368-0.163-0.566c-0.014-0.198,0.002-0.411,0.05-0.637l-1.26-0.793l0.467-0.765l1.161,0.793
	c0.113-0.142,0.243-0.262,0.39-0.361c0.146-0.1,0.313-0.177,0.502-0.234l-0.241-1.671h0.906l0.057,1.558
	c0.208,0.028,0.396,0.076,0.566,0.142s0.331,0.151,0.481,0.255l0.991-0.793l0.651,0.651l-1.133,0.765
	c0.076,0.104,0.127,0.264,0.156,0.481s0.038,0.491,0.028,0.821L35.233,15.719z M33.074,30.212c0-0.359-0.128-0.666-0.383-0.921
	s-0.566-0.382-0.935-0.382c-0.349,0-0.651,0.127-0.906,0.382s-0.382,0.562-0.382,0.921c0,0.358,0.127,0.663,0.382,0.913
	s0.557,0.375,0.906,0.375c0.368,0,0.68-0.125,0.935-0.375S33.074,30.571,33.074,30.212z M33.074,26.375
	c0-0.33-0.083-0.58-0.248-0.75s-0.418-0.255-0.758-0.255c-0.349,0-0.608,0.085-0.778,0.255s-0.255,0.42-0.255,0.75
	c0,0.34,0.085,0.595,0.255,0.765s0.429,0.255,0.778,0.255c0.34,0,0.593-0.085,0.758-0.255S33.074,26.714,33.074,26.375z"/>
<path fill="#80CBEC" d="M51.135,29.037c-0.896,1.197-1.883,2.092-2.963,2.686c-1.08,0.593-2.256,0.89-3.529,0.89
	c-1.975,0-3.584-0.606-4.826-1.82c-1.243-1.213-1.864-2.801-1.864-4.765c0-1.935,0.708-3.613,2.126-5.034
	c1.417-1.42,3.09-2.131,5.018-2.131c0.575,0,1.105,0.047,1.591,0.142c0.485,0.094,0.921,0.235,1.308,0.423
	c0.519,0.245,0.905,0.556,1.159,0.932c0.254,0.377,0.382,0.815,0.382,1.313c0,0.464-0.191,0.923-0.572,1.377
	c-0.381,0.454-0.958,0.904-1.729,1.349l-0.616-0.587c0.198-0.198,0.361-0.403,0.488-0.615c0.128-0.212,0.215-0.431,0.262-0.658
	l-1.685-0.424l0.198-0.607l1.529,0.212c-0.028-0.235-0.111-0.447-0.247-0.636s-0.327-0.354-0.572-0.495
	c-0.207-0.123-0.426-0.212-0.656-0.269s-0.473-0.085-0.727-0.085c-0.132,0-0.272,0.007-0.418,0.021
	c-0.146,0.015-0.295,0.031-0.447,0.05l0.327,2.209l-0.653,0.156l-0.582-1.926c-0.435,0.198-0.811,0.481-1.127,0.85
	c-0.317,0.368-0.57,0.812-0.759,1.331l1.958,0.581l-0.284,0.722l-1.929-0.481c-0.076,0.217-0.135,0.474-0.177,0.772
	c-0.043,0.297-0.064,0.639-0.064,1.026c0,0.179,0.009,0.352,0.028,0.517c0.019,0.166,0.047,0.324,0.085,0.475l1.613-0.552
	l0.439,0.835l-1.854,0.651c0.084,0.283,0.217,0.573,0.396,0.871c0.179,0.297,0.401,0.606,0.665,0.927l1.288-1.005l0.623,0.51
	l-1.118,1.076c0.311,0.246,0.662,0.427,1.054,0.545c0.391,0.118,0.837,0.177,1.337,0.177l0.127-1.657h0.735l0.142,1.628
	c0.339-0.028,0.672-0.097,0.998-0.206c0.326-0.108,0.653-0.257,0.983-0.446l-0.509-1.416l0.651-0.241l0.552,1.147
	c0.16-0.123,0.328-0.271,0.502-0.446c0.174-0.175,0.351-0.375,0.531-0.602L51.135,29.037z"/>
<path fill="#80CBEC" d="M62.732,19.996l-0.212,1.473l-2.832,0.212l-0.212,1.699l3.044,0.085l-0.581,2.011l-2.705-0.17l-1.062,7.802
	l-2.082,0.368l-0.269-8.425l-2.549-0.184l0.425-1.6l2.096,0.042l-0.071-1.331l-2.705,0.212l-0.609-2.195h3.243l-0.142-4.928
	l5.211-0.595l-0.765,5.522H62.732z M59.058,17.737c0-0.387-0.097-0.677-0.29-0.871s-0.484-0.291-0.871-0.291
	c-0.387,0-0.677,0.097-0.871,0.291s-0.291,0.484-0.291,0.871c0,0.396,0.097,0.692,0.291,0.885s0.484,0.291,0.871,0.291
	c0.387,0,0.678-0.097,0.871-0.291S59.058,18.133,59.058,17.737z M58.548,21.22c0-0.312-0.073-0.542-0.219-0.693
	c-0.146-0.151-0.371-0.227-0.672-0.227c-0.312,0-0.543,0.075-0.694,0.227c-0.151,0.151-0.227,0.382-0.227,0.693
	c0,0.302,0.076,0.526,0.227,0.673c0.151,0.146,0.383,0.22,0.694,0.22c0.302,0,0.526-0.073,0.672-0.22S58.548,21.522,58.548,21.22z"
	/>
<path fill="#80CBEC" d="M79.541,32.966l-4.701-0.63l0.396-3.312c-0.708,1.05-1.468,1.834-2.28,2.354
	c-0.812,0.521-1.676,0.78-2.591,0.78c-1.133,0-2.063-0.42-2.79-1.259c-0.727-0.84-1.255-2.104-1.586-3.793l1.119-0.283l-0.071-1.005
	l-1.232,0.354l-0.241-1.302l1.246-0.354l-0.071-0.935l-1.374,0.312l-0.283-1.415l1.444-0.312l-0.142-0.976l-1.473,0.283
	l-0.198-1.089l5.395-0.942c-0.047,2.332-0.083,4.097-0.106,5.296c-0.024,1.199-0.036,1.827-0.036,1.883
	c0,1.124,0.142,1.961,0.425,2.514c0.283,0.552,0.708,0.828,1.274,0.828c0.604,0,1.232-0.293,1.883-0.879s1.322-1.46,2.011-2.623
	l0.765-6.609l2.591-0.142L79.541,32.966z M74.407,20.852c-0.528,1.095-0.975,2.2-1.338,3.313c-0.363,1.114-0.64,2.237-0.828,3.37
	l-1.147-0.481c0.378-1.312,0.808-2.539,1.289-3.682c0.481-1.142,1.015-2.19,1.6-3.144L74.407,20.852z"/>
<path fill="#80CBEC" d="M96.88,21.093l-1.374,0.51c0,0.075,0.005,0.188,0.015,0.34c0.009,0.151,0.014,0.269,0.014,0.354
	c0,0.246-0.025,0.475-0.077,0.687c-0.053,0.212-0.13,0.408-0.234,0.587l1.218,0.864l-0.766,0.757l-1.079-0.871
	c-0.151,0.142-0.324,0.275-0.518,0.399c-0.194,0.124-0.409,0.248-0.646,0.372l-0.724-0.998c0.151-0.188,0.263-0.376,0.333-0.565
	c0.071-0.188,0.106-0.376,0.106-0.564c0-0.386-0.132-0.678-0.396-0.875c-0.265-0.197-0.661-0.296-1.189-0.296
	c-0.585,0-1.208,0.314-1.869,0.942c-0.661,0.627-1.359,1.564-2.096,2.811l0.213,7.788l-4.857-0.729l2.202-13.324l2.244-0.46
	l0.113,4.177c0.302-0.425,0.595-0.802,0.878-1.133s0.557-0.618,0.821-0.864l-0.608-1.374l0.963-0.496l0.51,1.175
	c0.33-0.198,0.667-0.366,1.012-0.503c0.345-0.137,0.696-0.233,1.055-0.29l0.043-1.416l1.033,0.099l-0.212,1.289
	c0.529,0.028,0.981,0.148,1.354,0.359c0.374,0.212,0.66,0.51,0.859,0.896l1.291-0.677L96.88,21.093z M86.642,30.354
	c0-0.331-0.11-0.611-0.333-0.843c-0.222-0.231-0.493-0.347-0.813-0.347c-0.312,0-0.583,0.115-0.814,0.347s-0.347,0.512-0.347,0.843
	c0,0.387,0.097,0.675,0.29,0.863c0.193,0.189,0.483,0.283,0.871,0.283c0.396,0,0.687-0.094,0.87-0.283
	C86.55,31.029,86.642,30.741,86.642,30.354z M86.713,26.884c0-0.292-0.076-0.517-0.227-0.672c-0.151-0.156-0.388-0.234-0.708-0.234
	c-0.293,0-0.515,0.078-0.666,0.234c-0.151,0.156-0.227,0.38-0.227,0.672c0,0.302,0.076,0.526,0.227,0.673
	c0.151,0.146,0.373,0.22,0.666,0.22c0.32,0,0.557-0.073,0.708-0.22C86.637,27.411,86.713,27.187,86.713,26.884z"/>
<path fill="#80CBEC" d="M113.285,30.991c-0.236,0.236-0.449,0.445-0.638,0.629s-0.354,0.332-0.495,0.445l1.062,1.582l-0.991,0.58
	l-1.076-1.329c-0.378,0.226-0.779,0.417-1.203,0.572c-0.426,0.155-0.879,0.261-1.359,0.318l-0.029,1.671l-1.273-0.085l0.113-1.543
	c-0.435,0-0.897-0.045-1.389-0.134c-0.49-0.09-1.005-0.225-1.543-0.404l-0.793,1.699l-1.274-0.694l0.864-1.586
	c-0.463-0.255-0.886-0.55-1.268-0.885c-0.383-0.335-0.72-0.715-1.013-1.14l-1.515,0.963l-0.638-1.005l1.657-0.864
	c-0.218-0.453-0.388-0.918-0.51-1.395c-0.123-0.477-0.203-0.965-0.241-1.465l-1.515,0.382l-0.439-1.246l1.954-0.439
	c0.047-0.529,0.128-1.005,0.241-1.43s0.259-0.802,0.438-1.133l-1.374-0.821l0.652-1.076l1.345,0.935
	c0.236-0.292,0.493-0.557,0.771-0.793s0.573-0.444,0.886-0.623l-1.162-1.685l1.275-0.623l0.934,1.798
	c0.303-0.094,0.576-0.17,0.822-0.227c0.245-0.057,0.462-0.099,0.65-0.127l0.383-1.855l1.006,0.312l-0.256,1.473
	c0.378,0,0.736,0.047,1.076,0.142c0.34,0.095,0.666,0.236,0.978,0.425l1.401-1.388l0.793,0.666l-1.33,1.446
	c0.207,0.199,0.4,0.438,0.58,0.716s0.34,0.588,0.481,0.929l1.657-0.553l0.283,1.049l-1.601,0.553
	c0.075,0.208,0.14,0.435,0.191,0.681c0.052,0.246,0.102,0.511,0.148,0.794l-6.585,1.146v0.156c0,0.688,0.073,1.336,0.22,1.945
	c0.146,0.608,0.37,1.186,0.672,1.732c0.358,0.65,0.787,1.139,1.287,1.464s1.062,0.488,1.685,0.488c0.641,0,1.315-0.17,2.022-0.51
	c0.708-0.34,1.457-0.859,2.25-1.558L113.285,30.991z M107.493,24.031c-0.038-0.416-0.191-0.727-0.46-0.935
	c-0.27-0.208-0.654-0.312-1.154-0.312c-0.613,0-1.185,0.184-1.713,0.552c-0.529,0.368-0.888,0.84-1.076,1.416L107.493,24.031z"/>
<rect id="_x3C_スライス_x3E__1_" x="10" y="11" fill="none" width="104" height="31"/>
</svg>
