<?xml version="1.0" encoding="utf-8"?>
<!-- Generator: Adobe Illustrator 15.0.0, SVG Export Plug-In  -->
<!DOCTYPE svg PUBLIC "-//W3C//DTD SVG 1.1//EN" "http://www.w3.org/Graphics/SVG/1.1/DTD/svg11.dtd" [
	<!ENTITY ns_flows "http://ns.adobe.com/Flows/1.0/">
]>
<svg version="1.1"
	 xmlns="http://www.w3.org/2000/svg" xmlns:xlink="http://www.w3.org/1999/xlink" xmlns:a="http://ns.adobe.com/AdobeSVGViewerExtensions/3.0/"
	 x="0px" y="0px" width="96px" height="35px" viewBox="10 7 96 35" enable-background="new 10 7 96 35" xml:space="preserve">
<defs>
</defs>
<rect display="none" fill="#EAEAEA" width="228" height="757"/>
<rect display="none" fill="#FFFFFF" width="228" height="50"/>
<path fill="#80CBEC" d="M26.44,25.589c0,0.887-0.13,1.704-0.389,2.45c-0.26,0.746-0.645,1.425-1.154,2.039
	c-0.547,0.661-1.173,1.156-1.876,1.487c-0.704,0.331-1.489,0.496-2.358,0.496c-0.717,0-1.369-0.087-1.954-0.262
	c-0.585-0.175-1.1-0.441-1.543-0.8c-0.472-0.377-0.826-0.84-1.062-1.388s-0.354-1.18-0.354-1.897c0-1.274,0.345-2.315,1.034-3.123
	c0.689-0.807,1.671-1.21,2.945-1.21c0.793,0,1.454,0.252,1.982,0.757c0.529,0.505,0.793,1.159,0.793,1.961
	c0,0.301-0.038,0.574-0.113,0.818c-0.076,0.244-0.184,0.475-0.326,0.691c-0.161,0.235-0.356,0.409-0.588,0.522
	c-0.231,0.113-0.493,0.17-0.786,0.17c-0.198,0-0.394-0.03-0.587-0.092c-0.194-0.062-0.38-0.148-0.56-0.262
	c0.368-0.028,0.682-0.179,0.941-0.451c0.26-0.272,0.39-0.592,0.39-0.958c0-0.434-0.111-0.76-0.333-0.977
	c-0.222-0.217-0.554-0.326-0.998-0.326c-0.292,0-0.555,0.071-0.786,0.212c-0.231,0.142-0.432,0.354-0.602,0.637
	c-0.132,0.227-0.236,0.479-0.312,0.758c-0.076,0.278-0.113,0.568-0.113,0.871c0,0.793,0.267,1.452,0.8,1.975
	c0.534,0.524,1.197,0.786,1.99,0.786c0.519,0,0.986-0.113,1.402-0.34s0.774-0.566,1.076-1.02c0.274-0.406,0.481-0.845,0.623-1.317
	s0.212-0.982,0.212-1.529c0-1.284-0.385-2.32-1.154-3.108c-0.77-0.789-1.801-1.183-3.094-1.183c-0.784,0-1.47,0.161-2.06,0.481
	c-0.59,0.321-1.093,0.797-1.508,1.428c-0.349,0.528-0.611,1.139-0.786,1.832c-0.175,0.693-0.262,1.45-0.262,2.27
	c0,0.066,0.017,0.592,0.049,1.577c0.033,0.985,0.073,2.435,0.121,4.349l-1.529,0.227l-0.028,0.864l1.586-0.071v1.048l-1.628,0.17
	l0.071,1.034l1.558-0.212l0.042,0.935l-1.671,0.283l-0.028,1.02l1.699-0.297l0.028,1.126l-4.885,1.267l2.436-22.359l2.167,0.326
	l0.255,3.441c0.557-1,1.35-1.789,2.379-2.365s2.124-0.864,3.285-0.864c0.869,0,1.647,0.148,2.336,0.446
	c0.689,0.297,1.284,0.738,1.784,1.324c0.481,0.566,0.842,1.208,1.083,1.926C26.319,23.899,26.44,24.702,26.44,25.589z"/>
<path fill="#80CBEC" d="M42.717,21.093l-1.373,0.51c0,0.075,0.004,0.188,0.014,0.34c0.01,0.151,0.015,0.269,0.015,0.354
	c0,0.246-0.026,0.475-0.078,0.687s-0.13,0.408-0.233,0.587l1.218,0.864l-0.767,0.757l-1.079-0.871
	c-0.151,0.142-0.324,0.275-0.518,0.399c-0.194,0.124-0.41,0.248-0.646,0.372l-0.723-0.998c0.151-0.188,0.262-0.376,0.333-0.565
	c0.07-0.188,0.106-0.376,0.106-0.564c0-0.386-0.132-0.678-0.396-0.875c-0.264-0.197-0.661-0.296-1.189-0.296
	c-0.585,0-1.208,0.314-1.869,0.942c-0.661,0.627-1.359,1.564-2.096,2.811l0.212,7.788l-4.857-0.729l2.202-13.324l2.245-0.46
	l0.113,4.177c0.302-0.425,0.595-0.802,0.878-1.133s0.557-0.618,0.821-0.864l-0.609-1.374l0.963-0.496l0.51,1.175
	c0.331-0.198,0.668-0.366,1.013-0.503c0.344-0.137,0.696-0.233,1.055-0.29l0.042-1.416l1.034,0.099l-0.212,1.289
	c0.53,0.028,0.981,0.148,1.355,0.359c0.374,0.212,0.66,0.51,0.858,0.896l1.291-0.677L42.717,21.093z M32.479,30.354
	c0-0.331-0.111-0.611-0.333-0.843s-0.493-0.347-0.814-0.347c-0.312,0-0.583,0.115-0.814,0.347s-0.347,0.512-0.347,0.843
	c0,0.387,0.097,0.675,0.291,0.863c0.193,0.189,0.484,0.283,0.871,0.283c0.396,0,0.687-0.094,0.871-0.283
	C32.387,31.029,32.479,30.741,32.479,30.354z M32.55,26.884c0-0.292-0.075-0.517-0.227-0.672c-0.151-0.156-0.387-0.234-0.708-0.234
	c-0.292,0-0.514,0.078-0.665,0.234c-0.151,0.156-0.227,0.38-0.227,0.672c0,0.302,0.075,0.526,0.227,0.673
	c0.151,0.146,0.373,0.22,0.665,0.22c0.321,0,0.557-0.073,0.708-0.22C32.475,27.411,32.55,27.187,32.55,26.884z"/>
<path fill="#80CBEC" d="M59.809,24.449l-1.777,0.481c0.028,0.18,0.052,0.371,0.071,0.574s0.028,0.417,0.028,0.644
	c0,0.34-0.023,0.675-0.071,1.006c-0.047,0.33-0.118,0.661-0.212,0.991l1.423,0.651l-0.724,1.249l-1.12-0.795
	c-0.359,0.767-0.823,1.415-1.39,1.945c-0.567,0.53-1.238,0.951-2.013,1.263l0.396,1.69l-1.299,0.325l-0.254-1.664
	c-0.283,0.047-0.53,0.083-0.742,0.106c-0.212,0.024-0.393,0.036-0.544,0.036c-0.567,0-1.123-0.071-1.666-0.212
	s-1.065-0.363-1.566-0.666l-1.049,1.635l-1.12-0.651l1.189-1.704c-0.377-0.313-0.71-0.663-0.998-1.051
	c-0.288-0.388-0.53-0.81-0.728-1.264l-1.765,0.554l-0.254-1.208l1.607-0.354c-0.085-0.35-0.146-0.685-0.184-1.006
	c-0.038-0.321-0.057-0.613-0.057-0.878c0-0.292,0.017-0.578,0.049-0.856c0.033-0.278,0.087-0.545,0.163-0.8l-1.579-0.51l0.325-1.218
	l1.625,0.68c0.227-0.576,0.521-1.1,0.883-1.572c0.363-0.472,0.79-0.887,1.281-1.246l-0.949-1.486l1.092-0.751l0.936,1.593
	c0.435-0.208,0.882-0.363,1.34-0.467c0.458-0.104,0.934-0.156,1.425-0.156c0.49,0,0.955,0.049,1.393,0.149
	c0.438,0.099,0.86,0.243,1.266,0.432l0.75-1.353l1.103,0.623l-0.765,1.374c0.557,0.406,1.034,0.873,1.432,1.401
	c0.397,0.529,0.728,1.124,0.993,1.784l1.731-0.765L59.809,24.449z M54.166,26.148c0-0.594-0.057-1.14-0.17-1.64
	c-0.113-0.5-0.296-0.957-0.551-1.372c-0.301-0.5-0.659-0.874-1.074-1.124c-0.415-0.25-0.899-0.375-1.455-0.375
	c-0.54,0-1.022,0.125-1.448,0.375c-0.426,0.25-0.785,0.629-1.079,1.138c-0.246,0.415-0.428,0.875-0.546,1.378
	c-0.118,0.504-0.177,1.044-0.177,1.619c0,0.615,0.059,1.175,0.177,1.681c0.118,0.506,0.295,0.962,0.532,1.369
	c0.293,0.511,0.653,0.889,1.079,1.135c0.426,0.246,0.913,0.369,1.462,0.369c0.565,0,1.06-0.123,1.483-0.369
	c0.424-0.246,0.777-0.624,1.06-1.135c0.226-0.406,0.4-0.863,0.523-1.369C54.104,27.323,54.166,26.763,54.166,26.148z"/>
<path fill="#80CBEC" d="M74.698,8.844l-1.565,2.981c-0.311-0.142-0.578-0.25-0.799-0.326s-0.398-0.113-0.53-0.113
	c-0.575,0-1.115,0.182-1.62,0.545c-0.505,0.364-0.979,0.904-1.422,1.622c-0.302,0.491-0.563,1.048-0.785,1.671
	s-0.417,1.293-0.587,2.011l3.975-0.651l-0.071,1.954l-4.202,0.453c0,0.057-0.012,0.187-0.035,0.389
	c-0.023,0.203-0.059,0.489-0.106,0.857l3.989-0.425l-0.156,1.841l-3.975,0.255l-1.004,12.595l-5.098,0.729l0.765-3.901l3.2-0.326
	l0.312-8.957l-2.549,0.184l-0.425-1.444l3.002-0.326l0.071-1.26l-2.45,0.212l-0.156-1.388l2.605-0.425
	c0.047-1.51,0.146-2.823,0.297-3.937s0.368-2.006,0.651-2.676c0.472-1.114,1.14-1.952,2.003-2.514
	c0.864-0.562,1.928-0.842,3.193-0.842c0.585,0,1.166,0.104,1.742,0.31C73.546,8.15,74.122,8.45,74.698,8.844z"/>
<path fill="#80CBEC" d="M77.756,33.688l-5.961-0.772l2.209-13.785h2.662L77.756,33.688z M78.238,15.719l-0.354,0.864l-1.232-0.637
	c-0.132,0.17-0.278,0.307-0.439,0.411s-0.34,0.179-0.538,0.227l0.283,1.161l-0.963,0.142l-0.241-1.218
	c-0.151-0.028-0.3-0.083-0.446-0.163c-0.146-0.081-0.286-0.172-0.418-0.276l-0.935,0.864l-0.651-0.75l1.09-0.793
	c-0.094-0.179-0.149-0.368-0.163-0.566c-0.015-0.198,0.002-0.411,0.049-0.637l-1.26-0.793l0.467-0.765l1.161,0.793
	c0.113-0.142,0.243-0.262,0.389-0.361c0.146-0.1,0.314-0.177,0.503-0.234l-0.241-1.671h0.906l0.057,1.558
	c0.208,0.028,0.396,0.076,0.566,0.142s0.331,0.151,0.481,0.255l0.991-0.793l0.651,0.651l-1.133,0.765
	c0.076,0.104,0.127,0.264,0.156,0.481s0.038,0.491,0.028,0.821L78.238,15.719z M76.078,30.212c0-0.359-0.127-0.666-0.382-0.921
	s-0.566-0.382-0.935-0.382c-0.35,0-0.651,0.127-0.906,0.382s-0.383,0.562-0.383,0.921c0,0.358,0.128,0.663,0.383,0.913
	s0.557,0.375,0.906,0.375c0.368,0,0.68-0.125,0.935-0.375S76.078,30.571,76.078,30.212z M76.078,26.375
	c0-0.33-0.083-0.58-0.248-0.75s-0.417-0.255-0.757-0.255c-0.35,0-0.609,0.085-0.779,0.255s-0.255,0.42-0.255,0.75
	c0,0.34,0.085,0.595,0.255,0.765s0.43,0.255,0.779,0.255c0.34,0,0.592-0.085,0.757-0.255S76.078,26.714,76.078,26.375z"/>
<path fill="#80CBEC" d="M88.646,7.818L85.757,32.06l-4.489-0.439l0.219-1.289l1.742,0.241l0.07-2.591l-1.982-0.127l0.1-1.175
	l1.883,0.028l0.043-2.478l-2.075-0.085l0.149-1.048h1.954l0.042-2.719l-2.244-0.142l0.148-1.416l2.124,0.382V16.88l-2.124-0.241
	l0.17-1.161l1.997-0.042l0.028-2.45l-2.315-0.113l0.262-1.331l2.054,0.212l0.07-2.308l-2.457-0.184l0.191-1.444H88.646z"/>
<path fill="#80CBEC" d="M105.779,30.991c-0.236,0.236-0.449,0.445-0.638,0.629s-0.354,0.332-0.495,0.445l1.062,1.582l-0.991,0.58
	l-1.076-1.329c-0.378,0.226-0.779,0.417-1.203,0.572c-0.426,0.155-0.879,0.261-1.359,0.318l-0.029,1.671l-1.273-0.085l0.113-1.543
	c-0.435,0-0.897-0.045-1.389-0.134c-0.49-0.09-1.005-0.225-1.543-0.404l-0.793,1.699l-1.274-0.694l0.864-1.586
	c-0.463-0.255-0.886-0.55-1.268-0.885c-0.383-0.335-0.72-0.715-1.013-1.14l-1.515,0.963l-0.638-1.005l1.657-0.864
	c-0.218-0.453-0.388-0.918-0.51-1.395c-0.123-0.477-0.203-0.965-0.241-1.465l-1.515,0.382l-0.439-1.246l1.954-0.439
	c0.047-0.529,0.128-1.005,0.241-1.43s0.259-0.802,0.438-1.133l-1.374-0.821l0.652-1.076l1.345,0.935
	c0.236-0.292,0.493-0.557,0.771-0.793s0.573-0.444,0.886-0.623l-1.162-1.685l1.275-0.623l0.934,1.798
	c0.303-0.094,0.576-0.17,0.822-0.227c0.245-0.057,0.462-0.099,0.65-0.127l0.383-1.855l1.006,0.312l-0.256,1.473
	c0.378,0,0.736,0.047,1.076,0.142c0.34,0.095,0.666,0.236,0.978,0.425l1.401-1.388l0.793,0.666l-1.33,1.446
	c0.207,0.199,0.4,0.438,0.58,0.716s0.34,0.588,0.481,0.929l1.657-0.553l0.283,1.049l-1.601,0.553
	c0.075,0.208,0.14,0.435,0.191,0.681c0.052,0.246,0.102,0.511,0.148,0.794l-6.585,1.146v0.156c0,0.688,0.073,1.336,0.22,1.945
	c0.146,0.608,0.37,1.186,0.672,1.732c0.358,0.65,0.787,1.139,1.287,1.464s1.062,0.488,1.685,0.488c0.641,0,1.315-0.17,2.022-0.51
	c0.708-0.34,1.457-0.859,2.25-1.558L105.779,30.991z M99.987,24.031c-0.038-0.416-0.191-0.727-0.46-0.935
	c-0.27-0.208-0.654-0.312-1.154-0.312c-0.613,0-1.185,0.184-1.713,0.552c-0.529,0.368-0.888,0.84-1.076,1.416L99.987,24.031z"/>
<rect id="_x3C_スライス_x3E__1_" x="10" y="7" fill="none" width="96" height="35"/>
</svg>
