<?xml version="1.0" encoding="utf-8"?>
<!-- Generator: Adobe Illustrator 15.0.0, SVG Export Plug-In  -->
<!DOCTYPE svg PUBLIC "-//W3C//DTD SVG 1.1//EN" "http://www.w3.org/Graphics/SVG/1.1/DTD/svg11.dtd" [
	<!ENTITY ns_flows "http://ns.adobe.com/Flows/1.0/">
]>
<svg version="1.1"
	 xmlns="http://www.w3.org/2000/svg" xmlns:xlink="http://www.w3.org/1999/xlink" xmlns:a="http://ns.adobe.com/AdobeSVGViewerExtensions/3.0/"
	 x="0px" y="0px" width="70px" height="23px" viewBox="0 0 70 23" enable-background="new 0 0 70 23" xml:space="preserve">
<defs>
</defs>
<rect y="1" display="none" fill="#EAEAEA" width="228" height="757"/>
<rect y="1" display="none" fill="#FFFFFF" width="228" height="50"/>
<path fill="#80CBEC" d="M16.815,19.798c-0.373,0.806-0.813,1.407-1.321,1.801s-1.08,0.592-1.714,0.592
	c-0.703,0-1.413-0.237-2.128-0.711c-0.716-0.474-1.438-1.185-2.166-2.133l-4.28-5.599l-1.55,0.432l-0.432,8.011l-2.361,0.394
	L0,0.025L1.296,0l0.063,1.625l2.388,0.19l0.242-1.549l1.283,0.089L5.106,2.031l1.766,0.432l0.774-1.625l1.105,0.521L7.99,2.882
	c0.415,0.161,0.777,0.366,1.086,0.616S9.65,4.029,9.87,4.342l1.245-0.876l0.838,0.939L10.34,5.472
	c0.135,0.313,0.224,0.668,0.267,1.066s0.034,0.833-0.025,1.308l1.828,0.647L11.889,9.61L10.34,9.039
	c-0.084,0.33-0.216,0.662-0.394,0.997s-0.398,0.662-0.66,0.984l1.231,1.092l-0.774,1.016L8.36,12.086l-0.647,0.355l4.05,6.449
	c0.144,0.22,0.311,0.432,0.501,0.635s0.408,0.394,0.654,0.571c0.279,0.203,0.548,0.355,0.806,0.457s0.506,0.152,0.743,0.152
	c0.338,0,0.665-0.094,0.978-0.281s0.618-0.464,0.914-0.83L16.815,19.798z M7.801,10.563L6.288,3.796
	c-0.254-0.11-0.541-0.209-0.858-0.298C5.111,3.409,4.757,3.334,4.367,3.275l-0.622,9.458c0.856-0.22,1.623-0.512,2.301-0.876
	S7.31,11.062,7.801,10.563z"/>
<path fill="#80CBEC" d="M33.084,13.063c0,3.004-0.679,5.256-2.038,6.754s-3.404,2.247-6.138,2.247c-1.329,0-2.476-0.171-3.44-0.514
	s-1.748-0.857-2.349-1.543c-0.559-0.635-0.978-1.448-1.257-2.438c-0.279-0.99-0.419-2.154-0.419-3.492
	c0-1.109,0.129-2.766,0.387-4.972s0.387-3.863,0.387-4.972c0-0.72-0.053-1.35-0.159-1.892s-0.265-0.999-0.476-1.372l1.085-0.476
	c0.388,0.77,0.697,1.646,0.929,2.628c0.232,0.982,0.39,2.065,0.475,3.25c0.025,0.373,0.044,1.071,0.057,2.095
	s0.019,2.374,0.019,4.05c0,1.033,0.027,1.911,0.083,2.634s0.138,1.289,0.248,1.695c0.237,0.846,0.601,1.481,1.092,1.904
	s1.109,0.635,1.854,0.635c0.863,0,1.593-0.148,2.19-0.444s1.06-0.745,1.39-1.346c0.237-0.432,0.417-0.978,0.54-1.638
	s0.184-1.439,0.184-2.336c0-0.169-0.004-0.373-0.013-0.609s-0.017-0.503-0.025-0.8c-0.008-0.338-0.015-0.62-0.019-0.844
	s-0.006-0.396-0.006-0.514l1.942-0.152l-0.127-1.498l-1.841,0.063l-0.063-1.422l1.815-0.089l-0.051-1.473h-1.765l-0.063-1.485
	l1.828,0.127V3.466l-1.828-0.165L27.447,1.79l5.269,0.521c0.119,3.453,0.209,6.077,0.273,7.871S33.084,12.937,33.084,13.063z
	 M25.105,11.521c0,0.44-0.154,0.817-0.463,1.13s-0.679,0.47-1.111,0.47c-0.44,0-0.811-0.159-1.111-0.476s-0.451-0.692-0.451-1.124
	c0-0.423,0.15-0.792,0.451-1.104s0.671-0.47,1.111-0.47c0.432,0,0.802,0.154,1.111,0.463S25.105,11.089,25.105,11.521z"/>
<path fill="#80CBEC" d="M53.847,19.798c-0.373,0.806-0.813,1.407-1.321,1.801s-1.08,0.592-1.714,0.592
	c-0.703,0-1.413-0.237-2.128-0.711c-0.716-0.474-1.438-1.185-2.166-2.133l-4.28-5.599l-1.55,0.432l-0.432,8.011l-2.361,0.394
	l-0.863-22.56L38.328,0l0.063,1.625l2.388,0.19l0.242-1.549l1.283,0.089l-0.166,1.676l1.766,0.432l0.774-1.625l1.105,0.521
	l-0.762,1.523c0.415,0.161,0.777,0.366,1.086,0.616s0.574,0.531,0.794,0.844l1.245-0.876l0.838,0.939l-1.612,1.066
	c0.135,0.313,0.224,0.668,0.267,1.066s0.034,0.833-0.025,1.308l1.828,0.647L48.921,9.61l-1.549-0.571
	c-0.084,0.33-0.216,0.662-0.394,0.997s-0.398,0.662-0.66,0.984l1.231,1.092l-0.774,1.016l-1.384-1.041l-0.647,0.355l4.05,6.449
	c0.144,0.22,0.311,0.432,0.501,0.635s0.408,0.394,0.654,0.571c0.279,0.203,0.548,0.355,0.806,0.457s0.506,0.152,0.743,0.152
	c0.338,0,0.665-0.094,0.978-0.281s0.618-0.464,0.914-0.83L53.847,19.798z M44.833,10.563L43.32,3.796
	c-0.254-0.11-0.541-0.209-0.858-0.298c-0.318-0.089-0.672-0.163-1.062-0.222l-0.622,9.458c0.856-0.22,1.623-0.512,2.301-0.876
	S44.342,11.062,44.833,10.563z"/>
<path fill="#80CBEC" d="M70.116,13.063c0,3.004-0.679,5.256-2.038,6.754s-3.404,2.247-6.138,2.247c-1.329,0-2.476-0.171-3.44-0.514
	s-1.748-0.857-2.349-1.543c-0.559-0.635-0.978-1.448-1.257-2.438c-0.279-0.99-0.419-2.154-0.419-3.492
	c0-1.109,0.129-2.766,0.387-4.972s0.387-3.863,0.387-4.972c0-0.72-0.053-1.35-0.159-1.892s-0.265-0.999-0.476-1.372l1.085-0.476
	c0.388,0.77,0.697,1.646,0.929,2.628c0.232,0.982,0.39,2.065,0.475,3.25c0.025,0.373,0.044,1.071,0.057,2.095
	s0.019,2.374,0.019,4.05c0,1.033,0.027,1.911,0.083,2.634s0.138,1.289,0.248,1.695c0.237,0.846,0.601,1.481,1.092,1.904
	s1.109,0.635,1.854,0.635c0.863,0,1.593-0.148,2.19-0.444s1.06-0.745,1.39-1.346c0.237-0.432,0.417-0.978,0.54-1.638
	s0.184-1.439,0.184-2.336c0-0.169-0.004-0.373-0.013-0.609s-0.017-0.503-0.025-0.8c-0.008-0.338-0.015-0.62-0.019-0.844
	s-0.006-0.396-0.006-0.514l1.942-0.152l-0.127-1.498L64.67,9.166l-0.063-1.422l1.815-0.089l-0.051-1.473h-1.765l-0.063-1.485
	l1.828,0.127V3.466l-1.828-0.165L64.479,1.79l5.269,0.521c0.119,3.453,0.209,6.077,0.273,7.871S70.116,12.937,70.116,13.063z
	 M62.137,11.521c0,0.44-0.154,0.817-0.463,1.13s-0.679,0.47-1.111,0.47c-0.44,0-0.811-0.159-1.111-0.476s-0.451-0.692-0.451-1.124
	c0-0.423,0.15-0.792,0.451-1.104s0.671-0.47,1.111-0.47c0.432,0,0.802,0.154,1.111,0.463S62.137,11.089,62.137,11.521z"/>
<rect id="_x3C_スライス_x3E__1_" fill="none" width="70" height="23"/>
</svg>
