<?xml version="1.0" encoding="utf-8"?>
<!-- Generator: Adobe Illustrator 15.0.0, SVG Export Plug-In  -->
<!DOCTYPE svg PUBLIC "-//W3C//DTD SVG 1.1//EN" "http://www.w3.org/Graphics/SVG/1.1/DTD/svg11.dtd" [
	<!ENTITY ns_flows "http://ns.adobe.com/Flows/1.0/">
]>
<svg version="1.1"
	 xmlns="http://www.w3.org/2000/svg" xmlns:xlink="http://www.w3.org/1999/xlink" xmlns:a="http://ns.adobe.com/AdobeSVGViewerExtensions/3.0/"
	 x="0px" y="0px" width="80px" height="26px" viewBox="11 11 80 26" enable-background="new 11 11 80 26" xml:space="preserve">
<defs>
</defs>
<rect display="none" fill="#EAEAEA" width="228" height="757"/>
<rect display="none" fill="#FFFFFF" width="228" height="50"/>
<path fill="#80CBEC" d="M30.752,33.487c-0.416,0.899-0.907,1.569-1.473,2.009c-0.567,0.44-1.205,0.66-1.913,0.66
	c-0.784,0-1.575-0.264-2.373-0.793c-0.798-0.528-1.604-1.321-2.416-2.379l-4.774-6.244l-1.729,0.481l-0.481,8.935l-2.634,0.439
	l-0.963-25.163l1.445-0.028l0.071,1.813l2.664,0.213l0.269-1.728l1.431,0.099l-0.184,1.869l1.97,0.481l0.864-1.813l1.233,0.581
	l-0.85,1.699c0.463,0.179,0.867,0.408,1.211,0.687s0.64,0.593,0.886,0.941l1.388-0.977l0.935,1.048l-1.798,1.189
	c0.151,0.349,0.25,0.745,0.297,1.189c0.047,0.443,0.038,0.93-0.028,1.458l2.039,0.723l-0.58,1.246l-1.728-0.638
	c-0.095,0.368-0.241,0.739-0.439,1.112c-0.198,0.372-0.443,0.738-0.736,1.097l1.374,1.218l-0.864,1.133l-1.543-1.161l-0.723,0.396
	l4.518,7.193c0.16,0.246,0.347,0.481,0.559,0.708s0.456,0.439,0.729,0.638c0.312,0.227,0.611,0.396,0.899,0.51
	s0.564,0.17,0.828,0.17c0.378,0,0.741-0.104,1.091-0.314c0.349-0.209,0.689-0.517,1.02-0.925L30.752,33.487z M20.698,23.186
	l-1.688-7.547c-0.284-0.123-0.603-0.233-0.958-0.333c-0.355-0.099-0.75-0.182-1.185-0.248l-0.694,10.55
	c0.955-0.246,1.811-0.571,2.567-0.978C19.497,24.225,20.149,23.743,20.698,23.186z"/>
<path fill="#80CBEC" d="M48.898,25.976c0,3.351-0.757,5.862-2.273,7.533c-1.515,1.671-3.797,2.506-6.846,2.506
	c-1.482,0-2.761-0.19-3.837-0.573s-1.949-0.956-2.62-1.721c-0.623-0.709-1.09-1.615-1.402-2.72
	c-0.312-1.105-0.467-2.403-0.467-3.896c0-1.237,0.144-3.086,0.432-5.546c0.288-2.459,0.432-4.308,0.432-5.545
	c0-0.803-0.059-1.506-0.177-2.11c-0.118-0.604-0.295-1.114-0.531-1.529l1.211-0.531c0.432,0.858,0.777,1.836,1.036,2.931
	c0.259,1.096,0.435,2.304,0.529,3.625c0.028,0.416,0.049,1.194,0.063,2.337c0.015,1.142,0.021,2.647,0.021,4.517
	c0,1.152,0.031,2.132,0.092,2.938c0.062,0.808,0.154,1.438,0.276,1.891c0.264,0.943,0.67,1.651,1.218,2.124
	c0.547,0.472,1.237,0.708,2.067,0.708c0.963,0,1.777-0.165,2.442-0.496c0.666-0.33,1.183-0.83,1.551-1.501
	c0.264-0.481,0.465-1.09,0.602-1.826c0.137-0.736,0.206-1.605,0.206-2.605c0-0.189-0.005-0.416-0.014-0.68
	c-0.009-0.265-0.019-0.562-0.028-0.893c-0.009-0.377-0.017-0.691-0.021-0.941c-0.004-0.25-0.007-0.441-0.007-0.573l2.167-0.17
	l-0.142-1.671l-2.053,0.07l-0.071-1.586l2.025-0.099l-0.057-1.643h-1.968l-0.071-1.657l2.039,0.142v-1.515l-2.039-0.185
	l-0.071-1.685l5.876,0.58c0.132,3.852,0.233,6.778,0.305,8.779C48.862,24.763,48.898,25.834,48.898,25.976z M39.998,24.255
	c0,0.491-0.172,0.911-0.517,1.261c-0.345,0.349-0.758,0.523-1.239,0.523c-0.491,0-0.904-0.177-1.239-0.531
	c-0.335-0.354-0.502-0.771-0.502-1.253c0-0.472,0.167-0.883,0.502-1.231c0.335-0.35,0.748-0.524,1.239-0.524
	c0.481,0,0.895,0.172,1.239,0.517S39.998,23.773,39.998,24.255z"/>
<path fill="#80CBEC" d="M72.057,33.487c-0.415,0.899-0.906,1.569-1.473,2.009c-0.567,0.44-1.205,0.66-1.913,0.66
	c-0.784,0-1.575-0.264-2.373-0.793c-0.798-0.528-1.604-1.321-2.416-2.379l-4.774-6.244l-1.729,0.481l-0.481,8.935l-2.634,0.439
	l-0.963-25.163l1.445-0.028l0.071,1.813l2.664,0.213l0.269-1.728l1.431,0.099l-0.184,1.869l1.97,0.481l0.864-1.813l1.233,0.581
	l-0.85,1.699c0.463,0.179,0.867,0.408,1.211,0.687s0.64,0.593,0.886,0.941l1.388-0.977l0.935,1.048l-1.799,1.189
	c0.151,0.349,0.25,0.745,0.298,1.189c0.047,0.443,0.038,0.93-0.028,1.458l2.039,0.723l-0.581,1.246l-1.728-0.638
	c-0.094,0.368-0.24,0.739-0.438,1.112c-0.198,0.372-0.444,0.738-0.736,1.097l1.373,1.218l-0.863,1.133l-1.544-1.161l-0.722,0.396
	l4.517,7.193c0.161,0.246,0.347,0.481,0.56,0.708s0.456,0.439,0.729,0.638c0.312,0.227,0.611,0.396,0.899,0.51
	s0.564,0.17,0.829,0.17c0.377,0,0.741-0.104,1.09-0.314c0.35-0.209,0.689-0.517,1.02-0.925L72.057,33.487z M62.003,23.186
	l-1.688-7.547c-0.284-0.123-0.603-0.233-0.958-0.333c-0.355-0.099-0.75-0.182-1.185-0.248l-0.694,10.55
	c0.955-0.246,1.811-0.571,2.567-0.978C60.802,24.225,61.455,23.743,62.003,23.186z"/>
<path fill="#80CBEC" d="M90.203,25.976c0,3.351-0.758,5.862-2.272,7.533c-1.516,1.671-3.797,2.506-6.847,2.506
	c-1.482,0-2.761-0.19-3.837-0.573s-1.949-0.956-2.62-1.721c-0.623-0.709-1.09-1.615-1.402-2.72
	c-0.312-1.105-0.467-2.403-0.467-3.896c0-1.237,0.144-3.086,0.432-5.546c0.288-2.459,0.432-4.308,0.432-5.545
	c0-0.803-0.059-1.506-0.177-2.11c-0.118-0.604-0.295-1.114-0.531-1.529l1.21-0.531c0.433,0.858,0.778,1.836,1.036,2.931
	c0.259,1.096,0.435,2.304,0.529,3.625c0.028,0.416,0.049,1.194,0.063,2.337c0.014,1.142,0.021,2.647,0.021,4.517
	c0,1.152,0.031,2.132,0.092,2.938c0.061,0.808,0.153,1.438,0.276,1.891c0.264,0.943,0.67,1.651,1.218,2.124
	c0.547,0.472,1.237,0.708,2.067,0.708c0.963,0,1.777-0.165,2.443-0.496c0.665-0.33,1.182-0.83,1.55-1.501
	c0.264-0.481,0.465-1.09,0.602-1.826c0.137-0.736,0.205-1.605,0.205-2.605c0-0.189-0.005-0.416-0.014-0.68
	c-0.009-0.265-0.019-0.562-0.028-0.893c-0.009-0.377-0.017-0.691-0.021-0.941c-0.005-0.25-0.007-0.441-0.007-0.573l2.167-0.17
	l-0.142-1.671l-2.053,0.07l-0.071-1.586l2.024-0.099l-0.057-1.643h-1.968l-0.071-1.657l2.039,0.142v-1.515l-2.039-0.185
	l-0.071-1.685l5.877,0.58c0.132,3.852,0.233,6.778,0.304,8.779C90.168,24.763,90.203,25.834,90.203,25.976z M81.304,24.255
	c0,0.491-0.172,0.911-0.517,1.261c-0.345,0.349-0.757,0.523-1.239,0.523c-0.491,0-0.904-0.177-1.239-0.531
	c-0.335-0.354-0.503-0.771-0.503-1.253c0-0.472,0.168-0.883,0.503-1.231c0.335-0.35,0.748-0.524,1.239-0.524
	c0.481,0,0.894,0.172,1.239,0.517S81.304,23.773,81.304,24.255z"/>
<rect id="_x3C_スライス_x3E__1_" x="11" y="11" fill="none" width="80" height="26"/>
</svg>
