<?xml version="1.0" encoding="utf-8"?>
<!-- Generator: Adobe Illustrator 15.0.0, SVG Export Plug-In  -->
<!DOCTYPE svg PUBLIC "-//W3C//DTD SVG 1.1//EN" "http://www.w3.org/Graphics/SVG/1.1/DTD/svg11.dtd" [
	<!ENTITY ns_flows "http://ns.adobe.com/Flows/1.0/">
]>
<svg version="1.1"
	 xmlns="http://www.w3.org/2000/svg" xmlns:xlink="http://www.w3.org/1999/xlink" xmlns:a="http://ns.adobe.com/AdobeSVGViewerExtensions/3.0/"
	 x="0px" y="0px" width="91px" height="30px" viewBox="10 6 91 30" enable-background="new 10 6 91 30" xml:space="preserve">
<defs>
</defs>
<rect display="none" fill="#EAEAEA" width="228" height="757"/>
<rect display="none" fill="#FFFFFF" width="228" height="50"/>
<path fill="#80CBEC" d="M21.484,21.177c0,0.782-0.169,1.363-0.508,1.744c-0.339,0.381-0.847,0.572-1.524,0.572
	c-0.616,0-1.078-0.116-1.386-0.347c-0.308-0.231-0.462-0.578-0.462-1.041c0-0.227,0.062-0.432,0.184-0.616
	c0.123-0.185,0.307-0.342,0.552-0.475l0.411,0.305c-0.066,0.075-0.118,0.147-0.156,0.218s-0.057,0.138-0.057,0.204
	c0,0.188,0.057,0.326,0.17,0.415s0.278,0.133,0.496,0.133c0.302,0,0.524-0.073,0.666-0.218c0.142-0.145,0.212-0.373,0.212-0.683
	c0-0.244-0.063-0.464-0.19-0.662s-0.318-0.366-0.572-0.507c-0.198-0.112-0.417-0.197-0.656-0.253
	c-0.24-0.056-0.501-0.084-0.784-0.084c-0.359,0-0.684,0.045-0.972,0.134c-0.289,0.089-0.561,0.223-0.816,0.402
	c-0.275,0.198-0.479,0.433-0.611,0.706c-0.133,0.273-0.199,0.579-0.199,0.917c0,0.331,0.127,0.654,0.382,0.97
	s0.628,0.63,1.119,0.942c0.887,0.566,1.565,0.996,2.032,1.288c0.468,0.293,0.715,0.453,0.744,0.481
	c0.51,0.425,0.887,0.885,1.133,1.381s0.368,1.041,0.368,1.636c0,0.794-0.149,1.512-0.446,2.155
	c-0.297,0.643-0.751,1.201-1.364,1.673c-0.557,0.435-1.182,0.766-1.875,0.993s-1.45,0.34-2.27,0.34
	c-0.539,0-1.054-0.063-1.545-0.191c-0.492-0.127-0.969-0.318-1.432-0.572c-0.473-0.254-0.886-0.565-1.241-0.933
	s-0.65-0.786-0.886-1.257l1.055-0.984c0.434,0.812,0.967,1.416,1.599,1.813s1.358,0.595,2.178,0.595c0.745,0,1.355-0.22,1.832-0.661
	c0.476-0.44,0.714-1.024,0.714-1.753c0-0.472-0.106-0.933-0.319-1.381c-0.212-0.448-0.536-0.885-0.97-1.31
	c-0.396-0.35-0.798-0.699-1.204-1.048c-0.406-0.35-0.812-0.699-1.218-1.048c-0.425-0.435-0.746-0.888-0.963-1.359
	c-0.217-0.472-0.326-0.968-0.326-1.487c0-0.631,0.137-1.196,0.411-1.696c0.274-0.5,0.676-0.938,1.206-1.315
	c0.463-0.33,0.98-0.57,1.553-0.721c0.572-0.15,1.193-0.226,1.865-0.226c0.556,0,1.06,0.049,1.512,0.148
	c0.452,0.099,0.853,0.242,1.202,0.431c0.461,0.245,0.803,0.555,1.024,0.932C21.373,20.255,21.484,20.688,21.484,21.177z
	 M13.901,27.607c0,0.481-0.17,0.89-0.51,1.225s-0.746,0.503-1.218,0.503c-0.472,0-0.878-0.17-1.218-0.51s-0.51-0.746-0.51-1.218
	c0-0.472,0.17-0.878,0.51-1.218s0.746-0.51,1.218-0.51c0.472,0,0.878,0.17,1.218,0.51S13.901,27.135,13.901,27.607z"/>
<path fill="#80CBEC" d="M38.264,29.54c0,1.02-0.34,1.869-1.019,2.549s-1.533,1.02-2.561,1.02c-0.632,0-1.239-0.184-1.819-0.552
	s-1.134-0.92-1.662-1.657c-0.378-0.642-0.755-1.279-1.132-1.912c-0.377-0.632-0.755-1.274-1.132-1.926l-0.863,0.34l-0.765,5.211
	l-2.754-0.241l0.368-15.562l1.869-0.227l0.042-1.43l-1.94,0.212l0.028-1.515l2.067-0.212l0.113-1.345l-2.181,0.255l0.042-1.444
	l2.067-0.51V9.375l-2.039,0.269V8.208l6.075-1.381l-1.993,13.551c0.915-0.5,1.773-0.878,2.576-1.133
	c0.802-0.255,1.547-0.382,2.236-0.382c0.83,0,1.446,0.148,1.847,0.446c0.401,0.297,0.602,0.743,0.602,1.338
	c0,0.529-0.191,1.081-0.573,1.657c-0.383,0.576-0.951,1.18-1.707,1.813c-0.519,0.434-1.083,0.85-1.692,1.246
	c-0.609,0.396-1.258,0.774-1.947,1.133c0.406,0.68,0.77,1.253,1.09,1.72c0.321,0.468,0.585,0.824,0.793,1.069
	c0.472,0.566,0.932,0.991,1.38,1.274c0.449,0.283,0.876,0.425,1.282,0.425c0.434,0,0.791-0.146,1.069-0.439
	c0.279-0.292,0.418-0.651,0.418-1.076c0-0.34-0.068-0.595-0.205-0.765c-0.137-0.17-0.347-0.255-0.63-0.255
	c-0.217,0-0.382,0.052-0.496,0.156s-0.17,0.26-0.17,0.467c0,0.047,0.007,0.094,0.021,0.142c0.014,0.047,0.026,0.09,0.035,0.127
	l-0.722,0.227c-0.094-0.189-0.165-0.373-0.212-0.552s-0.071-0.359-0.071-0.538c0-0.491,0.177-0.897,0.531-1.218
	c0.354-0.321,0.777-0.481,1.268-0.481c0.387,0,0.731,0.071,1.034,0.212s0.562,0.349,0.779,0.623
	c0.208,0.264,0.368,0.555,0.481,0.871C38.207,28.801,38.264,29.152,38.264,29.54z M32.798,21.822c0-0.34-0.092-0.597-0.276-0.772
	c-0.184-0.174-0.46-0.262-0.828-0.262c-0.405,0-0.846,0.102-1.323,0.305c-0.476,0.203-0.987,0.512-1.534,0.927l-0.623,4.361
	c0.528-0.179,1.035-0.416,1.521-0.708c0.485-0.292,0.955-0.632,1.408-1.02c0.547-0.472,0.959-0.944,1.237-1.416
	S32.798,22.294,32.798,21.822z M32.961,15.953c0,0.34-0.085,0.593-0.255,0.758s-0.425,0.248-0.765,0.248
	c-0.331,0-0.581-0.083-0.751-0.248s-0.255-0.418-0.255-0.758s0.085-0.595,0.255-0.765s0.42-0.255,0.751-0.255
	c0.34,0,0.595,0.085,0.765,0.255S32.961,15.613,32.961,15.953z M33.357,12.441c0,0.34-0.083,0.593-0.248,0.758
	s-0.418,0.248-0.758,0.248c-0.349,0-0.608-0.083-0.778-0.248s-0.255-0.418-0.255-0.758c0-0.33,0.085-0.58,0.255-0.75
	s0.429-0.255,0.778-0.255c0.34,0,0.593,0.085,0.758,0.255S33.357,12.111,33.357,12.441z M33.598,9.17
	c0,0.34-0.083,0.592-0.248,0.757s-0.417,0.248-0.757,0.248c-0.331,0-0.581-0.083-0.751-0.248S31.587,9.51,31.587,9.17
	c0-0.35,0.085-0.609,0.255-0.779s0.42-0.255,0.751-0.255c0.34,0,0.592,0.085,0.757,0.255S33.598,8.821,33.598,9.17z"/>
<path fill="#80CBEC" d="M55.213,30.991c-0.236,0.236-0.448,0.445-0.637,0.629s-0.354,0.332-0.496,0.445l1.062,1.582l-0.991,0.58
	l-1.076-1.329c-0.377,0.226-0.779,0.417-1.204,0.572s-0.878,0.261-1.359,0.318l-0.028,1.671l-1.274-0.085l0.113-1.543
	c-0.434,0-0.897-0.045-1.388-0.134c-0.491-0.09-1.005-0.225-1.543-0.404l-0.793,1.699l-1.274-0.694l0.864-1.586
	c-0.462-0.255-0.885-0.55-1.267-0.885c-0.383-0.335-0.72-0.715-1.013-1.14l-1.515,0.963l-0.637-1.005l1.657-0.864
	c-0.217-0.453-0.387-0.918-0.51-1.395c-0.123-0.477-0.203-0.965-0.241-1.465l-1.515,0.382l-0.439-1.246l1.954-0.439
	c0.047-0.529,0.127-1.005,0.241-1.43s0.26-0.802,0.439-1.133l-1.374-0.821l0.651-1.076l1.345,0.935
	c0.236-0.292,0.493-0.557,0.771-0.793c0.279-0.236,0.574-0.444,0.885-0.623L43.46,18.99l1.274-0.623l0.935,1.798
	c0.302-0.094,0.576-0.17,0.821-0.227s0.462-0.099,0.651-0.127l0.382-1.855l1.005,0.312l-0.255,1.473
	c0.377,0,0.736,0.047,1.076,0.142c0.34,0.095,0.666,0.236,0.977,0.425l1.402-1.388l0.793,0.666l-1.331,1.446
	c0.208,0.199,0.401,0.438,0.581,0.716s0.34,0.588,0.481,0.929l1.657-0.553l0.283,1.049l-1.6,0.553
	c0.076,0.208,0.139,0.435,0.191,0.681c0.052,0.246,0.101,0.511,0.148,0.794l-6.584,1.146v0.156c0,0.688,0.073,1.336,0.219,1.945
	c0.146,0.608,0.37,1.186,0.672,1.732c0.358,0.65,0.788,1.139,1.288,1.464s1.061,0.488,1.684,0.488c0.641,0,1.315-0.17,2.023-0.51
	c0.707-0.34,1.457-0.859,2.25-1.558L55.213,30.991z M49.422,24.031c-0.038-0.416-0.191-0.727-0.46-0.935
	c-0.27-0.208-0.654-0.312-1.154-0.312c-0.614,0-1.185,0.184-1.713,0.552s-0.887,0.84-1.076,1.416L49.422,24.031z"/>
<path fill="#80CBEC" d="M66.98,19.996l-0.212,1.473l-2.832,0.212l-0.212,1.699l3.044,0.085l-0.581,2.011l-2.705-0.17l-1.062,7.802
	l-2.082,0.368l-0.269-8.425l-2.549-0.184l0.425-1.6l2.096,0.042l-0.071-1.331l-2.705,0.212l-0.609-2.195H59.9l-0.142-4.928
	l5.211-0.595l-0.765,5.522H66.98z M63.306,17.737c0-0.387-0.097-0.677-0.29-0.871s-0.484-0.291-0.871-0.291
	c-0.387,0-0.677,0.097-0.871,0.291s-0.291,0.484-0.291,0.871c0,0.396,0.097,0.692,0.291,0.885s0.484,0.291,0.871,0.291
	c0.387,0,0.678-0.097,0.871-0.291S63.306,18.133,63.306,17.737z M62.796,21.22c0-0.312-0.073-0.542-0.219-0.693
	c-0.146-0.151-0.371-0.227-0.672-0.227c-0.312,0-0.543,0.075-0.694,0.227c-0.151,0.151-0.227,0.382-0.227,0.693
	c0,0.302,0.076,0.526,0.227,0.673c0.151,0.146,0.383,0.22,0.694,0.22c0.302,0,0.526-0.073,0.672-0.22S62.796,21.522,62.796,21.22z"
	/>
<path fill="#80CBEC" d="M82.344,29.037c-0.896,1.197-1.883,2.092-2.963,2.686c-1.08,0.593-2.256,0.89-3.529,0.89
	c-1.975,0-3.584-0.606-4.826-1.82c-1.243-1.213-1.864-2.801-1.864-4.765c0-1.935,0.708-3.613,2.126-5.034
	c1.417-1.42,3.09-2.131,5.018-2.131c0.575,0,1.105,0.047,1.591,0.142c0.485,0.094,0.921,0.235,1.308,0.423
	c0.519,0.245,0.905,0.556,1.159,0.932c0.254,0.377,0.382,0.815,0.382,1.313c0,0.464-0.191,0.923-0.572,1.377
	c-0.381,0.454-0.958,0.904-1.729,1.349l-0.616-0.587c0.198-0.198,0.361-0.403,0.488-0.615c0.128-0.212,0.215-0.431,0.262-0.658
	l-1.685-0.424l0.198-0.607l1.529,0.212c-0.028-0.235-0.111-0.447-0.247-0.636s-0.327-0.354-0.572-0.495
	c-0.207-0.123-0.426-0.212-0.656-0.269s-0.473-0.085-0.727-0.085c-0.132,0-0.272,0.007-0.418,0.021
	c-0.146,0.015-0.295,0.031-0.447,0.05l0.327,2.209l-0.653,0.156l-0.582-1.926c-0.435,0.198-0.811,0.481-1.127,0.85
	c-0.317,0.368-0.57,0.812-0.759,1.331l1.958,0.581l-0.284,0.722l-1.929-0.481c-0.076,0.217-0.135,0.474-0.177,0.772
	c-0.043,0.297-0.064,0.639-0.064,1.026c0,0.179,0.009,0.352,0.028,0.517c0.019,0.166,0.047,0.324,0.085,0.475l1.613-0.552
	l0.439,0.835l-1.854,0.651c0.084,0.283,0.217,0.573,0.396,0.871c0.179,0.297,0.401,0.606,0.665,0.927l1.288-1.005l0.623,0.51
	l-1.118,1.076c0.311,0.246,0.662,0.427,1.054,0.545c0.391,0.118,0.837,0.177,1.337,0.177l0.127-1.657h0.735l0.142,1.628
	c0.339-0.028,0.672-0.097,0.998-0.206c0.326-0.108,0.653-0.257,0.983-0.446l-0.509-1.416l0.651-0.241l0.552,1.147
	c0.16-0.123,0.328-0.271,0.502-0.446c0.174-0.175,0.351-0.375,0.531-0.602L82.344,29.037z"/>
<path fill="#80CBEC" d="M100.355,29.115c0,0.236,0,0.562,0,0.977s-0.004,0.925-0.014,1.529l-5.353,0.878
	c0.378-1.624,0.661-3.108,0.85-4.454c0.188-1.345,0.283-2.556,0.283-3.632c0-0.481-0.03-0.951-0.092-1.409
	c-0.062-0.458-0.145-0.904-0.248-1.338c-0.151-0.614-0.345-1.076-0.581-1.388c-0.235-0.312-0.514-0.467-0.835-0.467
	c-0.548,0-1.114,0.149-1.699,0.446c-0.585,0.297-1.199,0.738-1.841,1.323l-0.354,10.501l-4.263,0.814l-0.283-1.119l1.869-0.269
	l-0.142-1.869l-1.869,0.283l-0.198-1.005l1.997-0.212l-0.17-2.322l-1.855,0.227l-0.142-1.02l1.926-0.184l-0.198-2.407l-1.728,0.269
	l-0.255-1.076l1.869-0.241l-0.142-1.954l-1.685,0.354l-0.213-1.218l1.799-0.212l-0.213-2.761l-1.558,0.283l-0.184-1.104l1.671-0.34
	l-0.227-2.733l-1.445,0.312l-0.255-1.147l1.586-0.368l-0.143-1.897l-1.543,0.552l-0.34-1.289l7.236-1.77l-0.482,12.829
	c0.709-0.538,1.419-0.939,2.132-1.204s1.428-0.396,2.146-0.396c1.113,0,2.051,0.356,2.811,1.069c0.76,0.713,1.333,1.777,1.721,3.193
	c0.217,0.793,0.38,1.77,0.488,2.931S100.355,27.585,100.355,29.115z M95.138,22.608c-0.595,1.199-1.093,2.419-1.493,3.661
	c-0.401,1.241-0.706,2.504-0.914,3.788l-1.316-0.495c0.415-1.482,0.89-2.856,1.423-4.121c0.533-1.265,1.131-2.421,1.791-3.469
	L95.138,22.608z"/>
<rect id="_x3C_スライス_x3E__1_" x="10" y="6" fill="none" width="91" height="30"/>
</svg>
